{
.appVersion = "1348";
DisplayStrings = (
"/sinMatraE",
"/sinMatraAae/sinMatraAe",
"/sinI",
"/sinLa",
"/sinCandrabindu",
"/sinRakar",
"/space/nbspace",
k,
"mnh\012\012",
"/sinZerolith"
);
copyright = "Copyright 2021 Yaldevi Fonts Project Authours (https://github.com/mooniak/yaldevi-fonts)";
customParameters = (
{
name = fsType;
value = (
);
},
{
name = license;
value = "This Font Software is licensed under the SIL Open Font License, Version 1.1. This license is available with a FAQ at: http://scripts.sil.org/OFL";
},
{
name = Axes;
value = (
{
Name = Weight;
Tag = wght;
}
);
},
{
name = unicodeRanges;
value = (
0,
1,
2,
20,
73
);
},
{
name = sampleText;
value = "දැරණියගලට ඉහල අහසේ දඟකරන වලාපෙළ මවනා සොඳුරු දසුන රාත්‍රිය උදාවත් සමග ක්‍ෂයවේ.";
},
{
name = vendorID;
value = MNIK;
},
{
name = licenseURL;
value = "http://scripts.sil.org/OFL";
},
{
name = glyphOrder;
value = (
sinA,
sinAa,
sinAe,
sinAae,
sinI,
sinIi,
sinU,
sinUu,
sinRVocalic,
sinRrVocalic,
sinLVocalic,
sinLlVocalic,
sinE,
sinEe,
sinAi,
sinO,
sinOo,
sinAu,
sinKa,
sinKha,
sinGa,
sinGha,
sinNga,
sinNnga,
sinCa,
sinCha,
sinJa,
sinJha,
sinNya,
sinJnya,
sinNyja,
sinTta,
sinTtha,
sinDda,
sinDdha,
sinNna,
sinNndda,
sinTa,
sinTha,
sinDa,
sinDha,
sinNa,
sinNda,
sinPa,
sinPha,
sinBa,
sinBha,
sinMa,
sinMba,
sinYa,
sinRa,
sinLa,
sinVa,
sinSha,
sinSsa,
sinSa,
sinHa,
sinLla,
sinFa,
sinfPa,
sinKSsa,
sinKVa,
sinTVa,
sinTTha,
sinNDa,
sinNDha,
sinNVa,
sinNTha,
sinGDha,
sinDVa,
sinDDha,
sinTtTtha,
sinNyCa,
sinNyCha,
sinCCa,
sinBBa,
sinMatraAa,
sinMatraAae,
sinMatraAe,
sinMatraAi,
sinMatraAu,
sinMatraE,
sinMatraEe,
sinMatraI,
sinMatraIi,
sinMatraLl,
sinMatraLs,
sinMatraO,
sinMatraOo,
sinMatraR,
sinMatraRr,
sinMatraU,
sinMatraUu,
sinMatraU.sub,
sinMatraUu.sub,
sinVirama,
sinRakar,
sinReph,
sinYansaya,
sinAnusvara,
sinCandrabindu,
sinVisarga,
sinMatraAa,
sinMatraAa.virama,
sinTouch,
sinK,
sinKh,
sinG,
sinGh,
sinNg,
sinNng,
sinC,
sinCh,
sinJ,
sinJh,
sinNy,
sinJny,
sinNyj,
sinTt,
sinTth,
sinDd,
sinDdh,
sinNn,
sinNndd,
sinT,

glyphs = (
{
glyphname = sinA;
lastChange = "2021-06-09 01:21:28 +0000";
layers = (
{
layerId = "6114C541-D024-4A3E-9713-6FAF49EAB318";
paths = (
{
closed = 1;
nodes = (
"331 -233 LINE",
"328 473 LINE",
"328 473 OFFCURVE",
"342 556 OFFCURVE",
"394 607 CURVE",
"397 610 OFFCURVE",
"477 699 OFFCURVE",
"561 699 CURVE",
"609 628 LINE",
"596 621 OFFCURVE",
"592 606 OFFCURVE",
"592 588 CURVE SMOOTH",
"592 553 OFFCURVE",
"608 502 OFFCURVE",
"608 454 CURVE SMOOTH",
"608 398 OFFCURVE",
"573 335 OFFCURVE",
"485 335 CURVE SMOOTH",
"472 335 OFFCURVE",
"458 336 OFFCURVE",
"443 339 CURVE",
"444 430 LINE",
"449 430 OFFCURVE",
"454 430 OFFCURVE",
"458 430 CURVE SMOOTH",
"496 430 OFFCURVE",
"512 447 OFFCURVE",
"512 476 CURVE SMOOTH",
"512 499 OFFCURVE",
"505 524 OFFCURVE",
"499 544 CURVE SMOOTH",
"498 549 OFFCURVE",
"497 553 OFFCURVE",
"496 556 CURVE",
"446 522 OFFCURVE",
"450 459 OFFCURVE",
"449 372 CURVE",
"449 -233 LINE"
);
},
{
closed = 1;
nodes = (
"25 247 CURVE SMOOTH",
"25 377 OFFCURVE",
"135 480 OFFCURVE",
"272 480 CURVE SMOOTH",
"294 480 OFFCURVE",
"308 478 OFFCURVE",
"328 476 CURVE",
"329 483 OFFCURVE",
"330 490 OFFCURVE",
"330 497 CURVE SMOOTH",
"330 539 OFFCURVE",
"304 567 OFFCURVE",
"272 567 CURVE SMOOTH",
"238 567 OFFCURVE",
"220 543 OFFCURVE",
"220 516 CURVE SMOOTH",
"220 502 OFFCURVE",
"224 486 OFFCURVE",
"233 476 CURVE",
"145 431 LINE",
"123 460 OFFCURVE",
"114 490 OFFCURVE",
"114 522 CURVE SMOOTH",
"114 608 OFFCURVE",
"173 678 OFFCURVE",
"272 678 CURVE SMOOTH",
"359 678 OFFCURVE",
"441 614 OFFCURVE",
"441 489 CURVE SMOOTH",
"441 454 OFFCURVE",
"433 406 OFFCURVE",
"419 362 CURVE",
"419 362 OFFCURVE",
"327 362 OFFCURVE",
"272 362 CURVE SMOOTH",
"209 362 OFFCURVE",
"153 311 OFFCURVE",
"153 247 CURVE SMOOTH",
"153 183 OFFCURVE",
"197 127 OFFCURVE",
"308 127 CURVE SMOOTH",
"443 127 OFFCURVE",
"505 199 OFFCURVE",
"529 221 CURVE",
"607 126 LINE",
"562 81 OFFCURVE",
"452 0 OFFCURVE",
"308 0 CURVE SMOOTH",
"117 0 OFFCURVE",
"25 110 OFFCURVE"
);
}
);
width = 636;
},
{
layerId = "CC11FE7D-5FF0-4B40-9597-DFC61EB94F41";
paths = (
{
closed = 1;
nodes = (
"374 -233 LINE",
"372 464 LINE",
"374 484 OFFCURVE",
"388 535 OFFCURVE",
"399 558 CURVE",
"427 613 OFFCURVE",
"480 666 OFFCURVE",
"558 682 CURVE",
"570 654 LINE",
"556 643 OFFCURVE",
"551 628 OFFCURVE",
"551 609 CURVE SMOOTH",
"551 568 OFFCURVE",
"585 518 OFFCURVE",
"585 468 CURVE SMOOTH",
"585 408 OFFCURVE",
"551 364 OFFCURVE",
"474 364 CURVE SMOOTH",
"456 364 OFFCURVE",
"428 371 OFFCURVE",
"412 379 CURVE",
"412 418 LINE",
"432 406 OFFCURVE",
"453 403 OFFCURVE",
"469 403 CURVE SMOOTH",
"521 403 OFFCURVE",
"544 429 OFFCURVE",
"544 468 CURVE SMOOTH",
"544 502 OFFCURVE",
"515 557 OFFCURVE",
"515 601 CURVE SMOOTH",
"515 611 OFFCURVE",
"517 620 OFFCURVE",
"520 628 CURVE",
"488 617 OFFCURVE",
"422 555 OFFCURVE",
"417 481 CURVE",
"417 -233 LINE"
);
},
{
closed = 1;
nodes = (
"38 241 CURVE SMOOTH",
"38 356 OFFCURVE",
"121 468 OFFCURVE",
"262 468 CURVE SMOOTH",
"289 468 OFFCURVE",
"344 468 OFFCURVE",
"371 468 CURVE",
"373 480 OFFCURVE",
"377 499 OFFCURVE",
"377 517 CURVE SMOOTH",
"377 597 OFFCURVE",
"329 634 OFFCURVE",
"274 634 CURVE SMOOTH",
"228 634 OFFCURVE",
"179 603 OFFCURVE",
"179 539 CURVE SMOOTH",
"179 491 OFFCURVE",
"204 463 OFFCURVE",
"215 453 CURVE",
"187 428 LINE",
"174 440 OFFCURVE",
"141 477 OFFCURVE",
"141 539 CURVE SMOOTH",
"141 629 OFFCURVE",
"209 673 OFFCURVE",
"274 673 CURVE SMOOTH",
"347 673 OFFCURVE",
"415 624 OFFCURVE",
"415 517 CURVE SMOOTH",
"415 483 OFFCURVE",
"410 455 OFFCURVE",
"399 426 CURVE",
"399 426 OFFCURVE",
"311 426 OFFCURVE",
"262 426 CURVE SMOOTH",
"148 426 OFFCURVE",
"80 336 OFFCURVE",
"80 241 CURVE SMOOTH",
"80 122 OFFCURVE",
"169 46 OFFCURVE",
"290 46 CURVE SMOOTH",
"436 46 OFFCURVE",
"504 120 OFFCURVE",
"541 157 CURVE",
"567 129 LINE",
"527 88 OFFCURVE",
"454 3 OFFCURVE",
"290 3 CURVE SMOOTH",
"145 3 OFFCURVE",
"38 97 OFFCURVE"
);
}
);
width = 623;
}
);
unicode = 0D85;
},
{
glyphname = sinI;
lastChange = "2021-06-09 02:09:31 +0000";
layers = (
{
layerId = "6114C541-D024-4A3E-9713-6FAF49EAB318";
paths = (
{
closed = 1;
nodes = (
"131 -125 CURVE",
"219 -66 LINE",
"245 -100 OFFCURVE",
"272 -114 OFFCURVE",
"296 -114 CURVE SMOOTH",
"331 -114 OFFCURVE",
"357 -85 OFFCURVE",
"357 -53 CURVE SMOOTH",
"357 -25 OFFCURVE",
"346 14 OFFCURVE",
"278 14 CURVE SMOOTH",
"269 14 OFFCURVE",
"259 14 OFFCURVE",
"247 12 CURVE",
"262 79 LINE",
"387 61 LINE",
"445 55 OFFCURVE",
"479 0 OFFCURVE",
"479 -58 CURVE SMOOTH",
"479 -165 OFFCURVE",
"398 -232 OFFCURVE",
"308 -232 CURVE SMOOTH",
"246 -232 OFFCURVE",
"179 -199 OFFCURVE"
);
},
{
closed = 1;
nodes = (
"26 403 CURVE SMOOTH",
"26 542 OFFCURVE",
"120 676 OFFCURVE",
"300 676 CURVE SMOOTH",
"480 676 OFFCURVE",
"611 564 OFFCURVE",
"611 338 CURVE SMOOTH",
"611 148 OFFCURVE",
"492 51 OFFCURVE",
"403 39 CURVE SMOOTH",
"330 29 OFFCURVE",
"303 23 OFFCURVE",
"247 12 CURVE",
"245 121 LINE",
"345 121 OFFCURVE",
"480 147 OFFCURVE",
"480 338 CURVE SMOOTH",
"480 473 OFFCURVE",
"408 549 OFFCURVE",
"300 549 CURVE SMOOTH",
"182 549 OFFCURVE",
"134 489 OFFCURVE",
"134 427 CURVE SMOOTH",
"134 426 OFFCURVE",
"146 340 OFFCURVE",
"146 339 CURVE",
"143 241 LINE",
"59 265 LINE",
"36 308 OFFCURVE",
"26 356 OFFCURVE"
);
},
{
closed = 1;
nodes = (
"158 336 CURVE SMOOTH",
"158 308 OFFCURVE",
"181 286 OFFCURVE",
"208 286 CURVE SMOOTH",
"236 286 OFFCURVE",
"258 308 OFFCURVE",
"258 336 CURVE SMOOTH",
"258 363 OFFCURVE",
"236 385 OFFCURVE",
"208 385 CURVE SMOOTH",
"181 385 OFFCURVE",
"158 363 OFFCURVE"
);
},
{
closed = 1;
nodes = (
"42 340 CURVE SMOOTH",
"42 382 OFFCURVE",
"77 410 OFFCURVE",
"126 440 CURVE",
"150 477 OFFCURVE",
"191 493 OFFCURVE",
"232 493 CURVE SMOOTH",
"272 493 OFFCURVE",
"311 478 OFFCURVE",
"334 453 CURVE SMOOTH",
"361 423 OFFCURVE",
"378 383 OFFCURVE",
"378 340 CURVE SMOOTH",
"378 246 OFFCURVE",
"303 172 OFFCURVE",
"210 172 CURVE SMOOTH",
"128 172 OFFCURVE",
"60 230 OFFCURVE",
"45 307 CURVE SMOOTH",
"43 318 OFFCURVE",
"42 329 OFFCURVE"
);
}
);
width = 597;
},
{
layerId = "CC11FE7D-5FF0-4B40-9597-DFC61EB94F41";
paths = (
{
closed = 1;
nodes = (
"142 -157 CURVE",
"174 -130 LINE",
"205 -169 OFFCURVE",
"243 -186 OFFCURVE",
"278 -186 CURVE SMOOTH",
"345 -186 OFFCURVE",
"384 -139 OFFCURVE",
"384 -80 CURVE SMOOTH",
"384 -32 OFFCURVE",
"372 23 OFFCURVE",
"276 31 CURVE SMOOTH",
"268 32 OFFCURVE",
"259 32 OFFCURVE",
"250 32 CURVE",
"276 64 LINE",
"328 51 LINE",
"377 49 OFFCURVE",
"426 7 OFFCURVE",
"426 -80 CURVE SMOOTH",
"426 -162 OFFCURVE",
"371 -228 OFFCURVE",
"278 -228 CURVE SMOOTH",
"232 -228 OFFCURVE",
"182 -206 OFFCURVE"
);
},
{
closed = 1;
nodes = (
"38 427 CURVE SMOOTH",
"38 542 OFFCURVE",
"115 673 OFFCURVE",
"296 673 CURVE SMOOTH",
"444 673 OFFCURVE",
"566 586 OFFCURVE",
"566 366 CURVE SMOOTH",
"566 185 OFFCURVE",
"469 80 OFFCURVE",
"334 44 CURVE SMOOTH",
"307 37 OFFCURVE",
"279 33 OFFCURVE",
"250 32 CURVE",
"249 75 LINE",
"366 75 OFFCURVE",
"524 155 OFFCURVE",
"524 366 CURVE SMOOTH",
"524 556 OFFCURVE",
"422 630 OFFCURVE",
"296 630 CURVE SMOOTH",
"152 630 OFFCURVE",
"76 532 OFFCURVE",
"76 427 CURVE SMOOTH",
"76 344 OFFCURVE",
"116 282 OFFCURVE",
"116 282 CURVE",
"130 248 LINE",
"92 254 LINE",
"56 296 OFFCURVE",
"38 349 OFFCURVE"
);
},
{
closed = 1;
nodes = (
"100 341 CURVE SMOOTH",
"100 286 OFFCURVE",
"145 242 OFFCURVE",
"200 242 CURVE SMOOTH",
"255 242 OFFCURVE",
"300 286 OFFCURVE",
"300 341 CURVE SMOOTH",
"300 397 OFFCURVE",
"255 441 OFFCURVE",
"200 441 CURVE SMOOTH",
"145 441 OFFCURVE",
"100 397 OFFCURVE"
);
},
{
closed = 1;
nodes = (
"65 314 CURVE SMOOTH",
"65 323 OFFCURVE",
"66 332 OFFCURVE",
"66 341 CURVE",
"66 418 OFFCURVE",
"118 482 OFFCURVE",
"200 482 CURVE SMOOTH",
"231 482 OFFCURVE",
"259 472 OFFCURVE",
"282 455 CURVE SMOOTH",
"317 429 OFFCURVE",
"339 388 OFFCURVE",
"339 342 CURVE SMOOTH",
"339 265 OFFCURVE",
"277 203 OFFCURVE",
"200 203 CURVE SMOOTH",
"139 203 OFFCURVE",
"87 241 OFFCURVE",
"67 296 CURVE SMOOTH",
"65 302 OFFCURVE",
"65 308 OFFCURVE"
);
}
);
width = 606;
},
{
associatedMasterId = "CC11FE7D-5FF0-4B40-9597-DFC61EB94F41";
layerId = "11EB7187-2A80-453C-918C-EBE0AA7CB21E";
name = "Jun 9 21, 07:34";
paths = (
{
closed = 1;
nodes = (
"122 -157 CURVE",
"154 -130 LINE",
"185 -169 OFFCURVE",
"223 -186 OFFCURVE",
"258 -186 CURVE SMOOTH",
"325 -186 OFFCURVE",
"364 -139 OFFCURVE",
"364 -80 CURVE SMOOTH",
"364 -32 OFFCURVE",
"352 23 OFFCURVE",
"256 31 CURVE SMOOTH",
"248 32 OFFCURVE",
"239 32 OFFCURVE",
"230 32 CURVE",
"256 64 LINE",
"308 51 LINE",
"357 49 OFFCURVE",
"406 7 OFFCURVE",
"406 -80 CURVE SMOOTH",
"406 -162 OFFCURVE",
"351 -228 OFFCURVE",
"258 -228 CURVE SMOOTH",
"212 -228 OFFCURVE",
"162 -206 OFFCURVE"
);
},
{
closed = 1;
nodes = (
"38 427 CURVE SMOOTH",
"38 542 OFFCURVE",
"115 673 OFFCURVE",
"286 673 CURVE SMOOTH",
"424 673 OFFCURVE",
"546 586 OFFCURVE",
"546 366 CURVE SMOOTH",
"546 185 OFFCURVE",
"449 80 OFFCURVE",
"314 44 CURVE SMOOTH",
"287 37 OFFCURVE",
"259 33 OFFCURVE",
"230 32 CURVE",
"229 75 LINE",
"346 75 OFFCURVE",
"504 155 OFFCURVE",
"504 366 CURVE SMOOTH",
"504 556 OFFCURVE",
"402 630 OFFCURVE",
"286 630 CURVE SMOOTH",
"152 630 OFFCURVE",
"76 532 OFFCURVE",
"76 427 CURVE SMOOTH",
"76 344 OFFCURVE",
"116 282 OFFCURVE",
"116 282 CURVE",
"130 248 LINE",
"92 254 LINE",
"56 296 OFFCURVE",
"38 349 OFFCURVE"
);
},
{
closed = 1;
nodes = (
"100 341 CURVE SMOOTH",
"100 286 OFFCURVE",
"145 242 OFFCURVE",
"200 242 CURVE SMOOTH",
"255 242 OFFCURVE",
"300 286 OFFCURVE",
"300 341 CURVE SMOOTH",
"300 397 OFFCURVE",
"255 441 OFFCURVE",
"200 441 CURVE SMOOTH",
"145 441 OFFCURVE",
"100 397 OFFCURVE"
);
},
{
closed = 1;
nodes = (
"65 314 CURVE SMOOTH",
"65 323 OFFCURVE",
"66 332 OFFCURVE",
"66 341 CURVE",
"66 418 OFFCURVE",
"118 482 OFFCURVE",
"200 482 CURVE SMOOTH",
"231 482 OFFCURVE",
"259 472 OFFCURVE",
"282 455 CURVE SMOOTH",
"317 429 OFFCURVE",
"339 388 OFFCURVE",
"339 342 CURVE SMOOTH",
"339 265 OFFCURVE",
"277 203 OFFCURVE",
"200 203 CURVE SMOOTH",
"139 203 OFFCURVE",
"87 241 OFFCURVE",
"67 296 CURVE SMOOTH",
"65 302 OFFCURVE",
"65 308 OFFCURVE"
);
}
);
width = 584;
}
);
unicode = 0D89;
},
{
glyphname = sinIi;
lastChange = "2021-06-09 01:21:28 +0000";
layers = (
{
components = (
{
name = sinRa;
}
);
layerId = "6114C541-D024-4A3E-9713-6FAF49EAB318";
paths = (
{
closed = 1;
nodes = (
"222 754 OFFCURVE",
"256 796 OFFCURVE",
"256 838 CURVE SMOOTH",
"256 871 OFFCURVE",
"229 887 OFFCURVE",
"193 887 CURVE SMOOTH",
"152 887 OFFCURVE",
"115 867 OFFCURVE",
"115 821 CURVE SMOOTH",
"115 784 OFFCURVE",
"145 754 OFFCURVE",
"181 754 CURVE SMOOTH"
);
},
{
closed = 1;
nodes = (
"570 754 OFFCURVE",
"600 784 OFFCURVE",
"600 821 CURVE SMOOTH",
"600 857 OFFCURVE",
"570 887 OFFCURVE",
"534 887 CURVE SMOOTH",
"497 887 OFFCURVE",
"468 857 OFFCURVE",
"468 821 CURVE SMOOTH",
"468 784 OFFCURVE",
"497 754 OFFCURVE",
"534 754 CURVE SMOOTH"
);
}
);
width = 572;
},
{
components = (
{
name = sinRa;
}
);
layerId = "CC11FE7D-5FF0-4B40-9597-DFC61EB94F41";
paths = (
{
closed = 1;
nodes = (
"262 800 OFFCURVE",
"279 818 OFFCURVE",
"279 839 CURVE SMOOTH",
"279 861 OFFCURVE",
"262 879 OFFCURVE",
"240 879 CURVE SMOOTH",
"218 879 OFFCURVE",
"201 861 OFFCURVE",
"201 839 CURVE SMOOTH",
"201 818 OFFCURVE",
"218 800 OFFCURVE",
"240 800 CURVE SMOOTH"
);
},
{
closed = 1;
nodes = (
"529 800 OFFCURVE",
"546 818 OFFCURVE",
"546 839 CURVE SMOOTH",
"546 861 OFFCURVE",
"529 879 OFFCURVE",
"507 879 CURVE SMOOTH",
"485 879 OFFCURVE",
"468 861 OFFCURVE",
"468 839 CURVE SMOOTH",
"468 818 OFFCURVE",
"485 800 OFFCURVE",
"507 800 CURVE SMOOTH"
);
}
);
width = 565;
}
);
unicode = 0D8A;
},
{
glyphname = sinU;
lastChange = "2021-06-09 01:21:28 +0000";
layers = (
{
layerId = "6114C541-D024-4A3E-9713-6FAF49EAB318";
paths = (
{
closed = 1;
nodes = (
"34 154 CURVE SMOOTH",
"34 336 OFFCURVE",
"128 482 OFFCURVE",
"363 482 CURVE SMOOTH",
"384 482 OFFCURVE",
"398 480 OFFCURVE",
"419 478 CURVE",
"420 486 OFFCURVE",
"420 492 OFFCURVE",
"420 499 CURVE SMOOTH",
"420 542 OFFCURVE",
"395 569 OFFCURVE",
"363 569 CURVE SMOOTH",
"329 569 OFFCURVE",
"311 545 OFFCURVE",
"311 518 CURVE SMOOTH",
"311 504 OFFCURVE",
"315 489 OFFCURVE",
"324 478 CURVE",
"236 434 LINE",
"214 462 OFFCURVE",
"205 492 OFFCURVE",
"205 524 CURVE SMOOTH",
"205 610 OFFCURVE",
"264 681 OFFCURVE",
"363 681 CURVE SMOOTH",
"450 681 OFFCURVE",
"531 616 OFFCURVE",
"531 492 CURVE SMOOTH",
"531 456 OFFCURVE",
"524 409 OFFCURVE",
"510 364 CURVE",
"510 364 OFFCURVE",
"418 364 OFFCURVE",
"363 364 CURVE SMOOTH",
"229 364 OFFCURVE",
"167 276 OFFCURVE",
"167 154 CURVE SMOOTH",
"167 48 OFFCURVE",
"222 -41 OFFCURVE",
"343 -41 CURVE SMOOTH",
"428 -41 OFFCURVE",
"488 14 OFFCURVE",
"498 85 CURVE",
"627 67 LINE",
"613 -63 OFFCURVE",
"510 -173 OFFCURVE",
"343 -173 CURVE SMOOTH",
"131 -173 OFFCURVE",
"34 -23 OFFCURVE"
);
}
);
width = 629;
},
{
layerId = "CC11FE7D-5FF0-4B40-9597-DFC61EB94F41";
paths = (
{
closed = 1;
nodes = (
"38 151 CURVE SMOOTH",
"38 372 OFFCURVE",
"178 468 OFFCURVE",
"319 468 CURVE SMOOTH",
"347 468 OFFCURVE",
"401 468 OFFCURVE",
"428 468 CURVE",
"430 480 OFFCURVE",
"434 499 OFFCURVE",
"434 517 CURVE SMOOTH",
"434 597 OFFCURVE",
"386 634 OFFCURVE",
"331 634 CURVE SMOOTH",
"285 634 OFFCURVE",
"237 603 OFFCURVE",
"237 539 CURVE SMOOTH",
"237 491 OFFCURVE",
"261 463 OFFCURVE",
"272 453 CURVE",
"245 428 LINE",
"231 440 OFFCURVE",
"199 477 OFFCURVE",
"199 539 CURVE SMOOTH",
"199 629 OFFCURVE",
"266 673 OFFCURVE",
"331 673 CURVE SMOOTH",
"404 673 OFFCURVE",
"473 624 OFFCURVE",
"473 517 CURVE SMOOTH",
"473 483 OFFCURVE",
"467 455 OFFCURVE",
"457 426 CURVE",
"457 426 OFFCURVE",
"368 426 OFFCURVE",
"319 426 CURVE SMOOTH",
"201 426 OFFCURVE",
"83 343 OFFCURVE",
"83 151 CURVE SMOOTH",
"83 9 OFFCURVE",
"153 -129 OFFCURVE",
"312 -129 CURVE SMOOTH",
"444 -129 OFFCURVE",
"514 -41 OFFCURVE",
"535 40 CURVE",
"577 33 LINE",
"552 -66 OFFCURVE",
"478 -172 OFFCURVE",
"312 -172 CURVE SMOOTH",
"122 -172 OFFCURVE",
"38 -13 OFFCURVE"
);
}
);
width = 616;
}
);
unicode = 0D8B;
},
{
glyphname = sinRVocalic;
lastChange = "2021-06-09 01:21:28 +0000";
layers = (
{
layerId = "6114C541-D024-4A3E-9713-6FAF49EAB318";
paths = (
{
closed = 1;
nodes = (
"275 0 OFFCURVE",
"320 36 OFFCURVE",
"338 90 CURVE",
"356 36 OFFCURVE",
"401 0 OFFCURVE",
"461 0 CURVE SMOOTH",
"588 0 OFFCURVE",
"639 108 OFFCURVE",
"639 236 CURVE SMOOTH",
"639 327 OFFCURVE",
"617 391 OFFCURVE",
"569 433 CURVE SMOOTH",
"543 456 OFFCURVE",
"508 473 OFFCURVE",
"469 473 CURVE SMOOTH",
"207 473 LINE SMOOTH",
"168 473 OFFCURVE",
"134 456 OFFCURVE",
"107 433 CURVE SMOOTH",
"59 391 OFFCURVE",
"37 328 OFFCURVE",
"37 236 CURVE SMOOTH",
"37 108 OFFCURVE",
"88 0 OFFCURVE",
"215 0 CURVE SMOOTH"
);
},
{
closed = 1;
nodes = (
"175 131 OFFCURVE",
"159 179 OFFCURVE",
"159 236 CURVE SMOOTH",
"159 294 OFFCURVE",
"181 362 OFFCURVE",
"227 362 CURVE SMOOTH",
"449 362 LINE SMOOTH",
"495 362 OFFCURVE",
"518 294 OFFCURVE",
"518 236 CURVE SMOOTH",
"518 179 OFFCURVE",
"501 131 OFFCURVE",
"461 131 CURVE SMOOTH",
"408 131 OFFCURVE",
"390 201 OFFCURVE",
"390 284 CURVE",
"286 284 LINE",
"286 201 OFFCURVE",
"268 131 OFFCURVE",
"215 131 CURVE SMOOTH"
);
},
{
closed = 1;
nodes = (
"189 467 LINE",
"180 478 OFFCURVE",
"172 501 OFFCURVE",
"172 515 CURVE SMOOTH",
"172 542 OFFCURVE",
"188 566 OFFCURVE",
"228 566 CURVE SMOOTH",
"254 566 OFFCURVE",
"287 548 OFFCURVE",
"287 494 CURVE SMOOTH",
"287 488 OFFCURVE",
"286 481 OFFCURVE",
"285 473 CURVE",
"338 362 LINE",
"352 409 OFFCURVE",
"387 484 OFFCURVE",
"387 532 CURVE SMOOTH",
"387 538 OFFCURVE",
"386 544 OFFCURVE",
"385 550 CURVE SMOOTH",
"362 633 OFFCURVE",
"295 676 OFFCURVE",
"223 676 CURVE SMOOTH",
"125 676 OFFCURVE",
"66 606 OFFCURVE",
"66 519 CURVE SMOOTH",
"66 487 OFFCURVE",
"78 449 OFFCURVE",
"101 420 CURVE"
);
},
{
closed = 1;
nodes = (
"822 3 OFFCURVE",
"851 20 OFFCURVE",
"877 20 CURVE SMOOTH",
"889 20 OFFCURVE",
"901 15 OFFCURVE",
"912 0 CURVE",
"865 118 LINE",
"861 117 OFFCURVE",
"855 114 OFFCURVE",
"848 112 CURVE SMOOTH",
"840 110 OFFCURVE",
"831 108 OFFCURVE",
"822 108 CURVE SMOOTH",
"801 108 OFFCURVE",
"778 120 OFFCURVE",
"778 172 CURVE SMOOTH",
"778 212 OFFCURVE",
"799 223 OFFCURVE",
"819 223 CURVE SMOOTH",
"834 223 OFFCURVE",
"849 217 OFFCURVE",
"857 211 CURVE",
"874 306 LINE",
"860 322 OFFCURVE",
"831 333 OFFCURVE",
"800 333 CURVE SMOOTH",
"740 333 OFFCURVE",
"670 292 OFFCURVE",
"670 163 CURVE SMOOTH",
"670 102 OFFCURVE",
"700 3 OFFCURVE",
"786 3 CURVE SMOOTH"
);
},
{
closed = 1;
nodes = (
"598 449 OFFCURVE",
"610 487 OFFCURVE",
"610 519 CURVE SMOOTH",
"610 606 OFFCURVE",
"551 676 OFFCURVE",
"453 676 CURVE SMOOTH",
"381 676 OFFCURVE",
"314 633 OFFCURVE",
"292 550 CURVE SMOOTH",
"290 544 OFFCURVE",
"289 538 OFFCURVE",
"289 532 CURVE SMOOTH",
"289 484 OFFCURVE",
"324 409 OFFCURVE",
"338 362 CURVE",
"391 473 LINE",
"390 481 OFFCURVE",
"389 488 OFFCURVE",
"389 494 CURVE SMOOTH",
"389 547 OFFCURVE",
"422 564 OFFCURVE",
"448 564 CURVE SMOOTH",
"488 564 OFFCURVE",
"504 541 OFFCURVE",
"504 513 CURVE SMOOTH",
"504 500 OFFCURVE",
"496 477 OFFCURVE",
"487 467 CURVE",
"575 420 LINE"
);
},
{
closed = 1;
nodes = (
"997 55 LINE",
"963 101 OFFCURVE",
"953 152 OFFCURVE",
"953 209 CURVE SMOOTH",
"953 281 OFFCURVE",
"970 367 OFFCURVE",
"970 453 CURVE SMOOTH",
"970 580 OFFCURVE",
"922 629 OFFCURVE",
"824 629 CURVE SMOOTH",
"728 629 OFFCURVE",
"678 575 OFFCURVE",
"678 457 CURVE SMOOTH",
"678 445 OFFCURVE",
"678 432 OFFCURVE",
"679 418 CURVE",
"785 418 LINE",
"784 432 OFFCURVE",
"783 445 OFFCURVE",
"783 457 CURVE SMOOTH",
"783 496 OFFCURVE",
"793 518 OFFCURVE",
"824 518 CURVE SMOOTH",
"850 518 OFFCURVE",
"859 496 OFFCURVE",
"859 456 CURVE SMOOTH",
"859 361 OFFCURVE",
"835 258 OFFCURVE",
"835 196 CURVE SMOOTH",
"835 125 OFFCURVE",
"853 70 OFFCURVE",
"912 0 CURVE"
);
}
);
width = 1020;
},
{
layerId = "CC11FE7D-5FF0-4B40-9597-DFC61EB94F41";
paths = (
{
closed = 1;
nodes = (
"299 3 OFFCURVE",
"321 97 OFFCURVE",
"325 131 CURVE",
"330 97 OFFCURVE",
"351 3 OFFCURVE",
"460 3 CURVE SMOOTH",
"563 3 OFFCURVE",
"613 99 OFFCURVE",
"613 221 CURVE SMOOTH",
"613 296 OFFCURVE",
"596 396 OFFCURVE",
"536 439 CURVE SMOOTH",
"517 453 OFFCURVE",
"494 461 OFFCURVE",
"465 461 CURVE SMOOTH",
"186 461 LINE SMOOTH",
"157 461 OFFCURVE",
"134 453 OFFCURVE",
"115 439 CURVE SMOOTH",
"55 396 OFFCURVE",
"38 296 OFFCURVE",
"38 221 CURVE SMOOTH",
"38 99 OFFCURVE",
"88 3 OFFCURVE",
"191 3 CURVE SMOOTH"
);
},
{
closed = 1;
nodes = (
"116 46 OFFCURVE",
"80 122 OFFCURVE",
"80 221 CURVE SMOOTH",
"80 287 OFFCURVE",
"92 420 OFFCURVE",
"188 420 CURVE SMOOTH",
"463 420 LINE SMOOTH",
"559 420 OFFCURVE",
"571 287 OFFCURVE",
"571 221 CURVE SMOOTH",
"571 122 OFFCURVE",
"535 46 OFFCURVE",
"460 46 CURVE SMOOTH",
"356 46 OFFCURVE",
"348 169 OFFCURVE",
"345 255 CURVE",
"306 255 LINE",
"302 169 OFFCURVE",
"295 46 OFFCURVE",
"191 46 CURVE SMOOTH"
);
},
{
closed = 1;
nodes = (
"159 435 LINE",
"129 457 OFFCURVE",
"109 498 OFFCURVE",
"109 539 CURVE SMOOTH",
"109 603 OFFCURVE",
"157 634 OFFCURVE",
"203 634 CURVE SMOOTH",
"258 634 OFFCURVE",
"306 597 OFFCURVE",
"306 517 CURVE SMOOTH",
"306 497 OFFCURVE",
"306 477 OFFCURVE",
"306 457 CURVE",
"325 420 LINE",
"337 453 OFFCURVE",
"345 480 OFFCURVE",
"345 517 CURVE SMOOTH",
"345 531 OFFCURVE",
"344 543 OFFCURVE",
"341 555 CURVE SMOOTH",
"327 636 OFFCURVE",
"267 673 OFFCURVE",
"203 673 CURVE SMOOTH",
"139 673 OFFCURVE",
"71 629 OFFCURVE",
"71 539 CURVE SMOOTH",
"71 489 OFFCURVE",
"94 439 OFFCURVE",
"130 411 CURVE"
);
},
{
closed = 1;
nodes = (
"808 7 OFFCURVE",
"838 30 OFFCURVE",
"864 30 CURVE SMOOTH",
"877 30 OFFCURVE",
"889 24 OFFCURVE",
"901 7 CURVE",
"876 63 LINE",
"871 66 OFFCURVE",
"865 67 OFFCURVE",
"858 67 CURVE SMOOTH",
"831 67 OFFCURVE",
"793 50 OFFCURVE",
"772 50 CURVE SMOOTH",
"721 50 OFFCURVE",
"700 92 OFFCURVE",
"700 164 CURVE SMOOTH",
"700 226 OFFCURVE",
"728 283 OFFCURVE",
"785 283 CURVE SMOOTH",
"806 283 OFFCURVE",
"835 275 OFFCURVE",
"861 244 CURVE",
"869 285 LINE",
"851 309 OFFCURVE",
"816 323 OFFCURVE",
"777 323 CURVE SMOOTH",
"704 323 OFFCURVE",
"658 252 OFFCURVE",
"658 164 CURVE SMOOTH",
"658 106 OFFCURVE",
"678 7 OFFCURVE",
"764 7 CURVE SMOOTH"
);
},
{
closed = 1;
nodes = (
"557 439 OFFCURVE",
"580 489 OFFCURVE",
"580 539 CURVE SMOOTH",
"580 629 OFFCURVE",
"512 673 OFFCURVE",
"448 673 CURVE SMOOTH",
"384 673 OFFCURVE",
"324 636 OFFCURVE",
"309 555 CURVE SMOOTH",
"307 543 OFFCURVE",
"306 531 OFFCURVE",
"306 517 CURVE SMOOTH",
"306 480 OFFCURVE",
"314 453 OFFCURVE",
"325 420 CURVE",
"345 457 LINE",
"345 477 OFFCURVE",
"345 497 OFFCURVE",
"345 517 CURVE SMOOTH",
"345 597 OFFCURVE",
"393 634 OFFCURVE",
"448 634 CURVE SMOOTH",
"494 634 OFFCURVE",
"542 603 OFFCURVE",
"542 539 CURVE SMOOTH",
"542 498 OFFCURVE",
"522 457 OFFCURVE",
"491 435 CURVE",
"521 411 LINE"
);
},
{
closed = 1;
nodes = (
"935 30 LINE",
"908 71 OFFCURVE",
"899 114 OFFCURVE",
"899 165 CURVE SMOOTH",
"899 239 OFFCURVE",
"917 330 OFFCURVE",
"917 457 CURVE SMOOTH",
"917 575 OFFCURVE",
"871 626 OFFCURVE",
"792 626 CURVE SMOOTH",
"693 626 OFFCURVE",
"664 552 OFFCURVE",
"664 464 CURVE SMOOTH",
"664 449 OFFCURVE",
"665 438 OFFCURVE",
"667 422 CURVE",
"709 422 LINE",
"708 435 OFFCURVE",
"707 452 OFFCURVE",
"707 464 CURVE SMOOTH",
"707 529 OFFCURVE",
"726 584 OFFCURVE",
"792 584 CURVE SMOOTH",
"845 584 OFFCURVE",
"875 546 OFFCURVE",
"875 457 CURVE SMOOTH",
"875 332 OFFCURVE",
"854 241 OFFCURVE",
"854 163 CURVE SMOOTH",
"854 107 OFFCURVE",
"865 58 OFFCURVE",
"901 7 CURVE"
);
}
);
width = 973;
}
);
unicode = 0D8D;
},
{
glyphname = sinRrVocalic;
lastChange = "2021-06-09 01:21:28 +0000";
layers = (
{
components = (
{
name = sinMatraRr;
transform = "{1, 0, 0, 1, 671, 0}";
}
);
layerId = "6114C541-D024-4A3E-9713-6FAF49EAB318";
paths = (
{
closed = 1;
nodes = (
"274 0 OFFCURVE",
"320 36 OFFCURVE",
"338 90 CURVE",
"356 36 OFFCURVE",
"402 0 OFFCURVE",
"461 0 CURVE SMOOTH",
"588 0 OFFCURVE",
"640 108 OFFCURVE",
"640 236 CURVE SMOOTH",
"640 328 OFFCURVE",
"617 391 OFFCURVE",
"569 432 CURVE SMOOTH",
"543 455 OFFCURVE",
"508 473 OFFCURVE",
"469 473 CURVE SMOOTH",
"207 473 LINE SMOOTH",
"168 473 OFFCURVE",
"133 455 OFFCURVE",
"107 432 CURVE SMOOTH",
"59 391 OFFCURVE",
"36 328 OFFCURVE",
"36 236 CURVE SMOOTH",
"36 108 OFFCURVE",
"88 0 OFFCURVE",
"215 0 CURVE SMOOTH"
);
},
{
closed = 1;
nodes = (
"175 131 OFFCURVE",
"158 179 OFFCURVE",
"158 236 CURVE SMOOTH",
"158 295 OFFCURVE",
"181 362 OFFCURVE",
"228 362 CURVE SMOOTH",
"450 362 LINE SMOOTH",
"495 362 OFFCURVE",
"518 295 OFFCURVE",
"518 236 CURVE SMOOTH",
"518 179 OFFCURVE",
"502 131 OFFCURVE",
"461 131 CURVE SMOOTH",
"409 131 OFFCURVE",
"390 201 OFFCURVE",
"390 285 CURVE",
"286 285 LINE",
"286 201 OFFCURVE",
"269 131 OFFCURVE",
"215 131 CURVE SMOOTH"
);
},
{
closed = 1;
nodes = (
"189 467 LINE",
"180 478 OFFCURVE",
"172 501 OFFCURVE",
"172 514 CURVE SMOOTH",
"172 542 OFFCURVE",
"188 566 OFFCURVE",
"229 566 CURVE SMOOTH",
"254 566 OFFCURVE",
"287 549 OFFCURVE",
"287 494 CURVE SMOOTH",
"287 488 OFFCURVE",
"287 480 OFFCURVE",
"286 473 CURVE",
"338 362 LINE",
"353 409 OFFCURVE",
"387 485 OFFCURVE",
"387 531 CURVE SMOOTH",
"387 538 OFFCURVE",
"386 544 OFFCURVE",
"385 550 CURVE",
"362 633 OFFCURVE",
"295 676 OFFCURVE",
"223 676 CURVE SMOOTH",
"125 676 OFFCURVE",
"66 605 OFFCURVE",
"66 519 CURVE SMOOTH",
"66 487 OFFCURVE",
"79 450 OFFCURVE",
"101 420 CURVE"
);
},
{
closed = 1;
nodes = (
"597 450 OFFCURVE",
"610 487 OFFCURVE",
"610 519 CURVE SMOOTH",
"610 605 OFFCURVE",
"551 676 OFFCURVE",
"453 676 CURVE SMOOTH",
"381 676 OFFCURVE",
"314 633 OFFCURVE",
"291 550 CURVE",
"290 544 OFFCURVE",
"289 538 OFFCURVE",
"289 531 CURVE SMOOTH",
"289 485 OFFCURVE",
"323 409 OFFCURVE",
"338 362 CURVE",
"391 473 LINE",
"389 480 OFFCURVE",
"389 488 OFFCURVE",
"389 494 CURVE SMOOTH",
"389 547 OFFCURVE",
"422 564 OFFCURVE",
"448 564 CURVE SMOOTH",
"488 564 OFFCURVE",
"504 541 OFFCURVE",
"504 513 CURVE SMOOTH",
"504 500 OFFCURVE",
"496 478 OFFCURVE",
"487 467 CURVE",
"575 420 LINE"
);
}
);
width = 1355;
},
{
components = (
{
name = sinMatraRr;
transform = "{1, 0, 0, 1, 659, 0}";
}
);
layerId = "CC11FE7D-5FF0-4B40-9597-DFC61EB94F41";
paths = (
{
closed = 1;
nodes = (
"299 3 OFFCURVE",
"321 97 OFFCURVE",
"325 131 CURVE",
"330 97 OFFCURVE",
"352 3 OFFCURVE",
"460 3 CURVE SMOOTH",
"563 3 OFFCURVE",
"613 99 OFFCURVE",
"613 221 CURVE SMOOTH",
"613 296 OFFCURVE",
"595 396 OFFCURVE",
"536 439 CURVE SMOOTH",
"517 453 OFFCURVE",
"494 461 OFFCURVE",
"465 461 CURVE SMOOTH",
"185 461 LINE SMOOTH",
"157 461 OFFCURVE",
"134 453 OFFCURVE",
"115 439 CURVE SMOOTH",
"56 396 OFFCURVE",
"38 296 OFFCURVE",
"38 221 CURVE SMOOTH",
"38 99 OFFCURVE",
"88 3 OFFCURVE",
"191 3 CURVE SMOOTH"
);
},
{
closed = 1;
nodes = (
"116 46 OFFCURVE",
"80 122 OFFCURVE",
"80 221 CURVE SMOOTH",
"80 287 OFFCURVE",
"92 420 OFFCURVE",
"188 420 CURVE SMOOTH",
"463 420 LINE SMOOTH",
"559 420 OFFCURVE",
"571 287 OFFCURVE",
"571 221 CURVE SMOOTH",
"571 122 OFFCURVE",
"535 46 OFFCURVE",
"460 46 CURVE SMOOTH",
"356 46 OFFCURVE",
"348 170 OFFCURVE",
"345 256 CURVE",
"306 256 LINE",
"303 170 OFFCURVE",
"295 46 OFFCURVE",
"191 46 CURVE SMOOTH"
);
},
{
closed = 1;
nodes = (
"159 435 LINE",
"129 457 OFFCURVE",
"109 498 OFFCURVE",
"109 539 CURVE SMOOTH",
"109 603 OFFCURVE",
"157 634 OFFCURVE",
"204 634 CURVE SMOOTH",
"258 634 OFFCURVE",
"306 597 OFFCURVE",
"306 517 CURVE SMOOTH",
"306 497 OFFCURVE",
"306 477 OFFCURVE",
"306 457 CURVE",
"325 420 LINE",
"337 453 OFFCURVE",
"345 479 OFFCURVE",
"345 517 CURVE SMOOTH",
"345 530 OFFCURVE",
"344 544 OFFCURVE",
"341 555 CURVE SMOOTH",
"327 635 OFFCURVE",
"267 673 OFFCURVE",
"204 673 CURVE SMOOTH",
"139 673 OFFCURVE",
"71 629 OFFCURVE",
"71 539 CURVE SMOOTH",
"71 489 OFFCURVE",
"94 439 OFFCURVE",
"130 411 CURVE"
);
},
{
closed = 1;
nodes = (
"556 439 OFFCURVE",
"580 489 OFFCURVE",
"580 539 CURVE SMOOTH",
"580 629 OFFCURVE",
"512 673 OFFCURVE",
"447 673 CURVE SMOOTH",
"384 673 OFFCURVE",
"324 635 OFFCURVE",
"310 555 CURVE SMOOTH",
"307 544 OFFCURVE",
"306 530 OFFCURVE",
"306 517 CURVE SMOOTH",
"306 479 OFFCURVE",
"314 453 OFFCURVE",
"325 420 CURVE",
"345 457 LINE",
"345 477 OFFCURVE",
"345 497 OFFCURVE",
"345 517 CURVE SMOOTH",
"345 597 OFFCURVE",
"393 634 OFFCURVE",
"447 634 CURVE SMOOTH",
"494 634 OFFCURVE",
"542 603 OFFCURVE",
"542 539 CURVE SMOOTH",
"542 498 OFFCURVE",
"522 457 OFFCURVE",
"492 435 CURVE",
"521 411 LINE"
);
}
);
width = 1281;
}
);
unicode = 0D8E;
},
{
glyphname = sinLVocalic;
lastChange = "2021-06-09 01:21:28 +0000";
layers = (
{
layerId = "6114C541-D024-4A3E-9713-6FAF49EAB318";
paths = (
{
closed = 1;
nodes = (
"801 148 CURVE SMOOTH",
"801 122 OFFCURVE",
"821 102 OFFCURVE",
"846 102 CURVE SMOOTH",
"871 102 OFFCURVE",
"891 122 OFFCURVE",
"891 148 CURVE SMOOTH",
"891 173 OFFCURVE",
"871 193 OFFCURVE",
"846 193 CURVE SMOOTH",
"821 193 OFFCURVE",
"801 173 OFFCURVE"
);
},
{
closed = 1;
nodes = (
"699 148 CURVE SMOOTH",
"699 230 OFFCURVE",
"765 296 OFFCURVE",
"837 296 CURVE SMOOTH",
"933 296 OFFCURVE",
"968 200 OFFCURVE",
"968 148 CURVE SMOOTH",
"968 66 OFFCURVE",
"914 0 OFFCURVE",
"847 0 CURVE SMOOTH",
"765 0 OFFCURVE",
"699 66 OFFCURVE"
);
},
{
closed = 1;
nodes = (
"912 319 CURVE SMOOTH",
"912 483 OFFCURVE",
"874 546 OFFCURVE",
"832 546 CURVE SMOOTH",
"789 546 OFFCURVE",
"773 504 OFFCURVE",
"768 485 CURVE",
"706 554 LINE",
"716 600 OFFCURVE",
"759 665 OFFCURVE",
"838 665 CURVE SMOOTH",
"942 665 OFFCURVE",
"1027 576 OFFCURVE",
"1027 323 CURVE SMOOTH",
"1027 53 OFFCURVE",
"925 0 OFFCURVE",
"847 0 CURVE SMOOTH",
"847 93 LINE SMOOTH",
"880 93 OFFCURVE",
"905 110 OFFCURVE",
"905 165 CURVE",
"910 199 OFFCURVE",
"912 248 OFFCURVE"
);
},
{
closed = 1;
nodes = (
"477 532 CURVE SMOOTH",
"477 538 OFFCURVE",
"478 544 OFFCURVE",
"479 550 CURVE SMOOTH",
"501 633 OFFCURVE",
"569 676 OFFCURVE",
"640 676 CURVE SMOOTH",
"739 676 OFFCURVE",
"798 606 OFFCURVE",
"798 519 CURVE SMOOTH",
"798 487 OFFCURVE",
"785 449 OFFCURVE",
"762 420 CURVE",
"675 467 LINE",
"684 477 OFFCURVE",
"691 500 OFFCURVE",
"691 513 CURVE SMOOTH",
"691 541 OFFCURVE",
"675 564 OFFCURVE",
"635 564 CURVE SMOOTH",
"609 564 OFFCURVE",
"577 547 OFFCURVE",
"577 494 CURVE SMOOTH",
"577 488 OFFCURVE",
"577 481 OFFCURVE",
"578 473 CURVE SMOOTH",
"525 362 LINE",
"511 409 OFFCURVE",
"477 484 OFFCURVE"
);
},
{
closed = 1;
nodes = (
"346 255 CURVE SMOOTH",
"346 164 OFFCURVE",
"436 119 OFFCURVE",
"525 119 CURVE SMOOTH",
"615 119 OFFCURVE",
"705 164 OFFCURVE",
"705 255 CURVE SMOOTH",
"705 314 OFFCURVE",
"674 362 OFFCURVE",
"611 362 CURVE SMOOTH",
"440 362 LINE SMOOTH",
"377 362 OFFCURVE",
"346 314 OFFCURVE"
);
},
{
closed = 1;
nodes = (
"224 255 CURVE SMOOTH",
"224 375 OFFCURVE",
"294 473 OFFCURVE",
"433 473 CURVE SMOOTH",
"618 473 LINE SMOOTH",
"757 473 OFFCURVE",
"827 375 OFFCURVE",
"827 255 CURVE SMOOTH",
"827 231 OFFCURVE",
"824 208 OFFCURVE",
"819 187 CURVE",
"803 176 OFFCURVE",
"797 160 OFFCURVE",
"797 144 CURVE SMOOTH",
"797 140 OFFCURVE",
"798 136 OFFCURVE",
"798 132 CURVE",
"748 35 OFFCURVE",
"637 -14 OFFCURVE",
"525 -14 CURVE SMOOTH",
"414 -14 OFFCURVE",
"303 35 OFFCURVE",
"253 132 CURVE",
"253 136 OFFCURVE",
"254 140 OFFCURVE",
"254 144 CURVE SMOOTH",
"254 160 OFFCURVE",
"248 176 OFFCURVE",
"232 187 CURVE",
"227 208 OFFCURVE",
"224 231 OFFCURVE"
);
},
{
closed = 1;
nodes = (
"253 519 CURVE SMOOTH",
"253 606 OFFCURVE",
"312 676 OFFCURVE",
"411 676 CURVE SMOOTH",
"482 676 OFFCURVE",
"550 633 OFFCURVE",
"572 550 CURVE SMOOTH",
"573 544 OFFCURVE",
"574 538 OFFCURVE",
"574 532 CURVE SMOOTH",
"574 484 OFFCURVE",
"540 409 OFFCURVE",
"525 362 CURVE",
"473 473 LINE SMOOTH",
"474 481 OFFCURVE",
"474 488 OFFCURVE",
"474 494 CURVE SMOOTH",
"474 547 OFFCURVE",
"442 564 OFFCURVE",
"416 564 CURVE SMOOTH",
"376 564 OFFCURVE",
"360 541 OFFCURVE",
"360 513 CURVE SMOOTH",
"360 500 OFFCURVE",
"367 477 OFFCURVE",
"376 467 CURVE",
"289 420 LINE",
"266 449 OFFCURVE",
"253 487 OFFCURVE"
);
},
{
closed = 1;
nodes = (
"24 323 CURVE SMOOTH",
"24 576 OFFCURVE",
"109 665 OFFCURVE",
"213 665 CURVE SMOOTH",
"292 665 OFFCURVE",
"335 600 OFFCURVE",
"345 554 CURVE",
"283 485 LINE",
"278 504 OFFCURVE",
"262 546 OFFCURVE",
"219 546 CURVE SMOOTH",
"177 546 OFFCURVE",
"139 483 OFFCURVE",
"139 319 CURVE SMOOTH",
"139 248 OFFCURVE",
"141 199 OFFCURVE",
"146 165 CURVE",
"146 110 OFFCURVE",
"171 93 OFFCURVE",
"204 93 CURVE SMOOTH",
"204 0 LINE SMOOTH",
"126 0 OFFCURVE",
"24 53 OFFCURVE"
);
},
{
closed = 1;
nodes = (
"160 148 CURVE SMOOTH",
"160 122 OFFCURVE",
"180 102 OFFCURVE",
"205 102 CURVE SMOOTH",
"230 102 OFFCURVE",
"250 122 OFFCURVE",
"250 148 CURVE SMOOTH",
"250 173 OFFCURVE",
"230 193 OFFCURVE",
"205 193 CURVE SMOOTH",
"180 193 OFFCURVE",
"160 173 OFFCURVE"
);
},
{
closed = 1;
nodes = (
"83 148 CURVE SMOOTH",
"83 200 OFFCURVE",
"118 296 OFFCURVE",
"214 296 CURVE SMOOTH",
"286 296 OFFCURVE",
"352 230 OFFCURVE",
"352 148 CURVE SMOOTH",
"352 66 OFFCURVE",
"286 0 OFFCURVE",
"204 0 CURVE SMOOTH",
"137 0 OFFCURVE",
"83 66 OFFCURVE"
);
}
);
width = 1070;
},
{
layerId = "CC11FE7D-5FF0-4B40-9597-DFC61EB94F41";
paths = (
{
closed = 1;
nodes = (
"749 108 CURVE SMOOTH",
"749 73 OFFCURVE",
"777 44 OFFCURVE",
"813 44 CURVE SMOOTH",
"849 44 OFFCURVE",
"877 73 OFFCURVE",
"877 108 CURVE SMOOTH",
"877 143 OFFCURVE",
"849 173 OFFCURVE",
"813 173 CURVE SMOOTH",
"777 173 OFFCURVE",
"749 143 OFFCURVE"
);
},
{
closed = 1;
nodes = (
"709 108 CURVE SMOOTH",
"709 166 OFFCURVE",
"756 211 OFFCURVE",
"813 211 CURVE SMOOTH",
"871 211 OFFCURVE",
"917 166 OFFCURVE",
"917 108 CURVE SMOOTH",
"917 50 OFFCURVE",
"871 3 OFFCURVE",
"813 3 CURVE SMOOTH",
"756 3 OFFCURVE",
"709 50 OFFCURVE"
);
},
{
closed = 1;
nodes = (
"900 324 CURVE SMOOTH",
"900 509 OFFCURVE",
"865 617 OFFCURVE",
"809 617 CURVE SMOOTH",
"774 617 OFFCURVE",
"746 594 OFFCURVE",
"744 540 CURVE",
"706 540 LINE",
"706 608 OFFCURVE",
"740 660 OFFCURVE",
"809 660 CURVE SMOOTH",
"874 660 OFFCURVE",
"942 589 OFFCURVE",
"942 324 CURVE SMOOTH",
"942 98 OFFCURVE",
"915 3 OFFCURVE",
"813 3 CURVE",
"813 44 LINE",
"857 44 OFFCURVE",
"886 68 OFFCURVE",
"887 140 CURVE",
"895 186 OFFCURVE",
"900 245 OFFCURVE"
);
},
{
closed = 1;
nodes = (
"471 517 CURVE SMOOTH",
"471 531 OFFCURVE",
"472 543 OFFCURVE",
"474 555 CURVE SMOOTH",
"488 636 OFFCURVE",
"548 673 OFFCURVE",
"612 673 CURVE SMOOTH",
"677 673 OFFCURVE",
"744 629 OFFCURVE",
"744 539 CURVE SMOOTH",
"744 489 OFFCURVE",
"721 439 OFFCURVE",
"685 411 CURVE",
"656 435 LINE",
"687 457 OFFCURVE",
"706 498 OFFCURVE",
"706 539 CURVE SMOOTH",
"706 603 OFFCURVE",
"658 634 OFFCURVE",
"612 634 CURVE SMOOTH",
"557 634 OFFCURVE",
"509 597 OFFCURVE",
"509 517 CURVE SMOOTH",
"509 495 OFFCURVE",
"509 473 OFFCURVE",
"509 457 CURVE",
"490 420 LINE",
"479 453 OFFCURVE",
"471 480 OFFCURVE"
);
},
{
closed = 1;
nodes = (
"241 255 CURVE SMOOTH",
"241 122 OFFCURVE",
"339 34 OFFCURVE",
"490 34 CURVE SMOOTH",
"641 34 OFFCURVE",
"739 122 OFFCURVE",
"739 255 CURVE SMOOTH",
"739 341 OFFCURVE",
"695 415 OFFCURVE",
"599 415 CURVE SMOOTH",
"380 415 LINE SMOOTH",
"285 415 OFFCURVE",
"241 341 OFFCURVE"
);
},
{
closed = 1;
nodes = (
"199 255 CURVE SMOOTH",
"199 364 OFFCURVE",
"259 457 OFFCURVE",
"380 457 CURVE SMOOTH",
"599 457 LINE SMOOTH",
"720 457 OFFCURVE",
"781 364 OFFCURVE",
"781 255 CURVE SMOOTH",
"781 216 OFFCURVE",
"774 180 OFFCURVE",
"761 148 CURVE",
"756 143 OFFCURVE",
"753 138 OFFCURVE",
"750 132 CURVE SMOOTH",
"749 129 OFFCURVE",
"748 126 OFFCURVE",
"748 122 CURVE",
"702 41 OFFCURVE",
"611 -8 OFFCURVE",
"490 -8 CURVE SMOOTH",
"369 -8 OFFCURVE",
"278 41 OFFCURVE",
"232 122 CURVE",
"231 126 OFFCURVE",
"230 129 OFFCURVE",
"229 132 CURVE SMOOTH",
"227 138 OFFCURVE",
"224 143 OFFCURVE",
"219 148 CURVE",
"206 180 OFFCURVE",
"199 216 OFFCURVE"
);
},
{
closed = 1;
nodes = (
"235 539 CURVE SMOOTH",
"235 629 OFFCURVE",
"303 673 OFFCURVE",
"368 673 CURVE SMOOTH",
"432 673 OFFCURVE",
"491 636 OFFCURVE",
"506 555 CURVE SMOOTH",
"508 543 OFFCURVE",
"509 531 OFFCURVE",
"509 517 CURVE SMOOTH",
"509 480 OFFCURVE",
"501 453 OFFCURVE",
"490 420 CURVE",
"471 457 LINE",
"471 473 OFFCURVE",
"471 495 OFFCURVE",
"471 517 CURVE SMOOTH",
"471 597 OFFCURVE",
"423 634 OFFCURVE",
"368 634 CURVE SMOOTH",
"322 634 OFFCURVE",
"273 603 OFFCURVE",
"273 539 CURVE SMOOTH",
"273 498 OFFCURVE",
"293 457 OFFCURVE",
"324 435 CURVE",
"294 411 LINE",
"258 439 OFFCURVE",
"235 489 OFFCURVE"
);
},
{
closed = 1;
nodes = (
"38 324 CURVE SMOOTH",
"38 589 OFFCURVE",
"106 660 OFFCURVE",
"171 660 CURVE SMOOTH",
"240 660 OFFCURVE",
"273 608 OFFCURVE",
"273 540 CURVE",
"235 540 LINE",
"234 594 OFFCURVE",
"206 617 OFFCURVE",
"171 617 CURVE SMOOTH",
"115 617 OFFCURVE",
"80 509 OFFCURVE",
"80 324 CURVE SMOOTH",
"80 245 OFFCURVE",
"84 186 OFFCURVE",
"93 140 CURVE",
"94 68 OFFCURVE",
"122 44 OFFCURVE",
"167 44 CURVE",
"166 3 LINE",
"64 3 OFFCURVE",
"38 98 OFFCURVE"
);
},
{
closed = 1;
nodes = (
"103 108 CURVE SMOOTH",
"103 73 OFFCURVE",
"131 44 OFFCURVE",
"167 44 CURVE SMOOTH",
"202 44 OFFCURVE",
"230 73 OFFCURVE",
"230 108 CURVE SMOOTH",
"230 143 OFFCURVE",
"202 173 OFFCURVE",
"167 173 CURVE SMOOTH",
"131 173 OFFCURVE",
"103 143 OFFCURVE"
);
},
{
closed = 1;
nodes = (
"63 108 CURVE SMOOTH",
"63 166 OFFCURVE",
"109 211 OFFCURVE",
"166 211 CURVE SMOOTH",
"224 211 OFFCURVE",
"271 166 OFFCURVE",
"271 108 CURVE SMOOTH",
"271 50 OFFCURVE",
"224 3 OFFCURVE",
"166 3 CURVE SMOOTH",
"109 3 OFFCURVE",
"63 50 OFFCURVE"
);
}
);
width = 979;
}
);
unicode = 0D8F;
},
{
glyphname = sinE;
lastChange = "2021-06-09 01:21:28 +0000";
layers = (
{
layerId = "6114C541-D024-4A3E-9713-6FAF49EAB318";
paths = (
{
closed = 1;
nodes = (
"526 0 OFFCURVE",
"615 182 OFFCURVE",
"615 386 CURVE SMOOTH",
"615 604 OFFCURVE",
"513 848 OFFCURVE",
"369 923 CURVE",
"306 848 LINE",
"340 821 OFFCURVE",
"369 782 OFFCURVE",
"390 736 CURVE",
"422 713 OFFCURVE",
"447 663 OFFCURVE",
"454 616 CURVE",
"470 542 LINE",
"479 504 OFFCURVE",
"487 449 OFFCURVE",
"487 391 CURVE SMOOTH",
"487 267 OFFCURVE",
"450 131 OFFCURVE",
"302 131 CURVE SMOOTH",
"193 131 OFFCURVE",
"156 190 OFFCURVE",
"156 244 CURVE SMOOTH",
"156 298 OFFCURVE",
"179 348 OFFCURVE",
"243 348 CURVE SMOOTH",
"365 348 LINE",
"326 444 LINE",
"25 447 LINE",
"25 348 LINE",
"67 348 LINE",
"46 321 OFFCURVE",
"32 277 OFFCURVE",
"32 228 CURVE SMOOTH",
"32 128 OFFCURVE",
"95 0 OFFCURVE",
"302 0 CURVE SMOOTH"
);
},
{
closed = 1;
nodes = (
"370 370 OFFCURVE",
"373 399 OFFCURVE",
"373 416 CURVE SMOOTH",
"373 540 OFFCURVE",
"292 605 OFFCURVE",
"204 605 CURVE SMOOTH",
"120 605 OFFCURVE",
"64 548 OFFCURVE",
"64 466 CURVE SMOOTH",
"64 433 OFFCURVE",
"76 399 OFFCURVE",
"99 363 CURVE",
"190 405 LINE",
"180 421 OFFCURVE",
"166 440 OFFCURVE",
"166 461 CURVE SMOOTH",
"166 485 OFFCURVE",
"176 505 OFFCURVE",
"204 505 CURVE SMOOTH",
"245 505 OFFCURVE",
"264 474 OFFCURVE",
"264 440 CURVE SMOOTH",
"264 434 OFFCURVE",
"263 429 OFFCURVE",
"262 423 CURVE",
"365 348 LINE"
);
},
{
closed = 1;
nodes = (
"541 596 LINE",
"456 622 LINE",
"448 622 OFFCURVE",
"442 624 OFFCURVE",
"435 626 CURVE SMOOTH",
"390 635 OFFCURVE",
"369 666 OFFCURVE",
"369 688 CURVE SMOOTH",
"369 707 OFFCURVE",
"377 728 OFFCURVE",
"391 736 CURVE",
"413 859 LINE",
"306 848 LINE",
"319 837 OFFCURVE",
"323 827 OFFCURVE",
"323 818 CURVE SMOOTH",
"323 791 OFFCURVE",
"264 766 OFFCURVE",
"264 695 CURVE SMOOTH",
"264 615 OFFCURVE",
"339 553 OFFCURVE",
"415 532 CURVE SMOOTH",
"436 527 OFFCURVE",
"456 524 OFFCURVE",
"476 523 CURVE"
);
}
);
width = 618;
},
{
layerId = "CC11FE7D-5FF0-4B40-9597-DFC61EB94F41";
paths = (
{
closed = 1;
nodes = (
"486 3 OFFCURVE",
"586 144 OFFCURVE",
"586 389 CURVE SMOOTH",
"586 600 OFFCURVE",
"504 806 OFFCURVE",
"367 918 CURVE",
"341 888 LINE",
"364 870 OFFCURVE",
"385 849 OFFCURVE",
"404 826 CURVE SMOOTH",
"455 765 OFFCURVE",
"494 685 OFFCURVE",
"518 595 CURVE SMOOTH",
"525 568 LINE SMOOTH",
"537 512 OFFCURVE",
"544 451 OFFCURVE",
"544 389 CURVE SMOOTH",
"544 171 OFFCURVE",
"459 46 OFFCURVE",
"302 46 CURVE SMOOTH",
"134 46 OFFCURVE",
"95 162 OFFCURVE",
"95 237 CURVE SMOOTH",
"95 338 OFFCURVE",
"150 403 OFFCURVE",
"209 403 CURVE SMOOTH",
"356 403 LINE",
"348 443 LINE",
"38 443 LINE",
"38 403 LINE",
"121 403 LINE",
"111 397 OFFCURVE",
"54 353 OFFCURVE",
"54 236 CURVE SMOOTH",
"54 145 OFFCURVE",
"101 3 OFFCURVE",
"302 3 CURVE SMOOTH"
);
},
{
closed = 1;
nodes = (
"358 415 OFFCURVE",
"359 427 OFFCURVE",
"359 440 CURVE SMOOTH",
"359 547 OFFCURVE",
"291 596 OFFCURVE",
"218 596 CURVE SMOOTH",
"151 596 OFFCURVE",
"92 555 OFFCURVE",
"92 478 CURVE SMOOTH",
"92 457 OFFCURVE",
"98 437 OFFCURVE",
"107 421 CURVE",
"140 437 LINE",
"134 449 OFFCURVE",
"131 462 OFFCURVE",
"131 478 CURVE SMOOTH",
"131 531 OFFCURVE",
"170 558 OFFCURVE",
"218 558 CURVE SMOOTH",
"273 558 OFFCURVE",
"321 521 OFFCURVE",
"321 440 CURVE SMOOTH",
"321 437 OFFCURVE",
"321 435 OFFCURVE",
"321 431 CURVE",
"356 403 LINE"
);
},
{
closed = 1;
nodes = (
"539 594 LINE",
"519 601 LINE",
"506 599 OFFCURVE",
"494 597 OFFCURVE",
"482 597 CURVE SMOOTH",
"410 597 OFFCURVE",
"363 639 OFFCURVE",
"363 686 CURVE SMOOTH",
"363 752 OFFCURVE",
"407 789 OFFCURVE",
"407 827 CURVE",
"414 866 LINE",
"341 888 LINE",
"363 873 OFFCURVE",
"370 858 OFFCURVE",
"370 843 CURVE SMOOTH",
"370 804 OFFCURVE",
"322 759 OFFCURVE",
"322 686 CURVE SMOOTH",
"322 619 OFFCURVE",
"385 559 OFFCURVE",
"481 559 CURVE SMOOTH",
"496 559 OFFCURVE",
"512 560 OFFCURVE",
"528 563 CURVE"
);
}
);
width = 609;
}
);
unicode = 0D91;
},
{
glyphname = sinEe;
lastChange = "2021-06-09 01:21:28 +0000";
layers = (
{
components = (
{
name = sinE;
}
);
layerId = "6114C541-D024-4A3E-9713-6FAF49EAB318";
paths = (
{
closed = 1;
nodes = (
"599 522 LINE",
"599 778 LINE",
"595 801 LINE",
"595 906 LINE",
"599 924 LINE",
"599 986 LINE",
"496 986 LINE SMOOTH",
"496 986 OFFCURVE",
"506 933 OFFCURVE",
"506 802 CURVE SMOOTH",
"506 754 OFFCURVE",
"506 708 OFFCURVE",
"506 660 CURVE",
"504 522 LINE"
);
},
{
closed = 1;
nodes = (
"678 716 OFFCURVE",
"735 767 OFFCURVE",
"735 852 CURVE SMOOTH",
"735 981 OFFCURVE",
"640 986 OFFCURVE",
"599 986 CURVE",
"564 938 LINE",
"588 896 LINE",
"591 897 OFFCURVE",
"594 897 OFFCURVE",
"597 897 CURVE SMOOTH",
"610 897 OFFCURVE",
"641 896 OFFCURVE",
"641 852 CURVE SMOOTH",
"641 828 OFFCURVE",
"632 808 OFFCURVE",
"605 808 CURVE SMOOTH",
"600 808 OFFCURVE",
"594 809 OFFCURVE",
"587 810 CURVE",
"569 723 LINE",
"584 718 OFFCURVE",
"599 716 OFFCURVE",
"613 716 CURVE SMOOTH"
);
}
);
width = 618;
},
{
components = (
{
name = sinE;
}
);
layerId = "CC11FE7D-5FF0-4B40-9597-DFC61EB94F41";
paths = (
{
closed = 1;
nodes = (
"561 571 LINE",
"561 731 LINE",
"556 753 LINE",
"556 955 LINE",
"561 973 LINE",
"561 982 LINE",
"521 982 LINE",
"521 918 OFFCURVE",
"521 854 OFFCURVE",
"521 790 CURVE SMOOTH",
"521 735 OFFCURVE",
"525 685 OFFCURVE",
"526 651 CURVE",
"526 571 LINE"
);
},
{
closed = 1;
nodes = (
"644 719 OFFCURVE",
"698 756 OFFCURVE",
"698 852 CURVE SMOOTH",
"698 981 OFFCURVE",
"602 982 OFFCURVE",
"561 982 CURVE",
"530 965 LINE",
"551 943 LINE",
"554 943 OFFCURVE",
"556 943 OFFCURVE",
"560 943 CURVE SMOOTH",
"597 943 OFFCURVE",
"658 940 OFFCURVE",
"658 852 CURVE SMOOTH",
"658 783 OFFCURVE",
"622 759 OFFCURVE",
"582 759 CURVE SMOOTH",
"561 759 OFFCURVE",
"547 764 OFFCURVE",
"539 765 CURVE",
"531 726 LINE",
"549 721 OFFCURVE",
"566 719 OFFCURVE",
"582 719 CURVE SMOOTH"
);
}
);
width = 609;
}
);
unicode = 0D92;
},
{
glyphname = sinO;
lastChange = "2021-06-09 01:21:28 +0000";
layers = (
{
layerId = "6114C541-D024-4A3E-9713-6FAF49EAB318";
paths = (
{
closed = 1;
nodes = (
"25 288 CURVE SMOOTH",
"25 443 OFFCURVE",
"63 600 OFFCURVE",
"194 600 CURVE SMOOTH",
"267 600 OFFCURVE",
"312 547 OFFCURVE",
"313 498 CURVE",
"220 470 LINE",
"220 482 OFFCURVE",
"208 488 OFFCURVE",
"200 488 CURVE SMOOTH",
"160 488 OFFCURVE",
"146 396 OFFCURVE",
"146 303 CURVE SMOOTH",
"146 231 OFFCURVE",
"152 130 OFFCURVE",
"199 130 CURVE SMOOTH",
"247 130 OFFCURVE",
"264 204 OFFCURVE",
"264 284 CURVE",
"373 284 LINE",
"373 201 OFFCURVE",
"390 131 OFFCURVE",
"439 131 CURVE SMOOTH",
"504 131 OFFCURVE",
"504 273 OFFCURVE",
"504 333 CURVE SMOOTH",
"504 595 OFFCURVE",
"455 728 OFFCURVE",
"298 728 CURVE SMOOTH",
"251 728 OFFCURVE",
"197 704 OFFCURVE",
"177 656 CURVE",
"53 698 LINE",
"94 806 OFFCURVE",
"199 859 OFFCURVE",
"298 859 CURVE SMOOTH",
"545 859 OFFCURVE",
"635 682 OFFCURVE",
"635 333 CURVE SMOOTH",
"635 207 OFFCURVE",
"634 0 OFFCURVE",
"439 0 CURVE SMOOTH",
"376 0 OFFCURVE",
"332 38 OFFCURVE",
"315 90 CURVE",
"297 36 OFFCURVE",
"252 0 OFFCURVE",
"192 0 CURVE SMOOTH",
"64 0 OFFCURVE",
"25 131 OFFCURVE"
);
},
{
closed = 1;
nodes = (
"216 427 CURVE SMOOTH",
"216 440 OFFCURVE",
"220 454 OFFCURVE",
"220 470 CURVE",
"313 498 LINE",
"313 483 OFFCURVE",
"311 469 OFFCURVE",
"311 458 CURVE SMOOTH",
"311 428 OFFCURVE",
"317 417 OFFCURVE",
"332 417 CURVE SMOOTH",
"344 417 OFFCURVE",
"351 428 OFFCURVE",
"351 461 CURVE SMOOTH",
"351 485 OFFCURVE",
"348 508 OFFCURVE",
"328 508 CURVE SMOOTH",
"322 508 OFFCURVE",
"313 506 OFFCURVE",
"308 498 CURVE",
"262 567 LINE",
"275 584 OFFCURVE",
"296 600 OFFCURVE",
"334 600 CURVE SMOOTH",
"406 600 OFFCURVE",
"443 547 OFFCURVE",
"443 460 CURVE SMOOTH",
"443 369 OFFCURVE",
"424 307 OFFCURVE",
"327 307 CURVE SMOOTH",
"244 307 OFFCURVE",
"216 357 OFFCURVE"
);
}
);
width = 657;
},
{
layerId = "CC11FE7D-5FF0-4B40-9597-DFC61EB94F41";
paths = (
{
closed = 1;
nodes = (
"38 286 CURVE SMOOTH",
"38 444 OFFCURVE",
"73 596 OFFCURVE",
"173 596 CURVE SMOOTH",
"247 596 OFFCURVE",
"274 539 OFFCURVE",
"274 485 CURVE",
"234 477 LINE",
"234 535 OFFCURVE",
"207 556 OFFCURVE",
"173 556 CURVE SMOOTH",
"105 556 OFFCURVE",
"80 419 OFFCURVE",
"80 286 CURVE SMOOTH",
"80 191 OFFCURVE",
"84 46 OFFCURVE",
"177 46 CURVE SMOOTH",
"281 46 OFFCURVE",
"288 169 OFFCURVE",
"292 255 CURVE",
"331 255 LINE",
"334 169 OFFCURVE",
"342 46 OFFCURVE",
"446 46 CURVE SMOOTH",
"551 46 OFFCURVE",
"559 187 OFFCURVE",
"559 333 CURVE SMOOTH",
"559 657 OFFCURVE",
"474 810 OFFCURVE",
"300 810 CURVE SMOOTH",
"219 810 OFFCURVE",
"141 758 OFFCURVE",
"115 688 CURVE",
"76 703 LINE",
"108 788 OFFCURVE",
"202 852 OFFCURVE",
"300 852 CURVE SMOOTH",
"503 852 OFFCURVE",
"601 685 OFFCURVE",
"601 333 CURVE SMOOTH",
"601 165 OFFCURVE",
"590 3 OFFCURVE",
"446 3 CURVE SMOOTH",
"337 3 OFFCURVE",
"316 97 OFFCURVE",
"311 131 CURVE",
"307 97 OFFCURVE",
"285 3 OFFCURVE",
"177 3 CURVE SMOOTH",
"47 3 OFFCURVE",
"38 174 OFFCURVE"
);
},
{
closed = 1;
nodes = (
"231 421 CURVE SMOOTH",
"231 439 OFFCURVE",
"234 452 OFFCURVE",
"234 477 CURVE",
"274 485 LINE",
"274 473 OFFCURVE",
"272 440 OFFCURVE",
"272 421 CURVE SMOOTH",
"272 394 OFFCURVE",
"279 361 OFFCURVE",
"321 361 CURVE SMOOTH",
"370 361 OFFCURVE",
"371 435 OFFCURVE",
"371 457 CURVE SMOOTH",
"371 480 OFFCURVE",
"370 554 OFFCURVE",
"321 554 CURVE SMOOTH",
"294 554 OFFCURVE",
"275 535 OFFCURVE",
"271 502 CURVE",
"236 505 LINE",
"241 553 OFFCURVE",
"266 595 OFFCURVE",
"321 595 CURVE SMOOTH",
"410 595 OFFCURVE",
"412 490 OFFCURVE",
"412 457 CURVE SMOOTH",
"412 425 OFFCURVE",
"410 320 OFFCURVE",
"321 320 CURVE SMOOTH",
"256 320 OFFCURVE",
"231 368 OFFCURVE"
);
}
);
width = 638;
}
);
unicode = 0D94;
},
{
glyphname = sinOo;
lastChange = "2021-06-09 01:21:28 +0000";
layers = (
{
layerId = "6114C541-D024-4A3E-9713-6FAF49EAB318";
paths = (
{
closed = 1;
nodes = (
"67 846 CURVE SMOOTH",
"67 924 OFFCURVE",
"137 991 OFFCURVE",
"311 991 CURVE SMOOTH",
"498 991 OFFCURVE",
"600 899 OFFCURVE",
"600 798 CURVE SMOOTH",
"600 691 OFFCURVE",
"498 643 OFFCURVE",
"441 643 CURVE",
"403 691 LINE",
"426 737 LINE",
"455 745 OFFCURVE",
"469 770 OFFCURVE",
"469 798 CURVE SMOOTH",
"469 835 OFFCURVE",
"428 877 OFFCURVE",
"311 877 CURVE SMOOTH",
"216 877 OFFCURVE",
"189 851 OFFCURVE",
"189 825 CURVE SMOOTH",
"189 803 OFFCURVE",
"199 793 OFFCURVE",
"213 776 CURVE",
"208 739 LINE",
"114 747 LINE",
"83 774 OFFCURVE",
"67 812 OFFCURVE"
);
},
{
closed = 1;
nodes = (
"24 288 CURVE SMOOTH",
"24 443 OFFCURVE",
"62 600 OFFCURVE",
"193 600 CURVE SMOOTH",
"266 600 OFFCURVE",
"311 547 OFFCURVE",
"312 498 CURVE",
"219 470 LINE",
"219 482 OFFCURVE",
"207 488 OFFCURVE",
"199 488 CURVE SMOOTH",
"159 488 OFFCURVE",
"146 396 OFFCURVE",
"146 303 CURVE SMOOTH",
"146 231 OFFCURVE",
"152 130 OFFCURVE",
"198 130 CURVE SMOOTH",
"246 130 OFFCURVE",
"263 204 OFFCURVE",
"263 284 CURVE",
"372 284 LINE",
"372 201 OFFCURVE",
"389 131 OFFCURVE",
"438 131 CURVE SMOOTH",
"503 131 OFFCURVE",
"503 273 OFFCURVE",
"503 333 CURVE SMOOTH",
"503 600 OFFCURVE",
"399 661 OFFCURVE",
"262 661 CURVE SMOOTH",
"219 661 OFFCURVE",
"159 642 OFFCURVE",
"126 612 CURVE",
"54 706 LINE",
"132 778 OFFCURVE",
"222 786 OFFCURVE",
"280 786 CURVE SMOOTH",
"495 786 OFFCURVE",
"634 668 OFFCURVE",
"634 333 CURVE SMOOTH",
"634 207 OFFCURVE",
"633 0 OFFCURVE",
"438 0 CURVE SMOOTH",
"375 0 OFFCURVE",
"332 38 OFFCURVE",
"315 90 CURVE",
"296 36 OFFCURVE",
"251 0 OFFCURVE",
"191 0 CURVE SMOOTH",
"63 0 OFFCURVE",
"24 131 OFFCURVE"
);
},
{
closed = 1;
nodes = (
"215 427 CURVE SMOOTH",
"215 440 OFFCURVE",
"219 454 OFFCURVE",
"219 470 CURVE",
"312 498 LINE",
"312 483 OFFCURVE",
"310 469 OFFCURVE",
"310 458 CURVE SMOOTH",
"310 428 OFFCURVE",
"316 417 OFFCURVE",
"331 417 CURVE SMOOTH",
"343 417 OFFCURVE",
"350 428 OFFCURVE",
"350 461 CURVE SMOOTH",
"350 485 OFFCURVE",
"347 508 OFFCURVE",
"327 508 CURVE SMOOTH",
"321 508 OFFCURVE",
"313 506 OFFCURVE",
"308 498 CURVE",
"261 567 LINE",
"275 584 OFFCURVE",
"295 600 OFFCURVE",
"333 600 CURVE SMOOTH",
"405 600 OFFCURVE",
"442 547 OFFCURVE",
"442 460 CURVE SMOOTH",
"442 369 OFFCURVE",
"423 307 OFFCURVE",
"326 307 CURVE SMOOTH",
"243 307 OFFCURVE",
"215 357 OFFCURVE"
);
}
);
width = 657;
},
{
layerId = "CC11FE7D-5FF0-4B40-9597-DFC61EB94F41";
paths = (
{
closed = 1;
nodes = (
"77 849 CURVE SMOOTH",
"77 905 OFFCURVE",
"127 983 OFFCURVE",
"309 983 CURVE SMOOTH",
"452 983 OFFCURVE",
"569 912 OFFCURVE",
"569 810 CURVE SMOOTH",
"569 750 OFFCURVE",
"530 707 OFFCURVE",
"474 685 CURVE",
"440 695 LINE",
"465 724 LINE",
"501 739 OFFCURVE",
"527 769 OFFCURVE",
"527 810 CURVE SMOOTH",
"527 887 OFFCURVE",
"429 941 OFFCURVE",
"309 941 CURVE SMOOTH",
"160 941 OFFCURVE",
"119 887 OFFCURVE",
"119 849 CURVE SMOOTH",
"119 811 OFFCURVE",
"150 778 OFFCURVE",
"180 760 CURVE",
"181 725 LINE",
"149 735 LINE",
"114 758 OFFCURVE",
"77 800 OFFCURVE"
);
},
{
closed = 1;
nodes = (
"38 286 CURVE SMOOTH",
"38 444 OFFCURVE",
"73 596 OFFCURVE",
"173 596 CURVE SMOOTH",
"247 596 OFFCURVE",
"274 539 OFFCURVE",
"274 485 CURVE",
"234 477 LINE",
"234 535 OFFCURVE",
"207 556 OFFCURVE",
"173 556 CURVE SMOOTH",
"105 556 OFFCURVE",
"80 419 OFFCURVE",
"80 286 CURVE SMOOTH",
"80 191 OFFCURVE",
"84 46 OFFCURVE",
"177 46 CURVE SMOOTH",
"281 46 OFFCURVE",
"288 169 OFFCURVE",
"292 255 CURVE",
"331 255 LINE",
"334 169 OFFCURVE",
"342 46 OFFCURVE",
"446 46 CURVE SMOOTH",
"551 46 OFFCURVE",
"559 187 OFFCURVE",
"559 333 CURVE SMOOTH",
"559 662 OFFCURVE",
"414 741 OFFCURVE",
"279 741 CURVE SMOOTH",
"199 741 OFFCURVE",
"152 707 OFFCURVE",
"108 673 CURVE",
"81 706 LINE",
"136 755 OFFCURVE",
"215 783 OFFCURVE",
"279 783 CURVE SMOOTH",
"434 783 OFFCURVE",
"601 696 OFFCURVE",
"601 333 CURVE SMOOTH",
"601 165 OFFCURVE",
"590 3 OFFCURVE",
"446 3 CURVE SMOOTH",
"337 3 OFFCURVE",
"316 97 OFFCURVE",
"311 131 CURVE",
"307 97 OFFCURVE",
"285 3 OFFCURVE",
"177 3 CURVE SMOOTH",
"47 3 OFFCURVE",
"38 174 OFFCURVE"
);
},
{
closed = 1;
nodes = (
"231 421 CURVE SMOOTH",
"231 439 OFFCURVE",
"234 452 OFFCURVE",
"234 477 CURVE",
"274 485 LINE",
"274 473 OFFCURVE",
"272 440 OFFCURVE",
"272 421 CURVE SMOOTH",
"272 394 OFFCURVE",
"279 361 OFFCURVE",
"321 361 CURVE SMOOTH",
"370 361 OFFCURVE",
"371 435 OFFCURVE",
"371 457 CURVE SMOOTH",
"371 480 OFFCURVE",
"370 554 OFFCURVE",
"321 554 CURVE SMOOTH",
"294 554 OFFCURVE",
"275 535 OFFCURVE",
"271 502 CURVE",
"236 505 LINE",
"241 553 OFFCURVE",
"266 595 OFFCURVE",
"321 595 CURVE SMOOTH",
"410 595 OFFCURVE",
"412 490 OFFCURVE",
"412 457 CURVE SMOOTH",
"412 425 OFFCURVE",
"410 320 OFFCURVE",
"321 320 CURVE SMOOTH",
"256 320 OFFCURVE",
"231 368 OFFCURVE"
);
}
);
width = 638;
}
);
unicode = 0D95;
},
{
glyphname = sinKa;
lastChange = "2021-06-09 01:21:28 +0000";
layers = (
{
layerId = "6114C541-D024-4A3E-9713-6FAF49EAB318";
paths = (
{
closed = 1;
nodes = (
"685 0 OFFCURVE",
"768 68 OFFCURVE",
"768 310 CURVE SMOOTH",
"768 563 OFFCURVE",
"643 676 OFFCURVE",
"509 676 CURVE SMOOTH",
"407 676 OFFCURVE",
"337 624 OFFCURVE",
"279 556 CURVE SMOOTH",
"29 264 LINE",
"34 143 LINE",
"115 215 LINE",
"361 473 LINE",
"409 525 OFFCURVE",
"438 549 OFFCURVE",
"498 549 CURVE SMOOTH",
"583 549 OFFCURVE",
"642 465 OFFCURVE",
"642 310 CURVE SMOOTH",
"642 158 OFFCURVE",
"616 117 OFFCURVE",
"567 117 CURVE SMOOTH",
"520 117 OFFCURVE",
"516 152 OFFCURVE",
"515 180 CURVE",
"437 107 LINE",
"448 66 OFFCURVE",
"481 0 OFFCURVE",
"567 0 CURVE SMOOTH"
);
},
{
closed = 1;
nodes = (
"232 0 OFFCURVE",
"263 35 OFFCURVE",
"273 59 CURVE",
"285 33 OFFCURVE",
"317 0 OFFCURVE",
"371 0 CURVE SMOOTH",
"482 0 OFFCURVE",
"527 127 OFFCURVE",
"527 239 CURVE SMOOTH",
"527 455 OFFCURVE",
"437 488 OFFCURVE",
"362 488 CURVE SMOOTH",
"292 488 OFFCURVE",
"249 473 OFFCURVE",
"209 407 CURVE",
"263 371 LINE",
"274 381 OFFCURVE",
"289 395 OFFCURVE",
"320 395 CURVE SMOOTH",
"364 395 OFFCURVE",
"406 350 OFFCURVE",
"406 239 CURVE SMOOTH",
"406 189 OFFCURVE",
"400 124 OFFCURVE",
"360 124 CURVE SMOOTH",
"338 124 OFFCURVE",
"324 139 OFFCURVE",
"324 182 CURVE SMOOTH",
"324 258 LINE",
"222 258 LINE",
"222 182 LINE SMOOTH",
"222 135 OFFCURVE",
"203 124 OFFCURVE",
"186 124 CURVE SMOOTH",
"158 124 OFFCURVE",
"156 158 OFFCURVE",
"156 178 CURVE SMOOTH",
"156 190 LINE SMOOTH",
"156 218 OFFCURVE",
"146 228 OFFCURVE",
"138 236 CURVE",
"123 251 LINE",
"50 218 LINE",
"34 143 LINE",
"38 145 OFFCURVE",
"42 146 OFFCURVE",
"46 146 CURVE SMOOTH",
"59 146 OFFCURVE",
"71 137 OFFCURVE",
"71 121 CURVE SMOOTH",
"71 112 OFFCURVE",
"71 104 OFFCURVE",
"70 94 CURVE SMOOTH",
"70 52 OFFCURVE",
"95 0 OFFCURVE",
"182 0 CURVE SMOOTH"
);
},
{
closed = 1;
nodes = (
"162 449 OFFCURVE",
"131 469 OFFCURVE",
"131 514 CURVE SMOOTH",
"131 541 OFFCURVE",
"146 564 OFFCURVE",
"178 564 CURVE SMOOTH",
"210 564 OFFCURVE",
"237 537 OFFCURVE",
"237 494 CURVE SMOOTH",
"237 427 LINE",
"349 487 LINE",
"349 611 OFFCURVE",
"267 676 OFFCURVE",
"180 676 CURVE SMOOTH",
"80 676 OFFCURVE",
"25 606 OFFCURVE",
"25 525 CURVE SMOOTH",
"25 446 OFFCURVE",
"76 392 OFFCURVE",
"128 373 CURVE",
"196 441 LINE"
);
}
);
width = 793;
},
{
layerId = "CC11FE7D-5FF0-4B40-9597-DFC61EB94F41";
paths = (
{
closed = 1;
nodes = (
"690 3 OFFCURVE",
"745 113 OFFCURVE",
"745 310 CURVE SMOOTH",
"745 575 OFFCURVE",
"637 673 OFFCURVE",
"512 673 CURVE SMOOTH",
"424 673 OFFCURVE",
"349 601 OFFCURVE",
"286 521 CURVE SMOOTH",
"38 209 LINE",
"66 176 LINE",
"96 214 LINE",
"316 493 LINE SMOOTH",
"372 563 OFFCURVE",
"434 630 OFFCURVE",
"512 630 CURVE SMOOTH",
"614 630 OFFCURVE",
"703 544 OFFCURVE",
"703 310 CURVE SMOOTH",
"703 123 OFFCURVE",
"645 46 OFFCURVE",
"574 46 CURVE SMOOTH",
"518 46 OFFCURVE",
"490 74 OFFCURVE",
"483 108 CURVE",
"444 98 LINE",
"455 46 OFFCURVE",
"495 3 OFFCURVE",
"574 3 CURVE SMOOTH"
);
},
{
closed = 1;
nodes = (
"249 3 OFFCURVE",
"275 55 OFFCURVE",
"275 90 CURVE",
"277 55 OFFCURVE",
"305 3 OFFCURVE",
"371 3 CURVE SMOOTH",
"489 3 OFFCURVE",
"503 140 OFFCURVE",
"503 223 CURVE SMOOTH",
"503 413 OFFCURVE",
"424 483 OFFCURVE",
"335 483 CURVE SMOOTH",
"292 483 OFFCURVE",
"259 457 OFFCURVE",
"233 435 CURVE",
"249 410 LINE",
"269 427 OFFCURVE",
"290 441 OFFCURVE",
"335 441 CURVE SMOOTH",
"402 441 OFFCURVE",
"461 383 OFFCURVE",
"461 223 CURVE SMOOTH",
"461 179 OFFCURVE",
"458 46 OFFCURVE",
"371 46 CURVE SMOOTH",
"312 46 OFFCURVE",
"297 114 OFFCURVE",
"296 181 CURVE SMOOTH",
"296 193 LINE",
"255 193 LINE",
"255 181 LINE SMOOTH",
"254 114 OFFCURVE",
"239 46 OFFCURVE",
"180 46 CURVE SMOOTH",
"134 46 OFFCURVE",
"123 78 OFFCURVE",
"123 119 CURVE SMOOTH",
"123 146 LINE SMOOTH",
"123 177 OFFCURVE",
"121 216 OFFCURVE",
"98 217 CURVE SMOOTH",
"84 217 LINE",
"74 209 LINE",
"66 176 LINE",
"69 179 OFFCURVE",
"72 180 OFFCURVE",
"74 180 CURVE SMOOTH",
"83 180 OFFCURVE",
"85 164 OFFCURVE",
"85 148 CURVE SMOOTH",
"85 137 OFFCURVE",
"84 126 OFFCURVE",
"84 119 CURVE SMOOTH",
"84 55 OFFCURVE",
"103 3 OFFCURVE",
"180 3 CURVE SMOOTH"
);
},
{
closed = 1;
nodes = (
"129 419 OFFCURVE",
"79 464 OFFCURVE",
"79 539 CURVE SMOOTH",
"79 603 OFFCURVE",
"128 634 OFFCURVE",
"174 634 CURVE SMOOTH",
"229 634 OFFCURVE",
"277 597 OFFCURVE",
"277 517 CURVE SMOOTH",
"277 457 LINE",
"315 517 LINE",
"315 624 OFFCURVE",
"247 673 OFFCURVE",
"174 673 CURVE SMOOTH",
"109 673 OFFCURVE",
"41 629 OFFCURVE",
"41 539 CURVE SMOOTH",
"41 444 OFFCURVE",
"108 385 OFFCURVE",
"207 370 CURVE",
"216 405 LINE"
);
}
);
width = 783;
}
);
unicode = 0D9A;
},
{
glyphname = sinKha;
lastChange = "2021-06-09 01:21:28 +0000";
layers = (
{
layerId = "6114C541-D024-4A3E-9713-6FAF49EAB318";
paths = (
{
closed = 1;
nodes = (
"309 173 CURVE",
"371 257 LINE",
"371 228 OFFCURVE",
"374 205 OFFCURVE",
"381 188 CURVE SMOOTH",
"390 162 OFFCURVE",
"410 148 OFFCURVE",
"438 148 CURVE SMOOTH",
"472 148 OFFCURVE",
"500 195 OFFCURVE",
"500 333 CURVE SMOOTH",
"500 595 OFFCURVE",
"451 728 OFFCURVE",
"294 728 CURVE SMOOTH",
"247 728 OFFCURVE",
"193 704 OFFCURVE",
"173 656 CURVE",
"49 698 LINE",
"90 806 OFFCURVE",
"195 859 OFFCURVE",
"294 859 CURVE SMOOTH",
"541 859 OFFCURVE",
"630 682 OFFCURVE",
"630 333 CURVE SMOOTH",
"630 207 OFFCURVE",
"611 0 OFFCURVE",
"451 0 CURVE SMOOTH",
"380 0 OFFCURVE",
"354 34 OFFCURVE",
"334 84 CURVE SMOOTH",
"321 117 OFFCURVE",
"309 173 OFFCURVE"
);
},
{
closed = 1;
nodes = (
"25 250 CURVE SMOOTH",
"25 485 OFFCURVE",
"111 556 OFFCURVE",
"230 556 CURVE SMOOTH",
"352 556 OFFCURVE",
"422 489 OFFCURVE",
"422 369 CURVE SMOOTH",
"422 309 OFFCURVE",
"403 264 OFFCURVE",
"376 217 CURVE SMOOTH",
"348 167 OFFCURVE",
"340 117 OFFCURVE",
"340 39 CURVE SMOOTH",
"340 -5 OFFCURVE",
"343 -49 OFFCURVE",
"347 -85 CURVE",
"225 -85 LINE",
"221 -57 OFFCURVE",
"218 -17 OFFCURVE",
"218 29 CURVE SMOOTH",
"218 82 OFFCURVE",
"222 142 OFFCURVE",
"233 197 CURVE SMOOTH",
"248 270 OFFCURVE",
"295 300 OFFCURVE",
"295 369 CURVE SMOOTH",
"295 403 OFFCURVE",
"277 428 OFFCURVE",
"228 428 CURVE SMOOTH",
"183 428 OFFCURVE",
"147 387 OFFCURVE",
"147 250 CURVE SMOOTH",
"147 146 OFFCURVE",
"171 115 OFFCURVE",
"195 115 CURVE SMOOTH",
"217 115 OFFCURVE",
"237 131 OFFCURVE",
"255 172 CURVE",
"318 83 LINE",
"270 42 OFFCURVE",
"221 3 OFFCURVE",
"169 3 CURVE SMOOTH",
"61 3 OFFCURVE",
"25 115 OFFCURVE"
);
}
);
width = 656;
},
{
layerId = "CC11FE7D-5FF0-4B40-9597-DFC61EB94F41";
paths = (
{
closed = 1;
nodes = (
"274 188 CURVE",
"306 206 LINE",
"326 179 OFFCURVE",
"335 144 OFFCURVE",
"349 113 CURVE SMOOTH",
"365 75 OFFCURVE",
"388 44 OFFCURVE",
"443 44 CURVE SMOOTH",
"509 44 OFFCURVE",
"553 166 OFFCURVE",
"553 333 CURVE SMOOTH",
"553 657 OFFCURVE",
"468 810 OFFCURVE",
"294 810 CURVE SMOOTH",
"213 810 OFFCURVE",
"135 758 OFFCURVE",
"109 688 CURVE",
"70 703 LINE",
"102 788 OFFCURVE",
"196 852 OFFCURVE",
"294 852 CURVE SMOOTH",
"496 852 OFFCURVE",
"595 685 OFFCURVE",
"595 333 CURVE SMOOTH",
"595 142 OFFCURVE",
"554 3 OFFCURVE",
"443 3 CURVE SMOOTH",
"364 3 OFFCURVE",
"334 49 OFFCURVE",
"315 96 CURVE SMOOTH",
"300 132 OFFCURVE",
"293 169 OFFCURVE"
);
},
{
closed = 1;
nodes = (
"38 250 CURVE SMOOTH",
"38 477 OFFCURVE",
"124 553 OFFCURVE",
"223 553 CURVE SMOOTH",
"336 553 OFFCURVE",
"377 498 OFFCURVE",
"377 391 CURVE SMOOTH",
"377 305 OFFCURVE",
"338 280 OFFCURVE",
"316 225 CURVE SMOOTH",
"299 184 OFFCURVE",
"290 154 OFFCURVE",
"290 90 CURVE SMOOTH",
"290 52 OFFCURVE",
"295 -13 OFFCURVE",
"310 -60 CURVE",
"267 -64 LINE",
"256 -14 OFFCURVE",
"249 53 OFFCURVE",
"249 90 CURVE SMOOTH",
"249 149 OFFCURVE",
"260 191 OFFCURVE",
"275 231 CURVE SMOOTH",
"296 289 OFFCURVE",
"336 319 OFFCURVE",
"336 391 CURVE SMOOTH",
"336 471 OFFCURVE",
"308 512 OFFCURVE",
"223 512 CURVE SMOOTH",
"146 512 OFFCURVE",
"80 446 OFFCURVE",
"80 250 CURVE SMOOTH",
"80 120 OFFCURVE",
"107 43 OFFCURVE",
"174 43 CURVE SMOOTH",
"226 43 OFFCURVE",
"256 86 OFFCURVE",
"265 168 CURVE",
"286 160 LINE",
"274 76 OFFCURVE",
"256 3 OFFCURVE",
"168 3 CURVE SMOOTH",
"77 3 OFFCURVE",
"38 94 OFFCURVE"
);
}
);
width = 631;
}
);
unicode = 0D9B;
},
{
glyphname = sinGa;
lastChange = "2021-06-09 01:21:28 +0000";
layers = (
{
layerId = "6114C541-D024-4A3E-9713-6FAF49EAB318";
paths = (
{
closed = 1;
nodes = (
"247 342 LINE",
"300 376 OFFCURVE",
"303 412 OFFCURVE",
"303 446 CURVE SMOOTH",
"303 454 OFFCURVE",
"303 461 OFFCURVE",
"303 468 CURVE SMOOTH",
"312 602 OFFCURVE",
"398 665 OFFCURVE",
"490 665 CURVE SMOOTH",
"612 665 OFFCURVE",
"724 599 OFFCURVE",
"724 332 CURVE SMOOTH",
"724 79 OFFCURVE",
"627 0 OFFCURVE",
"509 0 CURVE SMOOTH",
"423 0 OFFCURVE",
"376 57 OFFCURVE",
"365 98 CURVE",
"439 180 LINE",
"445 161 OFFCURVE",
"462 121 OFFCURVE",
"509 121 CURVE SMOOTH",
"558 121 OFFCURVE",
"600 171 OFFCURVE",
"600 332 CURVE SMOOTH",
"600 500 OFFCURVE",
"547 543 OFFCURVE",
"490 543 CURVE SMOOTH",
"439 543 OFFCURVE",
"423 509 OFFCURVE",
"419 443 CURVE SMOOTH",
"419 433 OFFCURVE",
"419 423 OFFCURVE",
"419 412 CURVE SMOOTH",
"419 326 OFFCURVE",
"368 289 OFFCURVE",
"299 250 CURVE"
);
},
{
closed = 1;
nodes = (
"25 332 CURVE SMOOTH",
"25 586 OFFCURVE",
"122 665 OFFCURVE",
"239 665 CURVE SMOOTH",
"326 665 OFFCURVE",
"373 608 OFFCURVE",
"384 567 CURVE",
"310 485 LINE",
"304 504 OFFCURVE",
"287 544 OFFCURVE",
"239 544 CURVE SMOOTH",
"190 544 OFFCURVE",
"149 494 OFFCURVE",
"149 332 CURVE SMOOTH",
"149 164 OFFCURVE",
"202 122 OFFCURVE",
"258 122 CURVE SMOOTH",
"328 122 OFFCURVE",
"349 166 OFFCURVE",
"349 210 CURVE SMOOTH",
"349 249 OFFCURVE",
"331 263 OFFCURVE",
"317 269 CURVE",
"389 348 LINE",
"430 335 OFFCURVE",
"465 277 OFFCURVE",
"465 215 CURVE SMOOTH",
"465 108 OFFCURVE",
"407 0 OFFCURVE",
"258 0 CURVE SMOOTH",
"137 0 OFFCURVE",
"25 66 OFFCURVE"
);
}
);
width = 749;
},
{
layerId = "CC11FE7D-5FF0-4B40-9597-DFC61EB94F41";
paths = (
{
closed = 1;
nodes = (
"261 314 LINE",
"311 337 OFFCURVE",
"318 385 OFFCURVE",
"318 421 CURVE SMOOTH",
"318 435 OFFCURVE",
"317 448 OFFCURVE",
"317 456 CURVE SMOOTH",
"317 584 OFFCURVE",
"396 661 OFFCURVE",
"487 661 CURVE SMOOTH",
"592 661 OFFCURVE",
"687 601 OFFCURVE",
"687 332 CURVE SMOOTH",
"687 65 OFFCURVE",
"593 3 OFFCURVE",
"495 3 CURVE SMOOTH",
"432 3 OFFCURVE",
"390 36 OFFCURVE",
"369 81 CURVE SMOOTH",
"395 140 LINE",
"399 94 OFFCURVE",
"435 46 OFFCURVE",
"495 46 CURVE SMOOTH",
"571 46 OFFCURVE",
"644 99 OFFCURVE",
"644 332 CURVE SMOOTH",
"644 566 OFFCURVE",
"571 619 OFFCURVE",
"487 619 CURVE SMOOTH",
"401 619 OFFCURVE",
"359 540 OFFCURVE",
"359 456 CURVE SMOOTH",
"359 447 OFFCURVE",
"360 435 OFFCURVE",
"360 422 CURVE SMOOTH",
"360 374 OFFCURVE",
"352 310 OFFCURVE",
"274 281 CURVE"
);
},
{
closed = 1;
nodes = (
"38 314 CURVE SMOOTH",
"38 596 OFFCURVE",
"131 661 OFFCURVE",
"229 661 CURVE SMOOTH",
"313 661 OFFCURVE",
"358 604 OFFCURVE",
"370 538 CURVE",
"329 525 LINE",
"325 570 OFFCURVE",
"289 619 OFFCURVE",
"229 619 CURVE SMOOTH",
"153 619 OFFCURVE",
"80 562 OFFCURVE",
"80 314 CURVE SMOOTH",
"80 95 OFFCURVE",
"164 46 OFFCURVE",
"248 46 CURVE SMOOTH",
"347 46 OFFCURVE",
"384 127 OFFCURVE",
"384 198 CURVE SMOOTH",
"384 256 OFFCURVE",
"356 306 OFFCURVE",
"314 310 CURVE",
"333 343 LINE",
"374 340 OFFCURVE",
"426 284 OFFCURVE",
"426 198 CURVE SMOOTH",
"426 108 OFFCURVE",
"377 3 OFFCURVE",
"248 3 CURVE SMOOTH",
"143 3 OFFCURVE",
"38 60 OFFCURVE"
);
}
);
width = 724;
}
);
unicode = 0D9C;
},
{
glyphname = sinGha;
lastChange = "2021-06-09 01:21:28 +0000";
layers = (
{
layerId = "6114C541-D024-4A3E-9713-6FAF49EAB318";
paths = (
{
closed = 1;
nodes = (
"283 0 OFFCURVE",
"320 61 OFFCURVE",
"320 107 CURVE SMOOTH",
"320 142 OFFCURVE",
"314 161 OFFCURVE",
"314 180 CURVE SMOOTH",
"314 195 OFFCURVE",
"319 205 OFFCURVE",
"339 205 CURVE SMOOTH",
"358 205 OFFCURVE",
"364 195 OFFCURVE",
"364 180 CURVE SMOOTH",
"364 161 OFFCURVE",
"357 142 OFFCURVE",
"357 107 CURVE SMOOTH",
"357 61 OFFCURVE",
"394 0 OFFCURVE",
"469 0 CURVE SMOOTH",
"596 0 OFFCURVE",
"640 108 OFFCURVE",
"640 236 CURVE SMOOTH",
"640 364 OFFCURVE",
"579 473 OFFCURVE",
"469 473 CURVE SMOOTH",
"20 473 LINE",
"20 364 LINE",
"66 364 LINE",
"50 335 OFFCURVE",
"37 283 OFFCURVE",
"37 236 CURVE SMOOTH",
"37 108 OFFCURVE",
"81 0 OFFCURVE",
"208 0 CURVE SMOOTH"
);
},
{
closed = 1;
nodes = (
"168 131 OFFCURVE",
"159 179 OFFCURVE",
"159 236 CURVE SMOOTH",
"159 294 OFFCURVE",
"181 362 OFFCURVE",
"228 362 CURVE SMOOTH",
"449 362 LINE SMOOTH",
"495 362 OFFCURVE",
"518 294 OFFCURVE",
"518 236 CURVE SMOOTH",
"518 179 OFFCURVE",
"510 131 OFFCURVE",
"469 131 CURVE SMOOTH",
"455 131 OFFCURVE",
"451 140 OFFCURVE",
"451 154 CURVE SMOOTH",
"451 170 OFFCURVE",
"456 193 OFFCURVE",
"456 215 CURVE SMOOTH",
"456 270 OFFCURVE",
"419 294 OFFCURVE",
"339 294 CURVE SMOOTH",
"258 294 OFFCURVE",
"221 270 OFFCURVE",
"221 215 CURVE SMOOTH",
"221 193 OFFCURVE",
"227 170 OFFCURVE",
"227 154 CURVE SMOOTH",
"227 140 OFFCURVE",
"223 131 OFFCURVE",
"208 131 CURVE SMOOTH"
);
},
{
closed = 1;
nodes = (
"387 532 LINE",
"387 605 OFFCURVE",
"310 676 OFFCURVE",
"224 676 CURVE SMOOTH",
"124 676 OFFCURVE",
"70 606 OFFCURVE",
"70 525 CURVE SMOOTH",
"70 493 OFFCURVE",
"80 459 OFFCURVE",
"104 427 CURVE",
"190 470 LINE",
"180 483 OFFCURVE",
"175 498 OFFCURVE",
"175 513 CURVE SMOOTH",
"175 540 OFFCURVE",
"192 564 OFFCURVE",
"229 564 CURVE SMOOTH",
"255 564 OFFCURVE",
"287 547 OFFCURVE",
"287 494 CURVE SMOOTH",
"287 488 OFFCURVE",
"287 481 OFFCURVE",
"286 473 CURVE",
"328 385 LINE"
);
},
{
closed = 1;
nodes = (
"391 473 LINE",
"390 481 OFFCURVE",
"390 488 OFFCURVE",
"390 494 CURVE SMOOTH",
"390 547 OFFCURVE",
"422 564 OFFCURVE",
"448 564 CURVE SMOOTH",
"488 564 OFFCURVE",
"505 541 OFFCURVE",
"505 513 CURVE SMOOTH",
"505 500 OFFCURVE",
"497 477 OFFCURVE",
"488 467 CURVE",
"575 420 LINE",
"598 449 OFFCURVE",
"611 487 OFFCURVE",
"611 519 CURVE SMOOTH",
"611 606 OFFCURVE",
"552 676 OFFCURVE",
"453 676 CURVE SMOOTH",
"370 676 OFFCURVE",
"290 608 OFFCURVE",
"290 532 CURVE",
"339 385 LINE"
);
}
);
width = 669;
},
{
layerId = "CC11FE7D-5FF0-4B40-9597-DFC61EB94F41";
paths = (
{
closed = 1;
nodes = (
"258 3 OFFCURVE",
"299 47 OFFCURVE",
"299 102 CURVE SMOOTH",
"299 149 OFFCURVE",
"275 167 OFFCURVE",
"275 196 CURVE SMOOTH",
"275 229 OFFCURVE",
"304 236 OFFCURVE",
"337 236 CURVE SMOOTH",
"369 236 OFFCURVE",
"398 229 OFFCURVE",
"398 196 CURVE SMOOTH",
"398 167 OFFCURVE",
"374 149 OFFCURVE",
"374 102 CURVE SMOOTH",
"374 47 OFFCURVE",
"415 3 OFFCURVE",
"471 3 CURVE SMOOTH",
"574 3 OFFCURVE",
"624 99 OFFCURVE",
"624 221 CURVE SMOOTH",
"625 339 OFFCURVE",
"586 461 OFFCURVE",
"476 461 CURVE SMOOTH",
"38 461 LINE",
"38 420 LINE",
"110 420 LINE",
"71 389 OFFCURVE",
"49 299 OFFCURVE",
"49 221 CURVE SMOOTH",
"49 99 OFFCURVE",
"99 3 OFFCURVE",
"202 3 CURVE SMOOTH"
);
},
{
closed = 1;
nodes = (
"127 40 OFFCURVE",
"91 117 OFFCURVE",
"91 215 CURVE SMOOTH",
"91 280 OFFCURVE",
"106 414 OFFCURVE",
"217 414 CURVE SMOOTH",
"474 414 LINE SMOOTH",
"570 414 OFFCURVE",
"582 281 OFFCURVE",
"582 215 CURVE SMOOTH",
"582 117 OFFCURVE",
"546 40 OFFCURVE",
"471 40 CURVE SMOOTH",
"439 40 OFFCURVE",
"416 65 OFFCURVE",
"416 97 CURVE SMOOTH",
"416 141 OFFCURVE",
"440 154 OFFCURVE",
"440 195 CURVE SMOOTH",
"440 256 OFFCURVE",
"396 272 OFFCURVE",
"337 272 CURVE SMOOTH",
"277 272 OFFCURVE",
"233 256 OFFCURVE",
"233 195 CURVE SMOOTH",
"233 154 OFFCURVE",
"257 141 OFFCURVE",
"257 97 CURVE SMOOTH",
"257 65 OFFCURVE",
"234 40 OFFCURVE",
"202 40 CURVE SMOOTH"
);
},
{
closed = 1;
nodes = (
"353 555 LINE",
"338 636 OFFCURVE",
"278 673 OFFCURVE",
"214 673 CURVE SMOOTH",
"150 673 OFFCURVE",
"82 629 OFFCURVE",
"82 539 CURVE SMOOTH",
"82 477 OFFCURVE",
"114 440 OFFCURVE",
"128 428 CURVE",
"153 451 LINE",
"142 462 OFFCURVE",
"120 492 OFFCURVE",
"120 539 CURVE SMOOTH",
"120 603 OFFCURVE",
"168 634 OFFCURVE",
"214 634 CURVE SMOOTH",
"269 634 OFFCURVE",
"316 597 OFFCURVE",
"318 517 CURVE SMOOTH",
"318 497 OFFCURVE",
"318 477 OFFCURVE",
"318 457 CURVE",
"337 420 LINE"
);
},
{
closed = 1;
nodes = (
"356 457 LINE",
"356 477 OFFCURVE",
"356 497 OFFCURVE",
"356 517 CURVE SMOOTH",
"356 597 OFFCURVE",
"404 634 OFFCURVE",
"459 634 CURVE SMOOTH",
"505 634 OFFCURVE",
"553 603 OFFCURVE",
"553 539 CURVE SMOOTH",
"553 498 OFFCURVE",
"533 457 OFFCURVE",
"503 435 CURVE",
"532 411 LINE",
"568 439 OFFCURVE",
"591 489 OFFCURVE",
"591 539 CURVE SMOOTH",
"591 629 OFFCURVE",
"523 673 OFFCURVE",
"459 673 CURVE SMOOTH",
"395 673 OFFCURVE",
"335 636 OFFCURVE",
"320 555 CURVE",
"337 443 LINE"
);
}
);
width = 661;
}
);
unicode = 0D9D;
},
{
glyphname = sinNga;
lastChange = "2021-06-09 01:21:28 +0000";
layers = (
{
layerId = "6114C541-D024-4A3E-9713-6FAF49EAB318";
paths = (
{
closed = 1;
nodes = (
"31 220 CURVE SMOOTH",
"31 310 OFFCURVE",
"73 377 OFFCURVE",
"137 407 CURVE",
"144 401 OFFCURVE",
"154 398 OFFCURVE",
"165 398 CURVE SMOOTH",
"185 398 OFFCURVE",
"207 408 OFFCURVE",
"207 425 CURVE",
"212 425 OFFCURVE",
"217 426 OFFCURVE",
"221 426 CURVE SMOOTH",
"270 426 OFFCURVE",
"271 420 OFFCURVE",
"300 420 CURVE SMOOTH",
"324 420 OFFCURVE",
"336 432 OFFCURVE",
"336 455 CURVE SMOOTH",
"336 491 OFFCURVE",
"316 506 OFFCURVE",
"286 506 CURVE SMOOTH",
"258 506 OFFCURVE",
"226 496 OFFCURVE",
"203 484 CURVE",
"190 500 OFFCURVE",
"174 507 OFFCURVE",
"159 507 CURVE SMOOTH",
"132 507 OFFCURVE",
"109 485 OFFCURVE",
"109 456 CURVE",
"36 514 LINE",
"72 580 OFFCURVE",
"131 600 OFFCURVE",
"238 600 CURVE SMOOTH",
"326 600 OFFCURVE",
"440 571 OFFCURVE",
"440 456 CURVE SMOOTH",
"440 366 OFFCURVE",
"392 330 OFFCURVE",
"320 330 CURVE SMOOTH",
"293 330 OFFCURVE",
"269 336 OFFCURVE",
"242 336 CURVE SMOOTH",
"189 336 OFFCURVE",
"153 297 OFFCURVE",
"153 220 CURVE SMOOTH",
"153 178 OFFCURVE",
"160 130 OFFCURVE",
"202 130 CURVE SMOOTH",
"250 130 OFFCURVE",
"267 204 OFFCURVE",
"267 284 CURVE",
"376 284 LINE",
"376 201 OFFCURVE",
"394 131 OFFCURVE",
"443 131 CURVE SMOOTH",
"507 131 OFFCURVE",
"507 273 OFFCURVE",
"507 333 CURVE SMOOTH",
"507 595 OFFCURVE",
"458 728 OFFCURVE",
"301 728 CURVE SMOOTH",
"255 728 OFFCURVE",
"200 704 OFFCURVE",
"181 656 CURVE",
"57 698 LINE",
"98 806 OFFCURVE",
"203 859 OFFCURVE",
"301 859 CURVE SMOOTH",
"548 859 OFFCURVE",
"638 682 OFFCURVE",
"638 333 CURVE SMOOTH",
"638 207 OFFCURVE",
"637 0 OFFCURVE",
"443 0 CURVE SMOOTH",
"379 0 OFFCURVE",
"336 38 OFFCURVE",
"319 90 CURVE",
"301 36 OFFCURVE",
"256 0 OFFCURVE",
"196 0 CURVE SMOOTH",
"64 0 OFFCURVE",
"31 120 OFFCURVE"
);
},
{
closed = 1;
nodes = (
"111 452 CURVE SMOOTH",
"111 427 OFFCURVE",
"131 406 OFFCURVE",
"156 406 CURVE SMOOTH",
"181 406 OFFCURVE",
"201 427 OFFCURVE",
"201 452 CURVE SMOOTH",
"201 477 OFFCURVE",
"181 498 OFFCURVE",
"156 498 CURVE SMOOTH",
"131 498 OFFCURVE",
"111 477 OFFCURVE"
);
},
{
closed = 1;
nodes = (
"21 453 CURVE SMOOTH",
"21 527 OFFCURVE",
"81 586 OFFCURVE",
"155 586 CURVE SMOOTH",
"229 586 OFFCURVE",
"289 527 OFFCURVE",
"289 453 CURVE SMOOTH",
"289 378 OFFCURVE",
"229 319 OFFCURVE",
"155 319 CURVE SMOOTH",
"81 319 OFFCURVE",
"21 378 OFFCURVE"
);
}
);
width = 654;
},
{
layerId = "CC11FE7D-5FF0-4B40-9597-DFC61EB94F41";
paths = (
{
closed = 1;
nodes = (
"38 204 CURVE SMOOTH",
"38 322 OFFCURVE",
"95 370 OFFCURVE",
"144 389 CURVE",
"149 388 OFFCURVE",
"153 387 OFFCURVE",
"157 387 CURVE SMOOTH",
"172 387 OFFCURVE",
"184 394 OFFCURVE",
"187 400 CURVE",
"195 401 OFFCURVE",
"201 402 OFFCURVE",
"206 402 CURVE SMOOTH",
"265 402 OFFCURVE",
"261 394 OFFCURVE",
"305 394 CURVE SMOOTH",
"336 394 OFFCURVE",
"364 416 OFFCURVE",
"364 457 CURVE SMOOTH",
"364 523 OFFCURVE",
"313 543 OFFCURVE",
"230 543 CURVE SMOOTH",
"218 543 OFFCURVE",
"205 542 OFFCURVE",
"190 541 CURVE",
"175 539 OFFCURVE",
"159 536 OFFCURVE",
"145 531 CURVE SMOOTH",
"111 520 OFFCURVE",
"83 500 OFFCURVE",
"83 464 CURVE",
"51 502 LINE",
"80 569 OFFCURVE",
"147 580 OFFCURVE",
"230 580 CURVE SMOOTH",
"331 580 OFFCURVE",
"406 544 OFFCURVE",
"406 457 CURVE SMOOTH",
"406 377 OFFCURVE",
"349 352 OFFCURVE",
"305 352 CURVE SMOOTH",
"255 352 OFFCURVE",
"253 360 OFFCURVE",
"206 360 CURVE SMOOTH",
"143 360 OFFCURVE",
"80 319 OFFCURVE",
"80 205 CURVE SMOOTH",
"80 117 OFFCURVE",
"108 46 OFFCURVE",
"178 46 CURVE SMOOTH",
"282 46 OFFCURVE",
"290 169 OFFCURVE",
"293 255 CURVE",
"332 255 LINE",
"336 169 OFFCURVE",
"343 46 OFFCURVE",
"447 46 CURVE SMOOTH",
"552 46 OFFCURVE",
"560 187 OFFCURVE",
"560 333 CURVE SMOOTH",
"560 657 OFFCURVE",
"475 810 OFFCURVE",
"301 810 CURVE SMOOTH",
"221 810 OFFCURVE",
"143 758 OFFCURVE",
"116 688 CURVE",
"77 703 LINE",
"109 788 OFFCURVE",
"204 852 OFFCURVE",
"301 852 CURVE SMOOTH",
"504 852 OFFCURVE",
"602 685 OFFCURVE",
"602 333 CURVE SMOOTH",
"602 165 OFFCURVE",
"592 3 OFFCURVE",
"447 3 CURVE SMOOTH",
"339 3 OFFCURVE",
"317 97 OFFCURVE",
"313 131 CURVE",
"308 97 OFFCURVE",
"287 3 OFFCURVE",
"178 3 CURVE SMOOTH",
"77 3 OFFCURVE",
"38 93 OFFCURVE"
);
},
{
closed = 1;
nodes = (
"86 460 CURVE SMOOTH",
"86 425 OFFCURVE",
"114 395 OFFCURVE",
"150 395 CURVE SMOOTH",
"185 395 OFFCURVE",
"213 425 OFFCURVE",
"213 460 CURVE SMOOTH",
"213 495 OFFCURVE",
"185 524 OFFCURVE",
"150 524 CURVE SMOOTH",
"114 524 OFFCURVE",
"86 495 OFFCURVE"
);
},
{
closed = 1;
nodes = (
"44 460 CURVE SMOOTH",
"44 522 OFFCURVE",
"83 562 OFFCURVE",
"150 562 CURVE SMOOTH",
"214 562 OFFCURVE",
"254 517 OFFCURVE",
"254 460 CURVE SMOOTH",
"254 402 OFFCURVE",
"207 355 OFFCURVE",
"149 355 CURVE SMOOTH",
"91 355 OFFCURVE",
"44 402 OFFCURVE"
);
}
);
width = 692;
}
);
unicode = 0D9E;
},
{
glyphname = sinNnga;
lastChange = "2021-06-09 01:21:28 +0000";
layers = (
{
layerId = "6114C541-D024-4A3E-9713-6FAF49EAB318";
paths = (
{
closed = 1;
nodes = (
"441 341 LINE",
"495 376 OFFCURVE",
"497 412 OFFCURVE",
"497 446 CURVE SMOOTH",
"497 453 OFFCURVE",
"498 461 OFFCURVE",
"498 468 CURVE SMOOTH",
"506 602 OFFCURVE",
"593 665 OFFCURVE",
"685 665 CURVE SMOOTH",
"807 665 OFFCURVE",
"918 599 OFFCURVE",
"918 332 CURVE SMOOTH",
"918 79 OFFCURVE",
"822 0 OFFCURVE",
"704 0 CURVE SMOOTH",
"618 0 OFFCURVE",
"570 57 OFFCURVE",
"560 98 CURVE",
"634 180 LINE",
"640 161 OFFCURVE",
"657 121 OFFCURVE",
"704 121 CURVE SMOOTH",
"753 121 OFFCURVE",
"794 171 OFFCURVE",
"794 332 CURVE SMOOTH",
"794 500 OFFCURVE",
"742 543 OFFCURVE",
"685 543 CURVE SMOOTH",
"634 543 OFFCURVE",
"617 509 OFFCURVE",
"614 443 CURVE SMOOTH",
"614 433 OFFCURVE",
"613 423 OFFCURVE",
"613 412 CURVE SMOOTH",
"613 325 OFFCURVE",
"562 289 OFFCURVE",
"494 250 CURVE"
);
},
{
closed = 1;
nodes = (
"220 332 CURVE SMOOTH",
"220 586 OFFCURVE",
"316 665 OFFCURVE",
"434 665 CURVE SMOOTH",
"520 665 OFFCURVE",
"568 608 OFFCURVE",
"578 567 CURVE",
"504 485 LINE",
"498 504 OFFCURVE",
"481 544 OFFCURVE",
"434 544 CURVE SMOOTH",
"385 544 OFFCURVE",
"344 494 OFFCURVE",
"344 332 CURVE SMOOTH",
"344 164 OFFCURVE",
"396 122 OFFCURVE",
"453 122 CURVE SMOOTH",
"522 122 OFFCURVE",
"544 166 OFFCURVE",
"544 210 CURVE SMOOTH",
"544 249 OFFCURVE",
"526 263 OFFCURVE",
"512 269 CURVE",
"583 348 LINE",
"624 335 OFFCURVE",
"660 277 OFFCURVE",
"660 215 CURVE SMOOTH",
"660 108 OFFCURVE",
"602 0 OFFCURVE",
"453 0 CURVE SMOOTH",
"331 0 OFFCURVE",
"220 66 OFFCURVE"
);
},
{
closed = 1;
nodes = (
"24 323 CURVE SMOOTH",
"24 576 OFFCURVE",
"121 664 OFFCURVE",
"239 664 CURVE SMOOTH",
"318 664 OFFCURVE",
"361 600 OFFCURVE",
"371 554 CURVE",
"310 485 LINE",
"304 503 OFFCURVE",
"287 546 OFFCURVE",
"239 546 CURVE SMOOTH",
"190 546 OFFCURVE",
"145 484 OFFCURVE",
"145 323 CURVE SMOOTH",
"145 150 OFFCURVE",
"172 116 OFFCURVE",
"209 116 CURVE SMOOTH",
"209 0 LINE SMOOTH",
"101 0 OFFCURVE",
"24 52 OFFCURVE"
);
}
);
width = 943;
},
{
layerId = "CC11FE7D-5FF0-4B40-9597-DFC61EB94F41";
paths = (
{
closed = 1;
nodes = (
"432 314 LINE",
"483 337 OFFCURVE",
"490 385 OFFCURVE",
"490 421 CURVE SMOOTH",
"490 435 OFFCURVE",
"489 448 OFFCURVE",
"489 456 CURVE SMOOTH",
"489 584 OFFCURVE",
"568 661 OFFCURVE",
"659 661 CURVE SMOOTH",
"764 661 OFFCURVE",
"858 601 OFFCURVE",
"858 332 CURVE SMOOTH",
"858 65 OFFCURVE",
"765 3 OFFCURVE",
"667 3 CURVE SMOOTH",
"603 3 OFFCURVE",
"562 36 OFFCURVE",
"541 81 CURVE SMOOTH",
"567 140 LINE",
"571 94 OFFCURVE",
"607 46 OFFCURVE",
"667 46 CURVE SMOOTH",
"743 46 OFFCURVE",
"816 99 OFFCURVE",
"816 332 CURVE SMOOTH",
"816 566 OFFCURVE",
"743 619 OFFCURVE",
"659 619 CURVE SMOOTH",
"573 619 OFFCURVE",
"531 540 OFFCURVE",
"531 456 CURVE SMOOTH",
"531 447 OFFCURVE",
"532 435 OFFCURVE",
"532 422 CURVE SMOOTH",
"532 374 OFFCURVE",
"523 310 OFFCURVE",
"446 281 CURVE"
);
},
{
closed = 1;
nodes = (
"209 314 CURVE SMOOTH",
"209 596 OFFCURVE",
"303 661 OFFCURVE",
"401 661 CURVE SMOOTH",
"485 661 OFFCURVE",
"530 604 OFFCURVE",
"542 538 CURVE",
"501 525 LINE",
"497 570 OFFCURVE",
"461 619 OFFCURVE",
"401 619 CURVE SMOOTH",
"325 619 OFFCURVE",
"252 562 OFFCURVE",
"252 314 CURVE SMOOTH",
"252 95 OFFCURVE",
"336 46 OFFCURVE",
"420 46 CURVE SMOOTH",
"519 46 OFFCURVE",
"555 127 OFFCURVE",
"555 198 CURVE SMOOTH",
"555 256 OFFCURVE",
"528 306 OFFCURVE",
"486 310 CURVE",
"505 343 LINE",
"546 340 OFFCURVE",
"598 284 OFFCURVE",
"598 198 CURVE SMOOTH",
"598 108 OFFCURVE",
"549 3 OFFCURVE",
"420 3 CURVE SMOOTH",
"315 3 OFFCURVE",
"209 60 OFFCURVE"
);
},
{
closed = 1;
nodes = (
"38 320 CURVE SMOOTH",
"38 585 OFFCURVE",
"113 655 OFFCURVE",
"184 655 CURVE SMOOTH",
"252 655 OFFCURVE",
"284 604 OFFCURVE",
"284 536 CURVE",
"246 536 LINE",
"244 590 OFFCURVE",
"218 613 OFFCURVE",
"184 613 CURVE SMOOTH",
"133 613 OFFCURVE",
"80 552 OFFCURVE",
"80 320 CURVE SMOOTH",
"80 127 OFFCURVE",
"118 54 OFFCURVE",
"165 46 CURVE",
"165 3 LINE",
"95 13 OFFCURVE",
"38 97 OFFCURVE"
);
}
);
width = 896;
}
);
unicode = 0D9F;
},
{
glyphname = sinCa;
lastChange = "2021-06-09 01:21:28 +0000";
layers = (
{
layerId = "6114C541-D024-4A3E-9713-6FAF49EAB318";
paths = (
{
closed = 1;
nodes = (
"32 228 CURVE SMOOTH",
"32 277 OFFCURVE",
"46 321 OFFCURVE",
"67 348 CURVE",
"25 348 LINE",
"25 447 LINE",
"327 444 LINE",
"365 348 LINE",
"244 348 LINE SMOOTH",
"179 348 OFFCURVE",
"156 298 OFFCURVE",
"156 244 CURVE SMOOTH",
"156 190 OFFCURVE",
"189 131 OFFCURVE",
"281 131 CURVE SMOOTH",
"400 131 OFFCURVE",
"447 222 OFFCURVE",
"447 403 CURVE SMOOTH",
"447 663 OFFCURVE",
"366 728 OFFCURVE",
"272 728 CURVE SMOOTH",
"225 728 OFFCURVE",
"179 704 OFFCURVE",
"160 656 CURVE",
"36 698 LINE",
"77 806 OFFCURVE",
"173 859 OFFCURVE",
"272 859 CURVE SMOOTH",
"431 859 OFFCURVE",
"579 769 OFFCURVE",
"579 403 CURVE SMOOTH",
"578 134 OFFCURVE",
"486 0 OFFCURVE",
"281 0 CURVE SMOOTH",
"95 0 OFFCURVE",
"32 128 OFFCURVE"
);
},
{
closed = 1;
nodes = (
"64 466 CURVE SMOOTH",
"64 548 OFFCURVE",
"120 605 OFFCURVE",
"205 605 CURVE SMOOTH",
"292 605 OFFCURVE",
"373 540 OFFCURVE",
"373 416 CURVE SMOOTH",
"373 399 OFFCURVE",
"370 370 OFFCURVE",
"365 348 CURVE",
"262 423 LINE",
"263 429 OFFCURVE",
"264 434 OFFCURVE",
"264 440 CURVE SMOOTH",
"264 474 OFFCURVE",
"245 505 OFFCURVE",
"205 505 CURVE SMOOTH",
"176 505 OFFCURVE",
"166 485 OFFCURVE",
"166 461 CURVE SMOOTH",
"166 440 OFFCURVE",
"180 421 OFFCURVE",
"190 405 CURVE",
"99 363 LINE",
"76 399 OFFCURVE",
"64 433 OFFCURVE"
);
}
);
width = 605;
},
{
layerId = "CC11FE7D-5FF0-4B40-9597-DFC61EB94F41";
paths = (
{
closed = 1;
nodes = (
"54 236 CURVE SMOOTH",
"54 352 OFFCURVE",
"111 397 OFFCURVE",
"121 403 CURVE",
"38 403 LINE",
"38 443 LINE",
"348 443 LINE",
"356 403 LINE",
"209 403 LINE SMOOTH",
"150 403 OFFCURVE",
"95 338 OFFCURVE",
"95 237 CURVE SMOOTH",
"95 162 OFFCURVE",
"131 46 OFFCURVE",
"287 46 CURVE SMOOTH",
"433 46 OFFCURVE",
"516 171 OFFCURVE",
"516 403 CURVE SMOOTH",
"516 722 OFFCURVE",
"412 810 OFFCURVE",
"286 810 CURVE SMOOTH",
"205 810 OFFCURVE",
"139 758 OFFCURVE",
"113 688 CURVE",
"74 703 LINE",
"117 815 OFFCURVE",
"218 852 OFFCURVE",
"286 852 CURVE SMOOTH",
"436 852 OFFCURVE",
"559 754 OFFCURVE",
"559 403 CURVE SMOOTH",
"559 144 OFFCURVE",
"460 3 OFFCURVE",
"287 3 CURVE SMOOTH",
"98 3 OFFCURVE",
"54 145 OFFCURVE"
);
},
{
closed = 1;
nodes = (
"92 478 CURVE SMOOTH",
"92 555 OFFCURVE",
"151 596 OFFCURVE",
"218 596 CURVE SMOOTH",
"291 596 OFFCURVE",
"359 547 OFFCURVE",
"359 440 CURVE SMOOTH",
"359 427 OFFCURVE",
"358 415 OFFCURVE",
"356 403 CURVE",
"321 431 LINE",
"321 435 OFFCURVE",
"321 437 OFFCURVE",
"321 440 CURVE",
"321 521 OFFCURVE",
"273 558 OFFCURVE",
"218 558 CURVE SMOOTH",
"170 558 OFFCURVE",
"131 531 OFFCURVE",
"131 478 CURVE SMOOTH",
"131 462 OFFCURVE",
"134 449 OFFCURVE",
"140 437 CURVE",
"107 421 LINE",
"98 437 OFFCURVE",
"92 457 OFFCURVE"
);
}
);
width = 597;
}
);
unicode = 0DA0;
},
{
glyphname = sinCha;
lastChange = "2021-06-09 01:21:28 +0000";
layers = (
{
layerId = "6114C541-D024-4A3E-9713-6FAF49EAB318";
paths = (
{
closed = 1;
nodes = (
"413 655 LINE SMOOTH",
"538 783 OFFCURVE",
"545 824 OFFCURVE",
"545 887 CURVE",
"670 887 LINE",
"670 775 OFFCURVE",
"613 702 OFFCURVE",
"525 611 CURVE SMOOTH"
);
},
{
closed = 1;
nodes = (
"278 532 CURVE SMOOTH",
"278 538 OFFCURVE",
"278 544 OFFCURVE",
"280 550 CURVE SMOOTH",
"302 633 OFFCURVE",
"369 676 OFFCURVE",
"441 676 CURVE SMOOTH",
"539 676 OFFCURVE",
"611 613 OFFCURVE",
"611 465 CURVE SMOOTH",
"611 299 OFFCURVE",
"522 218 OFFCURVE",
"410 218 CURVE SMOOTH",
"328 218 OFFCURVE",
"289 273 OFFCURVE",
"289 322 CURVE SMOOTH",
"289 337 OFFCURVE",
"293 351 OFFCURVE",
"300 364 CURVE",
"401 362 LINE",
"390 359 OFFCURVE",
"384 351 OFFCURVE",
"384 342 CURVE SMOOTH",
"384 329 OFFCURVE",
"395 316 OFFCURVE",
"416 316 CURVE SMOOTH",
"463 316 OFFCURVE",
"505 344 OFFCURVE",
"505 459 CURVE SMOOTH",
"505 540 OFFCURVE",
"472 564 OFFCURVE",
"436 564 CURVE SMOOTH",
"410 564 OFFCURVE",
"377 547 OFFCURVE",
"377 494 CURVE SMOOTH",
"377 488 OFFCURVE",
"378 481 OFFCURVE",
"379 473 CURVE SMOOTH",
"326 362 LINE",
"312 409 OFFCURVE",
"278 484 OFFCURVE"
);
},
{
closed = 1;
nodes = (
"147 255 CURVE SMOOTH",
"147 164 OFFCURVE",
"236 119 OFFCURVE",
"326 119 CURVE SMOOTH",
"416 119 OFFCURVE",
"506 164 OFFCURVE",
"506 255 CURVE SMOOTH",
"506 314 OFFCURVE",
"475 362 OFFCURVE",
"412 362 CURVE SMOOTH",
"241 362 LINE SMOOTH",
"178 362 OFFCURVE",
"147 315 OFFCURVE"
);
},
{
closed = 1;
nodes = (
"25 255 CURVE SMOOTH",
"25 375 OFFCURVE",
"95 473 OFFCURVE",
"234 473 CURVE SMOOTH",
"419 473 LINE SMOOTH",
"558 473 OFFCURVE",
"628 375 OFFCURVE",
"628 255 CURVE SMOOTH",
"628 76 OFFCURVE",
"477 -14 OFFCURVE",
"326 -14 CURVE SMOOTH",
"176 -14 OFFCURVE",
"25 76 OFFCURVE"
);
},
{
closed = 1;
nodes = (
"54 519 CURVE SMOOTH",
"54 606 OFFCURVE",
"113 676 OFFCURVE",
"212 676 CURVE SMOOTH",
"283 676 OFFCURVE",
"350 633 OFFCURVE",
"373 550 CURVE SMOOTH",
"374 544 OFFCURVE",
"375 538 OFFCURVE",
"375 532 CURVE SMOOTH",
"375 484 OFFCURVE",
"341 409 OFFCURVE",
"326 362 CURVE",
"273 473 LINE SMOOTH",
"275 481 OFFCURVE",
"275 488 OFFCURVE",
"275 494 CURVE SMOOTH",
"275 547 OFFCURVE",
"242 564 OFFCURVE",
"216 564 CURVE SMOOTH",
"176 564 OFFCURVE",
"160 541 OFFCURVE",
"160 513 CURVE SMOOTH",
"160 500 OFFCURVE",
"168 477 OFFCURVE",
"177 467 CURVE",
"90 420 LINE",
"67 449 OFFCURVE",
"54 487 OFFCURVE"
);
}
);
width = 644;
},
{
layerId = "CC11FE7D-5FF0-4B40-9597-DFC61EB94F41";
paths = (
{
closed = 1;
nodes = (
"470 654 LINE SMOOTH",
"551 737 OFFCURVE",
"607 803 OFFCURVE",
"607 883 CURVE",
"648 883 LINE",
"648 795 OFFCURVE",
"590 720 OFFCURVE",
"503 629 CURVE SMOOTH"
);
},
{
closed = 1;
nodes = (
"309 517 CURVE SMOOTH",
"309 531 OFFCURVE",
"310 543 OFFCURVE",
"313 555 CURVE SMOOTH",
"327 636 OFFCURVE",
"387 673 OFFCURVE",
"451 673 CURVE SMOOTH",
"559 673 OFFCURVE",
"599 575 OFFCURVE",
"599 485 CURVE SMOOTH",
"599 337 OFFCURVE",
"529 223 OFFCURVE",
"419 223 CURVE SMOOTH",
"342 223 OFFCURVE",
"305 281 OFFCURVE",
"305 340 CURVE SMOOTH",
"305 385 OFFCURVE",
"328 431 OFFCURVE",
"372 450 CURVE",
"395 417 LINE",
"364 405 OFFCURVE",
"348 371 OFFCURVE",
"348 338 CURVE SMOOTH",
"348 299 OFFCURVE",
"370 262 OFFCURVE",
"419 262 CURVE SMOOTH",
"498 262 OFFCURVE",
"560 366 OFFCURVE",
"560 485 CURVE SMOOTH",
"560 549 OFFCURVE",
"527 634 OFFCURVE",
"451 634 CURVE SMOOTH",
"396 634 OFFCURVE",
"348 597 OFFCURVE",
"348 517 CURVE SMOOTH",
"348 495 OFFCURVE",
"348 473 OFFCURVE",
"348 457 CURVE",
"329 420 LINE",
"318 453 OFFCURVE",
"309 480 OFFCURVE"
);
},
{
closed = 1;
nodes = (
"80 255 CURVE SMOOTH",
"80 122 OFFCURVE",
"178 34 OFFCURVE",
"329 34 CURVE SMOOTH",
"480 34 OFFCURVE",
"578 122 OFFCURVE",
"578 255 CURVE SMOOTH",
"578 341 OFFCURVE",
"534 415 OFFCURVE",
"438 415 CURVE SMOOTH",
"219 415 LINE SMOOTH",
"123 415 OFFCURVE",
"80 341 OFFCURVE"
);
},
{
closed = 1;
nodes = (
"38 255 CURVE SMOOTH",
"38 364 OFFCURVE",
"98 457 OFFCURVE",
"219 457 CURVE SMOOTH",
"438 457 LINE SMOOTH",
"560 457 OFFCURVE",
"620 363 OFFCURVE",
"620 255 CURVE SMOOTH",
"620 96 OFFCURVE",
"506 -8 OFFCURVE",
"329 -8 CURVE SMOOTH",
"152 -8 OFFCURVE",
"38 97 OFFCURVE"
);
},
{
closed = 1;
nodes = (
"74 539 CURVE SMOOTH",
"74 629 OFFCURVE",
"142 673 OFFCURVE",
"206 673 CURVE SMOOTH",
"270 673 OFFCURVE",
"330 636 OFFCURVE",
"345 555 CURVE SMOOTH",
"347 543 OFFCURVE",
"348 531 OFFCURVE",
"348 517 CURVE SMOOTH",
"348 480 OFFCURVE",
"340 453 OFFCURVE",
"329 420 CURVE",
"309 457 LINE",
"310 473 OFFCURVE",
"310 495 OFFCURVE",
"309 517 CURVE SMOOTH",
"309 597 OFFCURVE",
"261 634 OFFCURVE",
"206 634 CURVE SMOOTH",
"160 634 OFFCURVE",
"112 603 OFFCURVE",
"112 539 CURVE SMOOTH",
"112 498 OFFCURVE",
"132 457 OFFCURVE",
"163 435 CURVE",
"133 411 LINE",
"97 439 OFFCURVE",
"74 489 OFFCURVE"
);
}
);
width = 686;
}
);
unicode = 0DA1;
},
{
glyphname = sinJa;
lastChange = "2021-06-09 01:21:28 +0000";
layers = (
{
layerId = "6114C541-D024-4A3E-9713-6FAF49EAB318";
paths = (
{
closed = 1;
nodes = (
"413 655 LINE SMOOTH",
"538 783 OFFCURVE",
"545 824 OFFCURVE",
"545 887 CURVE",
"670 887 LINE",
"670 775 OFFCURVE",
"613 702 OFFCURVE",
"525 611 CURVE SMOOTH"
);
},
{
closed = 1;
nodes = (
"278 532 CURVE SMOOTH",
"278 538 OFFCURVE",
"278 544 OFFCURVE",
"280 550 CURVE SMOOTH",
"302 633 OFFCURVE",
"369 676 OFFCURVE",
"441 676 CURVE SMOOTH",
"539 676 OFFCURVE",
"599 606 OFFCURVE",
"599 519 CURVE SMOOTH",
"599 487 OFFCURVE",
"586 449 OFFCURVE",
"563 420 CURVE",
"476 467 LINE",
"485 477 OFFCURVE",
"492 500 OFFCURVE",
"492 513 CURVE SMOOTH",
"492 541 OFFCURVE",
"476 564 OFFCURVE",
"436 564 CURVE SMOOTH",
"410 564 OFFCURVE",
"377 547 OFFCURVE",
"377 494 CURVE SMOOTH",
"377 488 OFFCURVE",
"378 481 OFFCURVE",
"379 473 CURVE SMOOTH",
"326 362 LINE",
"312 409 OFFCURVE",
"278 484 OFFCURVE"
);
},
{
closed = 1;
nodes = (
"147 255 CURVE SMOOTH",
"147 164 OFFCURVE",
"236 119 OFFCURVE",
"326 119 CURVE SMOOTH",
"416 119 OFFCURVE",
"506 164 OFFCURVE",
"506 255 CURVE SMOOTH",
"506 314 OFFCURVE",
"475 362 OFFCURVE",
"412 362 CURVE SMOOTH",
"241 362 LINE SMOOTH",
"178 362 OFFCURVE",
"147 314 OFFCURVE"
);
},
{
closed = 1;
nodes = (
"25 255 CURVE SMOOTH",
"25 375 OFFCURVE",
"95 473 OFFCURVE",
"234 473 CURVE SMOOTH",
"419 473 LINE SMOOTH",
"558 473 OFFCURVE",
"628 375 OFFCURVE",
"628 255 CURVE SMOOTH",
"628 76 OFFCURVE",
"477 -14 OFFCURVE",
"326 -14 CURVE SMOOTH",
"176 -14 OFFCURVE",
"25 76 OFFCURVE"
);
},
{
closed = 1;
nodes = (
"54 519 CURVE SMOOTH",
"54 606 OFFCURVE",
"113 676 OFFCURVE",
"212 676 CURVE SMOOTH",
"283 676 OFFCURVE",
"350 633 OFFCURVE",
"373 550 CURVE SMOOTH",
"374 544 OFFCURVE",
"375 538 OFFCURVE",
"375 532 CURVE SMOOTH",
"375 484 OFFCURVE",
"341 409 OFFCURVE",
"326 362 CURVE",
"273 473 LINE SMOOTH",
"275 481 OFFCURVE",
"275 488 OFFCURVE",
"275 494 CURVE SMOOTH",
"275 547 OFFCURVE",
"242 564 OFFCURVE",
"216 564 CURVE SMOOTH",
"176 564 OFFCURVE",
"160 541 OFFCURVE",
"160 513 CURVE SMOOTH",
"160 500 OFFCURVE",
"168 477 OFFCURVE",
"177 467 CURVE",
"90 420 LINE",
"67 449 OFFCURVE",
"54 487 OFFCURVE"
);
}
);
width = 644;
},
{
layerId = "CC11FE7D-5FF0-4B40-9597-DFC61EB94F41";
paths = (
{
closed = 1;
nodes = (
"470 654 LINE SMOOTH",
"551 737 OFFCURVE",
"607 803 OFFCURVE",
"607 883 CURVE",
"648 883 LINE",
"648 795 OFFCURVE",
"590 720 OFFCURVE",
"503 629 CURVE SMOOTH"
);
},
{
closed = 1;
nodes = (
"309 517 CURVE SMOOTH",
"309 531 OFFCURVE",
"310 543 OFFCURVE",
"313 555 CURVE SMOOTH",
"327 636 OFFCURVE",
"387 673 OFFCURVE",
"451 673 CURVE SMOOTH",
"515 673 OFFCURVE",
"583 629 OFFCURVE",
"583 539 CURVE SMOOTH",
"583 489 OFFCURVE",
"560 439 OFFCURVE",
"524 411 CURVE",
"495 435 LINE",
"525 457 OFFCURVE",
"545 498 OFFCURVE",
"545 539 CURVE SMOOTH",
"545 603 OFFCURVE",
"497 634 OFFCURVE",
"451 634 CURVE SMOOTH",
"396 634 OFFCURVE",
"348 597 OFFCURVE",
"348 517 CURVE SMOOTH",
"348 495 OFFCURVE",
"348 473 OFFCURVE",
"348 457 CURVE",
"329 420 LINE",
"318 453 OFFCURVE",
"309 480 OFFCURVE"
);
},
{
closed = 1;
nodes = (
"80 255 CURVE SMOOTH",
"80 122 OFFCURVE",
"178 34 OFFCURVE",
"329 34 CURVE SMOOTH",
"480 34 OFFCURVE",
"578 122 OFFCURVE",
"578 255 CURVE SMOOTH",
"578 341 OFFCURVE",
"534 415 OFFCURVE",
"438 415 CURVE SMOOTH",
"219 415 LINE SMOOTH",
"123 415 OFFCURVE",
"80 341 OFFCURVE"
);
},
{
closed = 1;
nodes = (
"38 255 CURVE SMOOTH",
"38 364 OFFCURVE",
"98 457 OFFCURVE",
"219 457 CURVE SMOOTH",
"438 457 LINE SMOOTH",
"560 457 OFFCURVE",
"620 363 OFFCURVE",
"620 255 CURVE SMOOTH",
"620 96 OFFCURVE",
"506 -8 OFFCURVE",
"329 -8 CURVE SMOOTH",
"152 -8 OFFCURVE",
"38 97 OFFCURVE"
);
},
{
closed = 1;
nodes = (
"74 539 CURVE SMOOTH",
"74 629 OFFCURVE",
"142 673 OFFCURVE",
"206 673 CURVE SMOOTH",
"270 673 OFFCURVE",
"330 636 OFFCURVE",
"345 555 CURVE SMOOTH",
"347 543 OFFCURVE",
"348 531 OFFCURVE",
"348 517 CURVE SMOOTH",
"348 480 OFFCURVE",
"340 453 OFFCURVE",
"329 420 CURVE",
"309 457 LINE",
"309 473 OFFCURVE",
"309 495 OFFCURVE",
"309 517 CURVE SMOOTH",
"309 597 OFFCURVE",
"261 634 OFFCURVE",
"206 634 CURVE SMOOTH",
"160 634 OFFCURVE",
"112 603 OFFCURVE",
"112 539 CURVE SMOOTH",
"112 498 OFFCURVE",
"132 457 OFFCURVE",
"163 435 CURVE",
"133 411 LINE",
"97 439 OFFCURVE",
"74 489 OFFCURVE"
);
}
);
width = 686;
}
);
unicode = 0DA2;
},
{
glyphname = sinJha;
lastChange = "2021-06-09 01:21:28 +0000";
layers = (
{
components = (
{
name = sinKa.half;
}
);
layerId = "6114C541-D024-4A3E-9713-6FAF49EAB318";
paths = (
{
closed = 1;
nodes = (
"787 0 OFFCURVE",
"832 36 OFFCURVE",
"851 90 CURVE",
"868 38 OFFCURVE",
"911 0 OFFCURVE",
"974 0 CURVE SMOOTH",
"1169 0 OFFCURVE",
"1170 207 OFFCURVE",
"1170 333 CURVE SMOOTH",
"1170 682 OFFCURVE",
"1080 859 OFFCURVE",
"833 859 CURVE SMOOTH",
"734 859 OFFCURVE",
"629 806 OFFCURVE",
"589 698 CURVE",
"713 656 LINE",
"732 704 OFFCURVE",
"786 728 OFFCURVE",
"833 728 CURVE SMOOTH",
"990 728 OFFCURVE",
"1039 595 OFFCURVE",
"1039 333 CURVE SMOOTH",
"1039 273 OFFCURVE",
"1039 131 OFFCURVE",
"974 131 CURVE SMOOTH",
"925 131 OFFCURVE",
"908 201 OFFCURVE",
"908 284 CURVE",
"799 284 LINE",
"799 204 OFFCURVE",
"782 130 OFFCURVE",
"734 130 CURVE SMOOTH",
"696 130 OFFCURVE",
"685 199 OFFCURVE",
"685 261 CURVE SMOOTH",
"685 298 OFFCURVE",
"689 332 OFFCURVE",
"694 348 CURVE SMOOTH",
"704 383 OFFCURVE",
"727 406 OFFCURVE",
"758 406 CURVE SMOOTH",
"771 406 OFFCURVE",
"785 402 OFFCURVE",
"801 393 CURVE",
"844 507 LINE",
"812 529 OFFCURVE",
"779 537 OFFCURVE",
"747 537 CURVE SMOOTH",
"665 537 OFFCURVE",
"602 481 OFFCURVE",
"574 393 CURVE SMOOTH",
"565 364 OFFCURVE",
"558 316 OFFCURVE",
"558 263 CURVE SMOOTH",
"558 144 OFFCURVE",
"595 0 OFFCURVE",
"727 0 CURVE SMOOTH"
);
}
);
width = 1195;
},
{
components = (
{
name = sinKa.half;
}
);
layerId = "CC11FE7D-5FF0-4B40-9597-DFC61EB94F41";
paths = (
{
closed = 1;
nodes = (
"800 3 OFFCURVE",
"822 97 OFFCURVE",
"826 131 CURVE",
"831 97 OFFCURVE",
"852 3 OFFCURVE",
"961 3 CURVE SMOOTH",
"1105 3 OFFCURVE",
"1116 165 OFFCURVE",
"1116 333 CURVE SMOOTH",
"1116 685 OFFCURVE",
"1018 852 OFFCURVE",
"815 852 CURVE SMOOTH",
"718 852 OFFCURVE",
"623 788 OFFCURVE",
"591 703 CURVE",
"630 688 LINE",
"656 758 OFFCURVE",
"734 810 OFFCURVE",
"815 810 CURVE SMOOTH",
"989 810 OFFCURVE",
"1074 657 OFFCURVE",
"1074 333 CURVE SMOOTH",
"1074 187 OFFCURVE",
"1066 46 OFFCURVE",
"961 46 CURVE SMOOTH",
"857 46 OFFCURVE",
"849 169 OFFCURVE",
"846 255 CURVE",
"807 255 LINE",
"803 169 OFFCURVE",
"796 46 OFFCURVE",
"692 46 CURVE SMOOTH",
"615 46 OFFCURVE",
"590 149 OFFCURVE",
"590 244 CURVE SMOOTH",
"590 294 OFFCURVE",
"600 340 OFFCURVE",
"616 377 CURVE SMOOTH",
"641 432 OFFCURVE",
"681 467 OFFCURVE",
"725 467 CURVE SMOOTH",
"741 467 OFFCURVE",
"756 463 OFFCURVE",
"772 455 CURVE",
"790 492 LINE",
"768 503 OFFCURVE",
"747 508 OFFCURVE",
"725 508 CURVE SMOOTH",
"668 508 OFFCURVE",
"614 467 OFFCURVE",
"581 398 CURVE SMOOTH",
"560 356 OFFCURVE",
"548 303 OFFCURVE",
"548 244 CURVE SMOOTH",
"548 132 OFFCURVE",
"581 3 OFFCURVE",
"692 3 CURVE SMOOTH"
);
}
);
width = 1152;
}
);
unicode = 0DA3;
},
{
glyphname = sinNya;
lastChange = "2021-06-09 01:21:28 +0000";
layers = (
{
layerId = "6114C541-D024-4A3E-9713-6FAF49EAB318";
paths = (
{
closed = 1;
nodes = (
"358 233 LINE",
"454 330 OFFCURVE",
"581 473 OFFCURVE",
"581 473 CURVE",
"627 523 OFFCURVE",
"680 538 OFFCURVE",
"729 538 CURVE SMOOTH",
"795 538 OFFCURVE",
"851 510 OFFCURVE",
"867 464 CURVE",
"962 503 LINE",
"909 622 OFFCURVE",
"830 666 OFFCURVE",
"729 666 CURVE SMOOTH",
"638 666 OFFCURVE",
"556 623 OFFCURVE",
"499 556 CURVE SMOOTH",
"249 264 LINE",
"254 143 LINE"
);
},
{
closed = 1;
nodes = (
"211 116 LINE",
"173 116 OFFCURVE",
"146 150 OFFCURVE",
"146 323 CURVE SMOOTH",
"146 484 OFFCURVE",
"181 546 OFFCURVE",
"220 546 CURVE SMOOTH",
"263 546 OFFCURVE",
"279 504 OFFCURVE",
"285 485 CURVE",
"346 554 LINE",
"336 600 OFFCURVE",
"293 665 OFFCURVE",
"214 665 CURVE SMOOTH",
"110 665 OFFCURVE",
"25 576 OFFCURVE",
"25 323 CURVE SMOOTH",
"25 53 OFFCURVE",
"102 0 OFFCURVE",
"211 0 CURVE"
);
},
{
closed = 1;
nodes = (
"452 0 OFFCURVE",
"483 35 OFFCURVE",
"493 59 CURVE",
"505 33 OFFCURVE",
"537 0 OFFCURVE",
"591 0 CURVE SMOOTH",
"702 0 OFFCURVE",
"747 127 OFFCURVE",
"747 239 CURVE SMOOTH",
"747 455 OFFCURVE",
"657 488 OFFCURVE",
"582 488 CURVE SMOOTH",
"511 488 OFFCURVE",
"469 473 OFFCURVE",
"428 407 CURVE",
"484 366 LINE",
"496 377 OFFCURVE",
"510 390 OFFCURVE",
"541 390 CURVE SMOOTH",
"585 390 OFFCURVE",
"625 350 OFFCURVE",
"625 239 CURVE SMOOTH",
"625 189 OFFCURVE",
"620 124 OFFCURVE",
"580 124 CURVE SMOOTH",
"558 124 OFFCURVE",
"544 139 OFFCURVE",
"544 182 CURVE SMOOTH",
"544 258 LINE",
"441 258 LINE",
"441 182 LINE SMOOTH",
"441 135 OFFCURVE",
"423 124 OFFCURVE",
"406 124 CURVE SMOOTH",
"378 124 OFFCURVE",
"376 158 OFFCURVE",
"376 178 CURVE",
"376 188 LINE SMOOTH",
"374 214 OFFCURVE",
"368 222 OFFCURVE",
"361 230 CURVE SMOOTH",
"357 234 LINE",
"270 218 LINE",
"254 143 LINE",
"258 145 OFFCURVE",
"262 146 OFFCURVE",
"266 146 CURVE SMOOTH",
"277 146 OFFCURVE",
"284 137 OFFCURVE",
"287 121 CURVE SMOOTH",
"289 113 OFFCURVE",
"290 105 OFFCURVE",
"290 94 CURVE SMOOTH",
"290 52 OFFCURVE",
"314 0 OFFCURVE",
"402 0 CURVE SMOOTH"
);
},
{
closed = 1;
nodes = (
"416 441 LINE",
"381 449 OFFCURVE",
"351 469 OFFCURVE",
"351 514 CURVE SMOOTH",
"351 541 OFFCURVE",
"366 564 OFFCURVE",
"398 564 CURVE SMOOTH",
"430 564 OFFCURVE",
"457 537 OFFCURVE",
"457 494 CURVE SMOOTH",
"457 427 LINE",
"568 487 LINE",
"568 611 OFFCURVE",
"487 676 OFFCURVE",
"399 676 CURVE SMOOTH",
"300 676 OFFCURVE",
"245 606 OFFCURVE",
"245 525 CURVE SMOOTH",
"245 446 OFFCURVE",
"296 392 OFFCURVE",
"348 373 CURVE"
);
},
{
closed = 1;
nodes = (
"1151 -230 OFFCURVE",
"1213 -200 OFFCURVE",
"1265 -121 CURVE",
"1178 -62 LINE",
"1152 -97 OFFCURVE",
"1122 -110 OFFCURVE",
"1094 -110 CURVE SMOOTH",
"1057 -110 OFFCURVE",
"1039 -81 OFFCURVE",
"1039 -49 CURVE SMOOTH",
"1039 -30 OFFCURVE",
"1046 -10 OFFCURVE",
"1058 5 CURVE",
"1047 51 LINE",
"945 25 LINE",
"926 -5 OFFCURVE",
"918 -36 OFFCURVE",
"918 -66 CURVE SMOOTH",
"918 -153 OFFCURVE",
"989 -230 OFFCURVE",
"1094 -230 CURVE SMOOTH"
);
},
{
closed = 1;
nodes = (
"1094 0 OFFCURVE",
"1165 41 OFFCURVE",
"1211 106 CURVE",
"1113 177 LINE",
"1090 150 OFFCURVE",
"1054 132 OFFCURVE",
"1014 132 CURVE SMOOTH",
"948 132 OFFCURVE",
"894 182 OFFCURVE",
"894 247 CURVE SMOOTH",
"894 312 OFFCURVE",
"950 362 OFFCURVE",
"1014 362 CURVE SMOOTH",
"1161 362 LINE",
"1174 406 OFFCURVE",
"1182 454 OFFCURVE",
"1182 489 CURVE SMOOTH",
"1182 614 OFFCURVE",
"1101 678 OFFCURVE",
"1014 678 CURVE SMOOTH",
"915 678 OFFCURVE",
"856 608 OFFCURVE",
"856 522 CURVE SMOOTH",
"856 490 OFFCURVE",
"865 460 OFFCURVE",
"887 431 CURVE",
"975 476 LINE",
"966 486 OFFCURVE",
"962 502 OFFCURVE",
"962 516 CURVE SMOOTH",
"962 543 OFFCURVE",
"980 567 OFFCURVE",
"1014 567 CURVE SMOOTH",
"1046 567 OFFCURVE",
"1071 539 OFFCURVE",
"1071 497 CURVE SMOOTH",
"1071 490 OFFCURVE",
"1071 483 OFFCURVE",
"1070 476 CURVE",
"1049 478 OFFCURVE",
"1035 480 OFFCURVE",
"1014 480 CURVE SMOOTH",
"877 480 OFFCURVE",
"767 377 OFFCURVE",
"767 247 CURVE SMOOTH",
"767 110 OFFCURVE",
"877 0 OFFCURVE",
"1014 0 CURVE SMOOTH"
);
}
);
width = 1208;
},
{
layerId = "CC11FE7D-5FF0-4B40-9597-DFC61EB94F41";
paths = (
{
closed = 1;
nodes = (
"283 206 LINE",
"360 302 OFFCURVE",
"435 397 OFFCURVE",
"511 493 CURVE SMOOTH",
"562 558 OFFCURVE",
"622 609 OFFCURVE",
"695 609 CURVE SMOOTH",
"757 609 OFFCURVE",
"818 572 OFFCURVE",
"839 504 CURVE",
"875 511 LINE",
"853 600 OFFCURVE",
"773 651 OFFCURVE",
"695 651 CURVE SMOOTH",
"611 651 OFFCURVE",
"539 595 OFFCURVE",
"480 521 CURVE SMOOTH",
"232 209 LINE",
"260 176 LINE"
);
},
{
closed = 1;
nodes = (
"165 49 LINE",
"127 56 OFFCURVE",
"80 130 OFFCURVE",
"80 323 CURVE SMOOTH",
"80 509 OFFCURVE",
"115 617 OFFCURVE",
"171 617 CURVE SMOOTH",
"206 617 OFFCURVE",
"234 594 OFFCURVE",
"235 539 CURVE",
"274 539 LINE",
"274 608 OFFCURVE",
"240 659 OFFCURVE",
"171 659 CURVE SMOOTH",
"106 659 OFFCURVE",
"38 588 OFFCURVE",
"38 323 CURVE SMOOTH",
"38 100 OFFCURVE",
"95 16 OFFCURVE",
"165 7 CURVE"
);
},
{
closed = 1;
nodes = (
"444 3 OFFCURVE",
"470 55 OFFCURVE",
"470 90 CURVE",
"471 55 OFFCURVE",
"499 3 OFFCURVE",
"565 3 CURVE SMOOTH",
"683 3 OFFCURVE",
"697 140 OFFCURVE",
"697 223 CURVE SMOOTH",
"697 413 OFFCURVE",
"619 483 OFFCURVE",
"529 483 CURVE SMOOTH",
"487 483 OFFCURVE",
"454 457 OFFCURVE",
"427 435 CURVE",
"443 410 LINE",
"463 427 OFFCURVE",
"484 441 OFFCURVE",
"529 441 CURVE SMOOTH",
"596 441 OFFCURVE",
"655 383 OFFCURVE",
"655 223 CURVE SMOOTH",
"655 179 OFFCURVE",
"652 46 OFFCURVE",
"565 46 CURVE SMOOTH",
"506 46 OFFCURVE",
"491 114 OFFCURVE",
"490 181 CURVE SMOOTH",
"490 193 LINE",
"449 193 LINE",
"449 181 LINE SMOOTH",
"448 114 OFFCURVE",
"433 46 OFFCURVE",
"374 46 CURVE SMOOTH",
"328 46 OFFCURVE",
"317 78 OFFCURVE",
"317 119 CURVE SMOOTH",
"317 146 LINE SMOOTH",
"317 177 OFFCURVE",
"315 217 OFFCURVE",
"292 217 CURVE SMOOTH",
"287 217 LINE",
"268 209 LINE",
"260 176 LINE",
"263 179 OFFCURVE",
"266 180 OFFCURVE",
"268 180 CURVE SMOOTH",
"277 180 OFFCURVE",
"279 164 OFFCURVE",
"279 148 CURVE SMOOTH",
"279 137 OFFCURVE",
"278 126 OFFCURVE",
"278 119 CURVE SMOOTH",
"278 55 OFFCURVE",
"297 3 OFFCURVE",
"374 3 CURVE SMOOTH"
);
},
{
closed = 1;
nodes = (
"410 405 LINE",
"323 419 OFFCURVE",
"274 464 OFFCURVE",
"274 539 CURVE SMOOTH",
"274 603 OFFCURVE",
"322 634 OFFCURVE",
"368 634 CURVE SMOOTH",
"423 634 OFFCURVE",
"471 597 OFFCURVE",
"471 517 CURVE SMOOTH",
"471 457 LINE",
"509 517 LINE",
"509 624 OFFCURVE",
"441 673 OFFCURVE",
"368 673 CURVE SMOOTH",
"303 673 OFFCURVE",
"235 629 OFFCURVE",
"235 539 CURVE SMOOTH",
"235 444 OFFCURVE",
"302 385 OFFCURVE",
"401 370 CURVE"
);
},
{
closed = 1;
nodes = (
"1118 -219 OFFCURVE",
"1166 -187 OFFCURVE",
"1206 -120 CURVE",
"1173 -94 LINE",
"1141 -151 OFFCURVE",
"1102 -178 OFFCURVE",
"1042 -178 CURVE SMOOTH",
"979 -178 OFFCURVE",
"933 -127 OFFCURVE",
"933 -65 CURVE SMOOTH",
"933 -35 OFFCURVE",
"938 -10 OFFCURVE",
"963 19 CURVE",
"961 41 LINE",
"928 39 LINE",
"900 2 OFFCURVE",
"891 -28 OFFCURVE",
"891 -65 CURVE SMOOTH",
"891 -147 OFFCURVE",
"951 -219 OFFCURVE",
"1042 -219 CURVE SMOOTH"
);
},
{
closed = 1;
nodes = (
"1030 3 OFFCURVE",
"1102 36 OFFCURVE",
"1148 104 CURVE",
"1115 130 LINE",
"1077 74 OFFCURVE",
"1018 48 OFFCURVE",
"960 48 CURVE SMOOTH",
"866 48 OFFCURVE",
"773 116 OFFCURVE",
"773 241 CURVE SMOOTH",
"773 336 OFFCURVE",
"842 426 OFFCURVE",
"955 426 CURVE SMOOTH",
"1093 426 LINE",
"1103 455 OFFCURVE",
"1109 483 OFFCURVE",
"1109 517 CURVE SMOOTH",
"1109 624 OFFCURVE",
"1041 673 OFFCURVE",
"967 673 CURVE SMOOTH",
"903 673 OFFCURVE",
"835 629 OFFCURVE",
"835 539 CURVE SMOOTH",
"835 477 OFFCURVE",
"867 440 OFFCURVE",
"881 428 CURVE",
"908 453 LINE",
"898 463 OFFCURVE",
"873 491 OFFCURVE",
"873 539 CURVE SMOOTH",
"873 603 OFFCURVE",
"921 634 OFFCURVE",
"967 634 CURVE SMOOTH",
"1022 634 OFFCURVE",
"1070 597 OFFCURVE",
"1070 517 CURVE SMOOTH",
"1070 499 OFFCURVE",
"1067 480 OFFCURVE",
"1064 468 CURVE",
"1028 468 OFFCURVE",
"991 468 OFFCURVE",
"955 468 CURVE SMOOTH",
"814 468 OFFCURVE",
"731 356 OFFCURVE",
"731 241 CURVE SMOOTH",
"731 88 OFFCURVE",
"844 3 OFFCURVE",
"959 3 CURVE SMOOTH"
);
}
);
width = 1172;
}
);
unicode = 0DA4;
},
{
glyphname = sinJnya;
lastChange = "2021-06-09 01:21:28 +0000";
layers = (
{
layerId = "6114C541-D024-4A3E-9713-6FAF49EAB318";
paths = (
{
closed = 1;
nodes = (
"845 -66 CURVE SMOOTH",
"845 -36 OFFCURVE",
"853 -5 OFFCURVE",
"872 25 CURVE",
"974 51 LINE",
"986 5 LINE",
"973 -10 OFFCURVE",
"966 -30 OFFCURVE",
"966 -49 CURVE SMOOTH",
"966 -81 OFFCURVE",
"984 -110 OFFCURVE",
"1021 -110 CURVE SMOOTH",
"1049 -110 OFFCURVE",
"1079 -97 OFFCURVE",
"1105 -62 CURVE",
"1193 -121 LINE",
"1140 -200 OFFCURVE",
"1078 -230 OFFCURVE",
"1021 -230 CURVE SMOOTH",
"916 -230 OFFCURVE",
"845 -153 OFFCURVE"
);
},
{
closed = 1;
nodes = (
"694 247 CURVE SMOOTH",
"694 377 OFFCURVE",
"804 480 OFFCURVE",
"941 480 CURVE SMOOTH",
"963 480 OFFCURVE",
"976 478 OFFCURVE",
"997 476 CURVE",
"998 483 OFFCURVE",
"998 490 OFFCURVE",
"998 497 CURVE SMOOTH",
"998 539 OFFCURVE",
"973 567 OFFCURVE",
"941 567 CURVE SMOOTH",
"907 567 OFFCURVE",
"889 543 OFFCURVE",
"889 516 CURVE SMOOTH",
"889 502 OFFCURVE",
"893 486 OFFCURVE",
"902 476 CURVE",
"814 431 LINE",
"792 460 OFFCURVE",
"783 490 OFFCURVE",
"783 522 CURVE SMOOTH",
"783 608 OFFCURVE",
"842 678 OFFCURVE",
"941 678 CURVE SMOOTH",
"1028 678 OFFCURVE",
"1110 614 OFFCURVE",
"1110 489 CURVE SMOOTH",
"1110 454 OFFCURVE",
"1102 406 OFFCURVE",
"1088 362 CURVE",
"1088 362 OFFCURVE",
"996 362 OFFCURVE",
"941 362 CURVE SMOOTH",
"877 362 OFFCURVE",
"822 312 OFFCURVE",
"822 247 CURVE SMOOTH",
"822 182 OFFCURVE",
"875 132 OFFCURVE",
"941 132 CURVE SMOOTH",
"981 132 OFFCURVE",
"1017 150 OFFCURVE",
"1040 177 CURVE",
"1138 106 LINE",
"1092 41 OFFCURVE",
"1021 0 OFFCURVE",
"941 0 CURVE SMOOTH",
"804 0 OFFCURVE",
"694 110 OFFCURVE"
);
},
{
closed = 1;
nodes = (
"443 342 LINE",
"497 376 OFFCURVE",
"500 412 OFFCURVE",
"500 446 CURVE SMOOTH",
"500 454 OFFCURVE",
"500 461 OFFCURVE",
"500 468 CURVE SMOOTH",
"509 602 OFFCURVE",
"601 665 OFFCURVE",
"700 665 CURVE SMOOTH",
"799 665 OFFCURVE",
"869 607 OFFCURVE",
"890 505 CURVE SMOOTH",
"790 477 LINE SMOOTH",
"782 512 OFFCURVE",
"746 543 OFFCURVE",
"700 543 CURVE SMOOTH",
"639 543 OFFCURVE",
"620 509 OFFCURVE",
"616 443 CURVE SMOOTH",
"616 433 OFFCURVE",
"616 423 OFFCURVE",
"616 412 CURVE SMOOTH",
"616 326 OFFCURVE",
"564 289 OFFCURVE",
"496 250 CURVE"
);
},
{
closed = 1;
nodes = (
"222 332 CURVE SMOOTH",
"222 586 OFFCURVE",
"318 665 OFFCURVE",
"436 665 CURVE SMOOTH",
"523 665 OFFCURVE",
"570 608 OFFCURVE",
"580 567 CURVE",
"506 485 LINE",
"501 504 OFFCURVE",
"484 544 OFFCURVE",
"436 544 CURVE SMOOTH",
"387 544 OFFCURVE",
"346 494 OFFCURVE",
"346 332 CURVE SMOOTH",
"346 164 OFFCURVE",
"399 122 OFFCURVE",
"455 122 CURVE SMOOTH",
"525 122 OFFCURVE",
"546 166 OFFCURVE",
"546 210 CURVE SMOOTH",
"546 249 OFFCURVE",
"528 263 OFFCURVE",
"514 269 CURVE",
"586 348 LINE",
"627 335 OFFCURVE",
"662 277 OFFCURVE",
"662 215 CURVE SMOOTH",
"662 108 OFFCURVE",
"604 0 OFFCURVE",
"455 0 CURVE SMOOTH",
"333 0 OFFCURVE",
"222 66 OFFCURVE"
);
},
{
closed = 1;
nodes = (
"25 323 CURVE SMOOTH",
"25 576 OFFCURVE",
"110 665 OFFCURVE",
"214 665 CURVE SMOOTH",
"293 665 OFFCURVE",
"336 600 OFFCURVE",
"346 554 CURVE",
"285 485 LINE",
"279 504 OFFCURVE",
"263 546 OFFCURVE",
"220 546 CURVE SMOOTH",
"181 546 OFFCURVE",
"146 484 OFFCURVE",
"146 323 CURVE SMOOTH",
"146 150 OFFCURVE",
"173 116 OFFCURVE",
"211 116 CURVE SMOOTH",
"211 0 LINE SMOOTH",
"102 0 OFFCURVE",
"25 53 OFFCURVE"
);
}
);
width = 1136;
},
{
layerId = "CC11FE7D-5FF0-4B40-9597-DFC61EB94F41";
paths = (
{
closed = 1;
nodes = (
"799 -65 CURVE SMOOTH",
"799 -28 OFFCURVE",
"807 2 OFFCURVE",
"836 39 CURVE",
"869 41 LINE",
"871 19 LINE",
"846 -10 OFFCURVE",
"841 -35 OFFCURVE",
"841 -65 CURVE SMOOTH",
"841 -127 OFFCURVE",
"887 -178 OFFCURVE",
"949 -178 CURVE SMOOTH",
"1010 -178 OFFCURVE",
"1049 -151 OFFCURVE",
"1081 -94 CURVE",
"1114 -120 LINE",
"1074 -187 OFFCURVE",
"1026 -219 OFFCURVE",
"949 -219 CURVE SMOOTH",
"859 -219 OFFCURVE",
"799 -147 OFFCURVE"
);
},
{
closed = 1;
nodes = (
"639 241 CURVE SMOOTH",
"639 356 OFFCURVE",
"722 468 OFFCURVE",
"863 468 CURVE SMOOTH",
"891 468 OFFCURVE",
"945 468 OFFCURVE",
"972 468 CURVE",
"975 480 OFFCURVE",
"978 499 OFFCURVE",
"978 517 CURVE SMOOTH",
"978 597 OFFCURVE",
"930 634 OFFCURVE",
"875 634 CURVE SMOOTH",
"829 634 OFFCURVE",
"781 603 OFFCURVE",
"781 539 CURVE SMOOTH",
"781 491 OFFCURVE",
"806 463 OFFCURVE",
"816 453 CURVE",
"789 428 LINE",
"775 440 OFFCURVE",
"743 477 OFFCURVE",
"743 539 CURVE SMOOTH",
"743 629 OFFCURVE",
"811 673 OFFCURVE",
"875 673 CURVE SMOOTH",
"949 673 OFFCURVE",
"1017 624 OFFCURVE",
"1017 517 CURVE SMOOTH",
"1017 483 OFFCURVE",
"1011 455 OFFCURVE",
"1001 426 CURVE",
"1001 426 OFFCURVE",
"912 426 OFFCURVE",
"863 426 CURVE SMOOTH",
"750 426 OFFCURVE",
"681 336 OFFCURVE",
"681 241 CURVE SMOOTH",
"681 116 OFFCURVE",
"774 48 OFFCURVE",
"868 48 CURVE SMOOTH",
"926 48 OFFCURVE",
"985 74 OFFCURVE",
"1022 130 CURVE",
"1056 104 LINE",
"1010 36 OFFCURVE",
"938 3 OFFCURVE",
"867 3 CURVE SMOOTH",
"752 3 OFFCURVE",
"639 88 OFFCURVE"
);
},
{
closed = 1;
nodes = (
"425 314 LINE",
"476 337 OFFCURVE",
"483 385 OFFCURVE",
"483 421 CURVE SMOOTH",
"483 435 OFFCURVE",
"482 448 OFFCURVE",
"482 456 CURVE SMOOTH",
"482 584 OFFCURVE",
"556 661 OFFCURVE",
"642 661 CURVE SMOOTH",
"715 661 OFFCURVE",
"781 619 OFFCURVE",
"781 539 CURVE SMOOTH",
"743 539 LINE SMOOTH",
"743 586 OFFCURVE",
"696 619 OFFCURVE",
"642 619 CURVE SMOOTH",
"563 619 OFFCURVE",
"524 540 OFFCURVE",
"524 456 CURVE SMOOTH",
"524 447 OFFCURVE",
"525 435 OFFCURVE",
"525 422 CURVE SMOOTH",
"525 374 OFFCURVE",
"516 310 OFFCURVE",
"439 281 CURVE"
);
},
{
closed = 1;
nodes = (
"202 314 CURVE SMOOTH",
"202 596 OFFCURVE",
"296 661 OFFCURVE",
"394 661 CURVE SMOOTH",
"477 661 OFFCURVE",
"523 604 OFFCURVE",
"534 538 CURVE",
"493 525 LINE",
"490 570 OFFCURVE",
"454 619 OFFCURVE",
"394 619 CURVE SMOOTH",
"318 619 OFFCURVE",
"245 562 OFFCURVE",
"245 314 CURVE SMOOTH",
"245 95 OFFCURVE",
"329 46 OFFCURVE",
"413 46 CURVE SMOOTH",
"511 46 OFFCURVE",
"548 127 OFFCURVE",
"548 198 CURVE SMOOTH",
"548 256 OFFCURVE",
"521 306 OFFCURVE",
"479 310 CURVE",
"498 343 LINE",
"539 340 OFFCURVE",
"590 284 OFFCURVE",
"590 198 CURVE SMOOTH",
"590 108 OFFCURVE",
"542 3 OFFCURVE",
"413 3 CURVE SMOOTH",
"307 3 OFFCURVE",
"202 60 OFFCURVE"
);
},
{
closed = 1;
nodes = (
"37 323 CURVE SMOOTH",
"37 588 OFFCURVE",
"106 659 OFFCURVE",
"171 659 CURVE SMOOTH",
"240 659 OFFCURVE",
"273 608 OFFCURVE",
"273 539 CURVE",
"235 539 LINE",
"234 594 OFFCURVE",
"206 617 OFFCURVE",
"171 617 CURVE SMOOTH",
"115 617 OFFCURVE",
"80 509 OFFCURVE",
"80 323 CURVE SMOOTH",
"80 130 OFFCURVE",
"126 56 OFFCURVE",
"165 49 CURVE",
"165 7 LINE",
"95 16 OFFCURVE",
"37 100 OFFCURVE"
);
}
);
width = 1080;
}
);
unicode = 0DA5;
},
{
glyphname = sinNyja;
lastChange = "2021-06-09 01:21:28 +0000";
layers = (
{
layerId = "6114C541-D024-4A3E-9713-6FAF49EAB318";
paths = (
{
closed = 1;
nodes = (
"613 655 LINE SMOOTH",
"738 783 OFFCURVE",
"746 824 OFFCURVE",
"746 887 CURVE",
"871 887 LINE",
"871 775 OFFCURVE",
"814 702 OFFCURVE",
"725 611 CURVE SMOOTH"
);
},
{
closed = 1;
nodes = (
"478 532 CURVE SMOOTH",
"478 538 OFFCURVE",
"479 544 OFFCURVE",
"480 550 CURVE SMOOTH",
"502 633 OFFCURVE",
"570 676 OFFCURVE",
"641 676 CURVE SMOOTH",
"740 676 OFFCURVE",
"799 606 OFFCURVE",
"799 519 CURVE SMOOTH",
"799 487 OFFCURVE",
"786 449 OFFCURVE",
"763 420 CURVE",
"676 467 LINE",
"685 477 OFFCURVE",
"693 500 OFFCURVE",
"693 513 CURVE SMOOTH",
"693 541 OFFCURVE",
"676 564 OFFCURVE",
"636 564 CURVE SMOOTH",
"610 564 OFFCURVE",
"578 547 OFFCURVE",
"578 494 CURVE SMOOTH",
"578 488 OFFCURVE",
"578 481 OFFCURVE",
"579 473 CURVE SMOOTH",
"527 362 LINE",
"512 409 OFFCURVE",
"478 484 OFFCURVE"
);
},
{
closed = 1;
nodes = (
"347 255 CURVE SMOOTH",
"347 164 OFFCURVE",
"437 119 OFFCURVE",
"526 119 CURVE SMOOTH",
"616 119 OFFCURVE",
"706 164 OFFCURVE",
"706 255 CURVE SMOOTH",
"706 314 OFFCURVE",
"675 362 OFFCURVE",
"612 362 CURVE SMOOTH",
"441 362 LINE SMOOTH",
"378 362 OFFCURVE",
"347 314 OFFCURVE"
);
},
{
closed = 1;
nodes = (
"225 255 CURVE SMOOTH",
"225 375 OFFCURVE",
"295 473 OFFCURVE",
"434 473 CURVE SMOOTH",
"619 473 LINE SMOOTH",
"758 473 OFFCURVE",
"828 375 OFFCURVE",
"828 255 CURVE SMOOTH",
"828 76 OFFCURVE",
"677 -14 OFFCURVE",
"527 -14 CURVE SMOOTH",
"376 -14 OFFCURVE",
"225 76 OFFCURVE"
);
},
{
closed = 1;
nodes = (
"254 519 CURVE SMOOTH",
"254 606 OFFCURVE",
"313 676 OFFCURVE",
"412 676 CURVE SMOOTH",
"483 676 OFFCURVE",
"551 633 OFFCURVE",
"573 550 CURVE SMOOTH",
"574 544 OFFCURVE",
"575 538 OFFCURVE",
"575 532 CURVE SMOOTH",
"575 484 OFFCURVE",
"541 409 OFFCURVE",
"527 362 CURVE",
"474 473 LINE SMOOTH",
"475 481 OFFCURVE",
"475 488 OFFCURVE",
"475 494 CURVE SMOOTH",
"475 547 OFFCURVE",
"443 564 OFFCURVE",
"417 564 CURVE SMOOTH",
"377 564 OFFCURVE",
"361 541 OFFCURVE",
"361 513 CURVE SMOOTH",
"361 500 OFFCURVE",
"368 477 OFFCURVE",
"377 467 CURVE",
"290 420 LINE",
"267 449 OFFCURVE",
"254 487 OFFCURVE"
);
},
{
closed = 1;
nodes = (
"25 323 CURVE SMOOTH",
"25 576 OFFCURVE",
"110 665 OFFCURVE",
"214 665 CURVE SMOOTH",
"293 665 OFFCURVE",
"336 600 OFFCURVE",
"346 554 CURVE",
"285 485 LINE",
"279 504 OFFCURVE",
"263 546 OFFCURVE",
"220 546 CURVE SMOOTH",
"181 546 OFFCURVE",
"146 484 OFFCURVE",
"146 323 CURVE SMOOTH",
"146 150 OFFCURVE",
"173 116 OFFCURVE",
"211 116 CURVE SMOOTH",
"211 0 LINE SMOOTH",
"102 0 OFFCURVE",
"25 53 OFFCURVE"
);
}
);
width = 844;
},
{
layerId = "CC11FE7D-5FF0-4B40-9597-DFC61EB94F41";
paths = (
{
closed = 1;
nodes = (
"631 654 LINE SMOOTH",
"713 737 OFFCURVE",
"768 803 OFFCURVE",
"768 883 CURVE",
"809 883 LINE",
"809 795 OFFCURVE",
"751 720 OFFCURVE",
"664 629 CURVE SMOOTH"
);
},
{
closed = 1;
nodes = (
"471 517 CURVE SMOOTH",
"471 531 OFFCURVE",
"472 543 OFFCURVE",
"474 555 CURVE SMOOTH",
"488 636 OFFCURVE",
"548 673 OFFCURVE",
"612 673 CURVE SMOOTH",
"677 673 OFFCURVE",
"744 629 OFFCURVE",
"744 539 CURVE SMOOTH",
"744 489 OFFCURVE",
"721 439 OFFCURVE",
"685 411 CURVE",
"656 435 LINE",
"687 457 OFFCURVE",
"706 498 OFFCURVE",
"706 539 CURVE SMOOTH",
"706 603 OFFCURVE",
"658 634 OFFCURVE",
"612 634 CURVE SMOOTH",
"557 634 OFFCURVE",
"509 597 OFFCURVE",
"509 517 CURVE SMOOTH",
"509 495 OFFCURVE",
"509 473 OFFCURVE",
"509 457 CURVE",
"490 420 LINE",
"479 453 OFFCURVE",
"471 480 OFFCURVE"
);
},
{
closed = 1;
nodes = (
"240 255 CURVE SMOOTH",
"240 122 OFFCURVE",
"338 34 OFFCURVE",
"489 34 CURVE SMOOTH",
"640 34 OFFCURVE",
"738 122 OFFCURVE",
"738 255 CURVE SMOOTH",
"738 341 OFFCURVE",
"694 415 OFFCURVE",
"598 415 CURVE SMOOTH",
"379 415 LINE SMOOTH",
"284 415 OFFCURVE",
"240 341 OFFCURVE"
);
},
{
closed = 1;
nodes = (
"199 255 CURVE SMOOTH",
"199 364 OFFCURVE",
"259 457 OFFCURVE",
"380 457 CURVE SMOOTH",
"599 457 LINE SMOOTH",
"721 457 OFFCURVE",
"781 363 OFFCURVE",
"781 255 CURVE SMOOTH",
"781 96 OFFCURVE",
"667 -8 OFFCURVE",
"490 -8 CURVE SMOOTH",
"313 -8 OFFCURVE",
"199 97 OFFCURVE"
);
},
{
closed = 1;
nodes = (
"235 539 CURVE SMOOTH",
"235 629 OFFCURVE",
"303 673 OFFCURVE",
"368 673 CURVE SMOOTH",
"432 673 OFFCURVE",
"491 636 OFFCURVE",
"506 555 CURVE SMOOTH",
"508 543 OFFCURVE",
"509 531 OFFCURVE",
"509 517 CURVE SMOOTH",
"509 480 OFFCURVE",
"501 453 OFFCURVE",
"490 420 CURVE",
"471 457 LINE",
"471 473 OFFCURVE",
"471 495 OFFCURVE",
"471 517 CURVE SMOOTH",
"471 597 OFFCURVE",
"423 634 OFFCURVE",
"368 634 CURVE SMOOTH",
"322 634 OFFCURVE",
"273 603 OFFCURVE",
"273 539 CURVE SMOOTH",
"273 498 OFFCURVE",
"293 457 OFFCURVE",
"324 435 CURVE",
"294 411 LINE",
"258 439 OFFCURVE",
"235 489 OFFCURVE"
);
},
{
closed = 1;
nodes = (
"38 323 CURVE SMOOTH",
"38 588 OFFCURVE",
"106 659 OFFCURVE",
"171 659 CURVE SMOOTH",
"240 659 OFFCURVE",
"273 608 OFFCURVE",
"273 539 CURVE",
"235 539 LINE",
"234 594 OFFCURVE",
"206 617 OFFCURVE",
"171 617 CURVE SMOOTH",
"115 617 OFFCURVE",
"80 509 OFFCURVE",
"80 323 CURVE SMOOTH",
"80 130 OFFCURVE",
"126 56 OFFCURVE",
"165 49 CURVE",
"165 7 LINE",
"95 16 OFFCURVE",
"38 100 OFFCURVE"
);
}
);
width = 846;
}
);
unicode = 0DA6;
},
{
glyphname = sinTta;
lastChange = "2021-06-09 01:21:28 +0000";
layers = (
{
layerId = "6114C541-D024-4A3E-9713-6FAF49EAB318";
paths = (
{
closed = 1;
nodes = (
"25 287 CURVE SMOOTH",
"25 434 OFFCURVE",
"101 537 OFFCURVE",
"212 537 CURVE SMOOTH",
"244 537 OFFCURVE",
"277 529 OFFCURVE",
"309 507 CURVE",
"266 393 LINE",
"250 402 OFFCURVE",
"236 406 OFFCURVE",
"223 406 CURVE SMOOTH",
"177 406 OFFCURVE",
"150 353 OFFCURVE",
"150 287 CURVE SMOOTH",
"150 215 OFFCURVE",
"181 131 OFFCURVE",
"287 131 CURVE SMOOTH",
"406 131 OFFCURVE",
"452 222 OFFCURVE",
"452 403 CURVE SMOOTH",
"452 663 OFFCURVE",
"371 728 OFFCURVE",
"276 728 CURVE SMOOTH",
"230 728 OFFCURVE",
"184 704 OFFCURVE",
"165 656 CURVE",
"40 698 LINE",
"81 806 OFFCURVE",
"178 859 OFFCURVE",
"276 859 CURVE SMOOTH",
"435 859 OFFCURVE",
"584 769 OFFCURVE",
"584 403 CURVE SMOOTH",
"584 134 OFFCURVE",
"492 0 OFFCURVE",
"287 0 CURVE SMOOTH",
"84 0 OFFCURVE",
"25 155 OFFCURVE"
);
}
);
width = 609;
},
{
layerId = "CC11FE7D-5FF0-4B40-9597-DFC61EB94F41";
paths = (
{
closed = 1;
nodes = (
"38 267 CURVE SMOOTH",
"38 422 OFFCURVE",
"117 508 OFFCURVE",
"204 508 CURVE SMOOTH",
"225 508 OFFCURVE",
"246 503 OFFCURVE",
"269 492 CURVE",
"250 455 LINE",
"234 463 OFFCURVE",
"219 467 OFFCURVE",
"204 467 CURVE SMOOTH",
"136 467 OFFCURVE",
"80 393 OFFCURVE",
"80 267 CURVE SMOOTH",
"80 166 OFFCURVE",
"136 46 OFFCURVE",
"275 46 CURVE SMOOTH",
"421 46 OFFCURVE",
"504 171 OFFCURVE",
"504 403 CURVE SMOOTH",
"504 722 OFFCURVE",
"401 810 OFFCURVE",
"274 810 CURVE SMOOTH",
"194 810 OFFCURVE",
"128 758 OFFCURVE",
"101 688 CURVE",
"63 703 LINE",
"106 815 OFFCURVE",
"206 852 OFFCURVE",
"274 852 CURVE SMOOTH",
"425 852 OFFCURVE",
"547 754 OFFCURVE",
"547 403 CURVE SMOOTH",
"547 144 OFFCURVE",
"448 3 OFFCURVE",
"275 3 CURVE SMOOTH",
"106 3 OFFCURVE",
"38 146 OFFCURVE"
);
}
);
width = 585;
}
);
unicode = 0DA7;
},
{
glyphname = sinTtha;
lastChange = "2021-06-09 01:21:28 +0000";
layers = (
{
layerId = "6114C541-D024-4A3E-9713-6FAF49EAB318";
paths = (
{
closed = 1;
nodes = (
"254 0 OFFCURVE",
"299 36 OFFCURVE",
"317 90 CURVE",
"334 38 OFFCURVE",
"377 0 OFFCURVE",
"441 0 CURVE SMOOTH",
"635 0 OFFCURVE",
"644 207 OFFCURVE",
"644 333 CURVE SMOOTH",
"644 600 OFFCURVE",
"539 848 OFFCURVE",
"394 923 CURVE",
"332 848 LINE",
"365 821 OFFCURVE",
"395 782 OFFCURVE",
"416 736 CURVE",
"442 714 OFFCURVE",
"462 666 OFFCURVE",
"468 620 CURVE",
"489 548 OFFCURVE",
"513 438 OFFCURVE",
"513 333 CURVE SMOOTH",
"513 273 OFFCURVE",
"506 131 OFFCURVE",
"441 131 CURVE SMOOTH",
"392 131 OFFCURVE",
"375 201 OFFCURVE",
"375 284 CURVE",
"265 284 LINE",
"265 204 OFFCURVE",
"248 130 OFFCURVE",
"200 130 CURVE SMOOTH",
"163 130 OFFCURVE",
"151 199 OFFCURVE",
"151 261 CURVE SMOOTH",
"151 332 OFFCURVE",
"164 406 OFFCURVE",
"224 406 CURVE SMOOTH",
"237 406 OFFCURVE",
"252 402 OFFCURVE",
"267 393 CURVE",
"311 507 LINE",
"278 529 OFFCURVE",
"245 537 OFFCURVE",
"214 537 CURVE SMOOTH",
"85 537 OFFCURVE",
"25 418 OFFCURVE",
"25 263 CURVE SMOOTH",
"25 144 OFFCURVE",
"61 0 OFFCURVE",
"194 0 CURVE SMOOTH"
);
},
{
closed = 1;
nodes = (
"514 622 LINE",
"503 626 OFFCURVE",
"493 619 OFFCURVE",
"482 622 CURVE",
"422 626 OFFCURVE",
"394 663 OFFCURVE",
"394 688 CURVE SMOOTH",
"394 707 OFFCURVE",
"402 728 OFFCURVE",
"417 736 CURVE",
"439 859 LINE",
"332 848 LINE",
"344 837 OFFCURVE",
"349 827 OFFCURVE",
"349 818 CURVE SMOOTH",
"349 791 OFFCURVE",
"289 766 OFFCURVE",
"289 695 CURVE SMOOTH",
"289 615 OFFCURVE",
"365 553 OFFCURVE",
"441 532 CURVE SMOOTH",
"461 527 OFFCURVE",
"482 524 OFFCURVE",
"501 523 CURVE",
"566 596 LINE"
);
}
);
width = 661;
},
{
layerId = "CC11FE7D-5FF0-4B40-9597-DFC61EB94F41";
paths = (
{
closed = 1;
nodes = (
"290 3 OFFCURVE",
"312 97 OFFCURVE",
"316 131 CURVE",
"321 97 OFFCURVE",
"342 3 OFFCURVE",
"450 3 CURVE SMOOTH",
"601 3 OFFCURVE",
"612 143 OFFCURVE",
"612 288 CURVE",
"612 574 OFFCURVE",
"538 804 OFFCURVE",
"390 918 CURVE",
"363 888 LINE",
"386 870 OFFCURVE",
"408 849 OFFCURVE",
"428 824 CURVE SMOOTH",
"473 768 OFFCURVE",
"511 693 OFFCURVE",
"535 596 CURVE SMOOTH",
"557 509 OFFCURVE",
"570 407 OFFCURVE",
"570 288 CURVE SMOOTH",
"570 164 OFFCURVE",
"562 46 OFFCURVE",
"450 46 CURVE SMOOTH",
"347 46 OFFCURVE",
"339 169 OFFCURVE",
"336 255 CURVE",
"297 255 LINE",
"293 169 OFFCURVE",
"286 46 OFFCURVE",
"182 46 CURVE SMOOTH",
"105 46 OFFCURVE",
"80 149 OFFCURVE",
"80 244 CURVE SMOOTH",
"80 348 OFFCURVE",
"130 468 OFFCURVE",
"215 467 CURVE SMOOTH",
"231 467 OFFCURVE",
"246 463 OFFCURVE",
"262 455 CURVE",
"280 492 LINE",
"258 503 OFFCURVE",
"237 508 OFFCURVE",
"215 508 CURVE SMOOTH",
"108 509 OFFCURVE",
"38 376 OFFCURVE",
"38 244 CURVE SMOOTH",
"38 132 OFFCURVE",
"70 3 OFFCURVE",
"182 3 CURVE SMOOTH"
);
},
{
closed = 1;
nodes = (
"541 601 LINE",
"528 599 OFFCURVE",
"516 597 OFFCURVE",
"505 597 CURVE SMOOTH",
"433 597 OFFCURVE",
"385 639 OFFCURVE",
"385 686 CURVE SMOOTH",
"385 752 OFFCURVE",
"429 789 OFFCURVE",
"429 827 CURVE",
"436 866 LINE",
"363 888 LINE",
"385 873 OFFCURVE",
"392 858 OFFCURVE",
"392 843 CURVE SMOOTH",
"392 804 OFFCURVE",
"344 759 OFFCURVE",
"344 686 CURVE SMOOTH",
"344 619 OFFCURVE",
"408 559 OFFCURVE",
"504 559 CURVE SMOOTH",
"518 559 OFFCURVE",
"534 560 OFFCURVE",
"550 563 CURVE",
"561 594 LINE"
);
}
);
width = 643;
}
);
unicode = 0DA8;
},
{
glyphname = sinDda;
lastChange = "2021-06-09 01:21:28 +0000";
layers = (
{
layerId = "6114C541-D024-4A3E-9713-6FAF49EAB318";
paths = (
{
closed = 1;
nodes = (
"32 220 CURVE SMOOTH",
"32 267 OFFCURVE",
"45 319 OFFCURVE",
"61 348 CURVE",
"25 348 LINE",
"25 445 LINE",
"354 443 LINE",
"392 348 LINE",
"222 348 LINE SMOOTH",
"176 348 OFFCURVE",
"153 279 OFFCURVE",
"153 220 CURVE SMOOTH",
"153 178 OFFCURVE",
"160 130 OFFCURVE",
"202 130 CURVE SMOOTH",
"250 130 OFFCURVE",
"267 204 OFFCURVE",
"267 284 CURVE",
"376 284 LINE",
"376 201 OFFCURVE",
"394 131 OFFCURVE",
"443 131 CURVE SMOOTH",
"508 131 OFFCURVE",
"508 273 OFFCURVE",
"508 333 CURVE SMOOTH",
"508 595 OFFCURVE",
"459 728 OFFCURVE",
"302 728 CURVE SMOOTH",
"255 728 OFFCURVE",
"201 704 OFFCURVE",
"181 656 CURVE",
"57 698 LINE",
"98 806 OFFCURVE",
"203 859 OFFCURVE",
"302 859 CURVE SMOOTH",
"549 859 OFFCURVE",
"638 682 OFFCURVE",
"638 333 CURVE SMOOTH",
"638 207 OFFCURVE",
"637 0 OFFCURVE",
"443 0 CURVE SMOOTH",
"379 0 OFFCURVE",
"336 38 OFFCURVE",
"319 90 CURVE",
"301 36 OFFCURVE",
"256 0 OFFCURVE",
"196 0 CURVE SMOOTH",
"64 0 OFFCURVE",
"32 120 OFFCURVE"
);
},
{
closed = 1;
nodes = (
"91 466 CURVE SMOOTH",
"91 548 OFFCURVE",
"147 605 OFFCURVE",
"232 605 CURVE SMOOTH",
"319 605 OFFCURVE",
"401 540 OFFCURVE",
"401 416 CURVE SMOOTH",
"401 399 OFFCURVE",
"397 370 OFFCURVE",
"392 348 CURVE",
"289 423 LINE",
"291 429 OFFCURVE",
"291 434 OFFCURVE",
"291 440 CURVE SMOOTH",
"291 474 OFFCURVE",
"272 505 OFFCURVE",
"232 505 CURVE SMOOTH",
"203 505 OFFCURVE",
"193 485 OFFCURVE",
"193 461 CURVE SMOOTH",
"193 440 OFFCURVE",
"207 421 OFFCURVE",
"217 405 CURVE",
"126 363 LINE",
"103 399 OFFCURVE",
"91 433 OFFCURVE"
);
}
);
width = 664;
},
{
layerId = "CC11FE7D-5FF0-4B40-9597-DFC61EB94F41";
paths = (
{
closed = 1;
nodes = (
"38 204 CURVE",
"38 282 OFFCURVE",
"61 372 OFFCURVE",
"99 403 CURVE",
"38 403 LINE",
"38 443 LINE",
"353 443 LINE",
"362 403 LINE",
"206 403 LINE SMOOTH",
"95 403 OFFCURVE",
"80 269 OFFCURVE",
"80 204 CURVE SMOOTH",
"80 116 OFFCURVE",
"108 46 OFFCURVE",
"178 46 CURVE SMOOTH",
"282 46 OFFCURVE",
"290 169 OFFCURVE",
"293 255 CURVE",
"332 255 LINE",
"336 169 OFFCURVE",
"343 46 OFFCURVE",
"447 46 CURVE SMOOTH",
"552 46 OFFCURVE",
"560 187 OFFCURVE",
"560 333 CURVE SMOOTH",
"560 657 OFFCURVE",
"475 810 OFFCURVE",
"301 810 CURVE SMOOTH",
"221 810 OFFCURVE",
"143 758 OFFCURVE",
"116 688 CURVE",
"77 703 LINE",
"109 788 OFFCURVE",
"204 852 OFFCURVE",
"301 852 CURVE SMOOTH",
"504 852 OFFCURVE",
"602 685 OFFCURVE",
"602 333 CURVE SMOOTH",
"602 165 OFFCURVE",
"592 3 OFFCURVE",
"447 3 CURVE SMOOTH",
"339 3 OFFCURVE",
"317 97 OFFCURVE",
"313 131 CURVE",
"308 97 OFFCURVE",
"287 3 OFFCURVE",
"178 3 CURVE SMOOTH",
"77 3 OFFCURVE",
"38 93 OFFCURVE"
);
},
{
closed = 1;
nodes = (
"98 478 CURVE",
"98 555 OFFCURVE",
"156 596 OFFCURVE",
"223 596 CURVE SMOOTH",
"297 596 OFFCURVE",
"365 547 OFFCURVE",
"365 440 CURVE SMOOTH",
"365 427 OFFCURVE",
"364 415 OFFCURVE",
"362 403 CURVE",
"326 431 LINE",
"326 434 OFFCURVE",
"326 437 OFFCURVE",
"326 440 CURVE SMOOTH",
"326 521 OFFCURVE",
"278 558 OFFCURVE",
"223 558 CURVE SMOOTH",
"175 558 OFFCURVE",
"136 531 OFFCURVE",
"136 478 CURVE SMOOTH",
"136 450 OFFCURVE",
"147 428 OFFCURVE",
"162 414 CURVE",
"134 391 LINE",
"116 407 OFFCURVE",
"98 442 OFFCURVE"
);
}
);
width = 639;
}
);
unicode = 0DA9;
},
{
glyphname = sinDdha;
lastChange = "2021-06-09 01:21:28 +0000";
layers = (
{
layerId = "6114C541-D024-4A3E-9713-6FAF49EAB318";
paths = (
{
closed = 1;
nodes = (
"223 0 OFFCURVE",
"268 36 OFFCURVE",
"286 90 CURVE",
"303 38 OFFCURVE",
"346 0 OFFCURVE",
"410 0 CURVE SMOOTH",
"604 0 OFFCURVE",
"613 207 OFFCURVE",
"613 333 CURVE SMOOTH",
"613 600 OFFCURVE",
"508 848 OFFCURVE",
"363 923 CURVE",
"301 848 LINE",
"334 821 OFFCURVE",
"364 782 OFFCURVE",
"385 736 CURVE",
"411 714 OFFCURVE",
"431 666 OFFCURVE",
"437 620 CURVE",
"458 548 OFFCURVE",
"482 438 OFFCURVE",
"482 333 CURVE SMOOTH",
"482 273 OFFCURVE",
"475 131 OFFCURVE",
"410 131 CURVE SMOOTH",
"361 131 OFFCURVE",
"344 201 OFFCURVE",
"344 284 CURVE",
"234 284 LINE",
"234 204 OFFCURVE",
"217 130 OFFCURVE",
"169 130 CURVE SMOOTH",
"127 130 OFFCURVE",
"120 178 OFFCURVE",
"120 220 CURVE SMOOTH",
"120 279 OFFCURVE",
"143 348 OFFCURVE",
"189 348 CURVE SMOOTH",
"359 348 LINE",
"321 443 LINE",
"-8 445 LINE",
"-8 348 LINE",
"28 348 LINE",
"12 319 OFFCURVE",
"-1 267 OFFCURVE",
"-1 220 CURVE SMOOTH",
"-1 120 OFFCURVE",
"31 0 OFFCURVE",
"163 0 CURVE SMOOTH"
);
},
{
closed = 1;
nodes = (
"184 405 LINE",
"174 421 OFFCURVE",
"160 440 OFFCURVE",
"160 461 CURVE SMOOTH",
"160 485 OFFCURVE",
"171 505 OFFCURVE",
"199 505 CURVE SMOOTH",
"239 505 OFFCURVE",
"258 474 OFFCURVE",
"258 440 CURVE SMOOTH",
"258 434 OFFCURVE",
"258 429 OFFCURVE",
"257 423 CURVE",
"359 348 LINE",
"364 370 OFFCURVE",
"368 399 OFFCURVE",
"368 416 CURVE SMOOTH",
"368 540 OFFCURVE",
"286 605 OFFCURVE",
"199 605 CURVE SMOOTH",
"114 605 OFFCURVE",
"59 548 OFFCURVE",
"59 466 CURVE SMOOTH",
"59 433 OFFCURVE",
"70 399 OFFCURVE",
"93 363 CURVE"
);
},
{
closed = 1;
nodes = (
"485 622 LINE",
"473 626 OFFCURVE",
"462 619 OFFCURVE",
"451 622 CURVE",
"391 626 OFFCURVE",
"363 663 OFFCURVE",
"363 688 CURVE SMOOTH",
"363 707 OFFCURVE",
"372 728 OFFCURVE",
"386 736 CURVE",
"393 777 OFFCURVE",
"401 818 OFFCURVE",
"408 859 CURVE",
"301 848 LINE",
"313 837 OFFCURVE",
"318 827 OFFCURVE",
"318 818 CURVE SMOOTH",
"318 791 OFFCURVE",
"258 766 OFFCURVE",
"258 695 CURVE SMOOTH",
"258 615 OFFCURVE",
"334 553 OFFCURVE",
"410 532 CURVE SMOOTH",
"430 527 OFFCURVE",
"451 524 OFFCURVE",
"470 523 CURVE",
"535 596 LINE"
);
}
);
width = 630;
},
{
layerId = "CC11FE7D-5FF0-4B40-9597-DFC61EB94F41";
paths = (
{
closed = 1;
nodes = (
"287 3 OFFCURVE",
"308 97 OFFCURVE",
"313 131 CURVE",
"317 97 OFFCURVE",
"339 3 OFFCURVE",
"447 3 CURVE SMOOTH",
"598 3 OFFCURVE",
"609 143 OFFCURVE",
"609 288 CURVE SMOOTH",
"609 574 OFFCURVE",
"535 804 OFFCURVE",
"386 918 CURVE",
"360 888 LINE",
"382 870 OFFCURVE",
"404 849 OFFCURVE",
"424 824 CURVE SMOOTH",
"469 768 OFFCURVE",
"507 693 OFFCURVE",
"531 596 CURVE SMOOTH",
"554 509 OFFCURVE",
"567 407 OFFCURVE",
"567 288 CURVE SMOOTH",
"567 164 OFFCURVE",
"558 46 OFFCURVE",
"447 46 CURVE SMOOTH",
"343 46 OFFCURVE",
"336 169 OFFCURVE",
"332 255 CURVE",
"293 255 LINE",
"290 169 OFFCURVE",
"282 46 OFFCURVE",
"178 46 CURVE SMOOTH",
"108 46 OFFCURVE",
"80 116 OFFCURVE",
"80 204 CURVE SMOOTH",
"80 269 OFFCURVE",
"95 403 OFFCURVE",
"206 403 CURVE SMOOTH",
"362 403 LINE",
"353 443 LINE",
"38 443 LINE",
"38 403 LINE",
"99 403 LINE",
"61 372 OFFCURVE",
"38 282 OFFCURVE",
"38 204 CURVE SMOOTH",
"38 93 OFFCURVE",
"77 3 OFFCURVE",
"178 3 CURVE SMOOTH"
);
},
{
closed = 1;
nodes = (
"162 414 LINE",
"147 428 OFFCURVE",
"136 450 OFFCURVE",
"136 478 CURVE SMOOTH",
"136 531 OFFCURVE",
"175 558 OFFCURVE",
"223 558 CURVE SMOOTH",
"278 558 OFFCURVE",
"326 521 OFFCURVE",
"326 440 CURVE SMOOTH",
"327 437 OFFCURVE",
"327 435 OFFCURVE",
"326 431 CURVE",
"362 403 LINE",
"364 415 OFFCURVE",
"365 427 OFFCURVE",
"365 440 CURVE SMOOTH",
"365 547 OFFCURVE",
"297 596 OFFCURVE",
"223 596 CURVE SMOOTH",
"156 596 OFFCURVE",
"98 555 OFFCURVE",
"98 478 CURVE SMOOTH",
"98 442 OFFCURVE",
"116 407 OFFCURVE",
"134 391 CURVE"
);
},
{
closed = 1;
nodes = (
"538 601 LINE",
"525 599 OFFCURVE",
"513 597 OFFCURVE",
"501 597 CURVE SMOOTH",
"429 597 OFFCURVE",
"382 639 OFFCURVE",
"382 686 CURVE SMOOTH",
"382 752 OFFCURVE",
"426 789 OFFCURVE",
"426 827 CURVE",
"426 827 OFFCURVE",
"430 853 OFFCURVE",
"432 866 CURVE",
"360 888 LINE",
"381 873 OFFCURVE",
"389 858 OFFCURVE",
"389 843 CURVE SMOOTH",
"389 804 OFFCURVE",
"341 759 OFFCURVE",
"341 686 CURVE SMOOTH",
"341 619 OFFCURVE",
"404 559 OFFCURVE",
"500 559 CURVE SMOOTH",
"515 559 OFFCURVE",
"531 560 OFFCURVE",
"547 563 CURVE",
"557 594 LINE"
);
}
);
width = 639;
}
);
unicode = 0DAA;
},
{
glyphname = sinNna;
lastChange = "2021-06-09 01:21:28 +0000";
layers = (
{
layerId = "6114C541-D024-4A3E-9713-6FAF49EAB318";
paths = (
{
closed = 1;
nodes = (
"152 17 OFFCURVE",
"166 23 OFFCURVE",
"181 23 CURVE SMOOTH",
"220 23 OFFCURVE",
"246 0 OFFCURVE",
"319 0 CURVE SMOOTH",
"453 0 OFFCURVE",
"589 113 OFFCURVE",
"589 328 CURVE SMOOTH",
"589 554 OFFCURVE",
"458 666 OFFCURVE",
"298 666 CURVE SMOOTH",
"138 666 OFFCURVE",
"44 531 OFFCURVE",
"44 393 CURVE SMOOTH",
"44 346 OFFCURVE",
"55 298 OFFCURVE",
"77 255 CURVE",
"129 314 LINE",
"138 347 OFFCURVE",
"148 379 OFFCURVE",
"157 412 CURVE",
"157 422 OFFCURVE",
"158 432 OFFCURVE",
"160 442 CURVE SMOOTH",
"172 493 OFFCURVE",
"215 536 OFFCURVE",
"298 536 CURVE SMOOTH",
"386 536 OFFCURVE",
"459 463 OFFCURVE",
"459 328 CURVE SMOOTH",
"459 201 OFFCURVE",
"407 118 OFFCURVE",
"297 118 CURVE SMOOTH",
"258 118 OFFCURVE",
"225 128 OFFCURVE",
"197 128 CURVE SMOOTH",
"184 128 OFFCURVE",
"172 127 OFFCURVE",
"163 121 CURVE SMOOTH",
"132 99 OFFCURVE",
"101 77 OFFCURVE",
"82 56 CURVE",
"141 0 LINE"
);
},
{
closed = 1;
nodes = (
"154 168 OFFCURVE",
"193 152 OFFCURVE",
"262 200 CURVE",
"164 278 LINE",
"73 195 OFFCURVE",
"48 198 OFFCURVE",
"25 23 CURVE",
"141 0 LINE"
);
},
{
closed = 1;
nodes = (
"321 162 OFFCURVE",
"396 236 OFFCURVE",
"396 329 CURVE SMOOTH",
"396 373 OFFCURVE",
"380 413 OFFCURVE",
"352 443 CURVE SMOOTH",
"327 471 OFFCURVE",
"287 487 OFFCURVE",
"249 487 CURVE SMOOTH",
"208 487 OFFCURVE",
"168 469 OFFCURVE",
"148 443 CURVE",
"98 412 OFFCURVE",
"60 372 OFFCURVE",
"60 329 CURVE SMOOTH",
"60 318 OFFCURVE",
"61 307 OFFCURVE",
"63 297 CURVE SMOOTH",
"78 219 OFFCURVE",
"146 162 OFFCURVE",
"228 162 CURVE SMOOTH"
);
},
{
closed = 1;
nodes = (
"195 284 OFFCURVE",
"170 309 OFFCURVE",
"170 340 CURVE SMOOTH",
"170 371 OFFCURVE",
"195 396 OFFCURVE",
"226 396 CURVE SMOOTH",
"257 396 OFFCURVE",
"282 371 OFFCURVE",
"282 340 CURVE SMOOTH",
"282 309 OFFCURVE",
"257 284 OFFCURVE",
"226 284 CURVE SMOOTH"
);
},
{
closed = 1;
nodes = (
"966 0 OFFCURVE",
"975 189 OFFCURVE",
"975 315 CURVE SMOOTH",
"975 439 OFFCURVE",
"968 592 OFFCURVE",
"824 592 CURVE SMOOTH",
"769 592 OFFCURVE",
"726 559 OFFCURVE",
"715 533 CURVE",
"704 559 OFFCURVE",
"674 592 OFFCURVE",
"621 592 CURVE SMOOTH",
"539 592 OFFCURVE",
"486 501 OFFCURVE",
"486 366 CURVE SMOOTH",
"486 267 LINE",
"585 267 LINE",
"590 286 OFFCURVE",
"590 310 OFFCURVE",
"590 335 CURVE",
"591 346 OFFCURVE",
"591 356 OFFCURVE",
"590 368 CURVE",
"590 417 OFFCURVE",
"593 462 OFFCURVE",
"626 462 CURVE SMOOTH",
"656 462 OFFCURVE",
"662 423 OFFCURVE",
"662 379 CURVE SMOOTH",
"662 271 LINE",
"768 271 LINE",
"768 379 LINE SMOOTH",
"768 423 OFFCURVE",
"774 462 OFFCURVE",
"805 462 CURVE SMOOTH",
"843 462 OFFCURVE",
"844 385 OFFCURVE",
"844 315 CURVE SMOOTH",
"844 237 OFFCURVE",
"840 125 OFFCURVE",
"761 125 CURVE SMOOTH",
"655 125 OFFCURVE",
"669 239 OFFCURVE",
"580 239 CURVE SMOOTH",
"574 239 OFFCURVE",
"564 238 OFFCURVE",
"556 237 CURVE",
"520 131 LINE",
"532 137 OFFCURVE",
"541 139 OFFCURVE",
"550 139 CURVE SMOOTH",
"611 139 OFFCURVE",
"595 0 OFFCURVE",
"764 0 CURVE SMOOTH"
);
},
{
closed = 1;
nodes = (
"516 692 OFFCURVE",
"574 765 OFFCURVE",
"574 876 CURVE",
"448 876 LINE",
"448 815 OFFCURVE",
"441 775 OFFCURVE",
"323 652 CURVE",
"428 601 LINE"
);
}
);
width = 999;
},
{
layerId = "CC11FE7D-5FF0-4B40-9597-DFC61EB94F41";
paths = (
{
closed = 1;
nodes = (
"124 28 OFFCURVE",
"142 34 OFFCURVE",
"163 34 CURVE SMOOTH",
"201 34 OFFCURVE",
"247 15 OFFCURVE",
"302 15 CURVE SMOOTH",
"451 15 OFFCURVE",
"546 119 OFFCURVE",
"546 321 CURVE SMOOTH",
"546 559 OFFCURVE",
"424 653 OFFCURVE",
"286 653 CURVE SMOOTH",
"115 653 OFFCURVE",
"38 522 OFFCURVE",
"38 407 CURVE SMOOTH",
"38 330 OFFCURVE",
"56 276 OFFCURVE",
"91 234 CURVE",
"116 263 LINE",
"116 263 OFFCURVE",
"100 287 OFFCURVE",
"89 325 CURVE SMOOTH",
"82 348 OFFCURVE",
"76 376 OFFCURVE",
"76 407 CURVE SMOOTH",
"76 512 OFFCURVE",
"152 611 OFFCURVE",
"286 611 CURVE SMOOTH",
"402 611 OFFCURVE",
"504 529 OFFCURVE",
"504 321 CURVE SMOOTH",
"504 146 OFFCURVE",
"425 57 OFFCURVE",
"302 57 CURVE SMOOTH",
"261 57 OFFCURVE",
"211 75 OFFCURVE",
"164 75 CURVE SMOOTH",
"145 75 OFFCURVE",
"126 72 OFFCURVE",
"109 63 CURVE SMOOTH",
"98 58 OFFCURVE",
"88 49 OFFCURVE",
"77 38 CURVE",
"108 9 LINE"
);
},
{
closed = 1;
nodes = (
"120 128 OFFCURVE",
"141 163 OFFCURVE",
"200 188 CURVE",
"179 215 LINE",
"109 181 OFFCURVE",
"88 153 OFFCURVE",
"67 17 CURVE",
"108 9 LINE"
);
},
{
closed = 1;
nodes = (
"277 183 OFFCURVE",
"339 245 OFFCURVE",
"339 322 CURVE SMOOTH",
"339 369 OFFCURVE",
"317 410 OFFCURVE",
"282 436 CURVE SMOOTH",
"259 453 OFFCURVE",
"231 463 OFFCURVE",
"200 463 CURVE SMOOTH",
"133 463 OFFCURVE",
"86 420 OFFCURVE",
"71 362 CURVE",
"67 340 OFFCURVE",
"65 317 OFFCURVE",
"65 294 CURVE SMOOTH",
"65 288 OFFCURVE",
"65 282 OFFCURVE",
"67 276 CURVE SMOOTH",
"87 222 OFFCURVE",
"139 183 OFFCURVE",
"200 183 CURVE SMOOTH"
);
},
{
closed = 1;
nodes = (
"145 222 OFFCURVE",
"100 267 OFFCURVE",
"100 322 CURVE SMOOTH",
"100 377 OFFCURVE",
"145 422 OFFCURVE",
"200 422 CURVE SMOOTH",
"255 422 OFFCURVE",
"300 377 OFFCURVE",
"300 322 CURVE SMOOTH",
"300 267 OFFCURVE",
"255 222 OFFCURVE",
"200 222 CURVE SMOOTH"
);
},
{
closed = 1;
nodes = (
"927 9 OFFCURVE",
"932 176 OFFCURVE",
"932 318 CURVE SMOOTH",
"932 462 OFFCURVE",
"906 591 OFFCURVE",
"803 591 CURVE SMOOTH",
"741 591 OFFCURVE",
"706 545 OFFCURVE",
"704 503 CURVE",
"700 544 OFFCURVE",
"666 591 OFFCURVE",
"611 591 CURVE SMOOTH",
"511 591 OFFCURVE",
"504 502 OFFCURVE",
"504 378 CURVE SMOOTH",
"504 318 LINE",
"544 316 LINE",
"545 325 OFFCURVE",
"546 336 OFFCURVE",
"546 348 CURVE SMOOTH",
"546 371 OFFCURVE",
"544 398 OFFCURVE",
"544 424 CURVE SMOOTH",
"544 487 OFFCURVE",
"553 549 OFFCURVE",
"611 549 CURVE SMOOTH",
"682 549 OFFCURVE",
"683 435 OFFCURVE",
"683 381 CURVE SMOOTH",
"683 302 LINE",
"725 302 LINE",
"725 381 LINE SMOOTH",
"725 435 OFFCURVE",
"726 549 OFFCURVE",
"803 549 CURVE SMOOTH",
"888 549 OFFCURVE",
"890 386 OFFCURVE",
"890 318 CURVE SMOOTH",
"890 196 OFFCURVE",
"886 51 OFFCURVE",
"741 51 CURVE SMOOTH",
"580 51 OFFCURVE",
"633 208 OFFCURVE",
"527 208 CURVE SMOOTH",
"515 208 OFFCURVE",
"502 205 OFFCURVE",
"487 197 CURVE",
"501 163 LINE",
"509 166 OFFCURVE",
"516 168 OFFCURVE",
"522 168 CURVE SMOOTH",
"588 168 OFFCURVE",
"545 9 OFFCURVE",
"741 9 CURVE SMOOTH"
);
},
{
closed = 1;
nodes = (
"489 696 OFFCURVE",
"550 772 OFFCURVE",
"550 864 CURVE",
"509 864 LINE",
"509 783 OFFCURVE",
"452 716 OFFCURVE",
"370 633 CURVE",
"397 602 LINE"
);
}
);
width = 969;
}
);
unicode = 0DAB;
},
{
glyphname = sinNndda;
lastChange = "2021-06-09 01:21:28 +0000";
layers = (
{
layerId = "6114C541-D024-4A3E-9713-6FAF49EAB318";
paths = (
{
closed = 1;
nodes = (
"248 220 CURVE SMOOTH",
"248 267 OFFCURVE",
"261 319 OFFCURVE",
"277 348 CURVE",
"241 348 LINE",
"241 445 LINE",
"570 443 LINE",
"609 348 LINE",
"438 348 LINE SMOOTH",
"392 348 OFFCURVE",
"370 279 OFFCURVE",
"370 220 CURVE SMOOTH",
"370 178 OFFCURVE",
"376 130 OFFCURVE",
"418 130 CURVE SMOOTH",
"466 130 OFFCURVE",
"484 204 OFFCURVE",
"484 284 CURVE",
"593 284 LINE",
"593 201 OFFCURVE",
"610 131 OFFCURVE",
"659 131 CURVE SMOOTH",
"724 131 OFFCURVE",
"724 273 OFFCURVE",
"724 333 CURVE SMOOTH",
"724 595 OFFCURVE",
"675 728 OFFCURVE",
"518 728 CURVE SMOOTH",
"471 728 OFFCURVE",
"417 704 OFFCURVE",
"397 656 CURVE",
"273 698 LINE",
"314 806 OFFCURVE",
"419 859 OFFCURVE",
"518 859 CURVE SMOOTH",
"765 859 OFFCURVE",
"855 682 OFFCURVE",
"855 333 CURVE SMOOTH",
"855 207 OFFCURVE",
"854 0 OFFCURVE",
"659 0 CURVE SMOOTH",
"596 0 OFFCURVE",
"552 38 OFFCURVE",
"535 90 CURVE",
"517 36 OFFCURVE",
"472 0 OFFCURVE",
"412 0 CURVE SMOOTH",
"280 0 OFFCURVE",
"248 120 OFFCURVE"
);
},
{
closed = 1;
nodes = (
"308 466 CURVE SMOOTH",
"308 548 OFFCURVE",
"363 605 OFFCURVE",
"448 605 CURVE SMOOTH",
"536 605 OFFCURVE",
"617 540 OFFCURVE",
"617 416 CURVE SMOOTH",
"617 399 OFFCURVE",
"613 370 OFFCURVE",
"609 348 CURVE",
"506 423 LINE",
"507 429 OFFCURVE",
"507 434 OFFCURVE",
"507 440 CURVE SMOOTH",
"507 474 OFFCURVE",
"488 505 OFFCURVE",
"448 505 CURVE SMOOTH",
"420 505 OFFCURVE",
"409 485 OFFCURVE",
"409 461 CURVE SMOOTH",
"409 440 OFFCURVE",
"423 421 OFFCURVE",
"433 405 CURVE",
"342 363 LINE",
"320 399 OFFCURVE",
"308 433 OFFCURVE"
);
},
{
closed = 1;
nodes = (
"24 323 CURVE SMOOTH",
"24 555 OFFCURVE",
"121 636 OFFCURVE",
"239 636 CURVE SMOOTH",
"326 636 OFFCURVE",
"374 572 OFFCURVE",
"385 526 CURVE",
"310 456 LINE",
"304 475 OFFCURVE",
"287 518 OFFCURVE",
"239 518 CURVE SMOOTH",
"190 518 OFFCURVE",
"145 464 OFFCURVE",
"145 323 CURVE SMOOTH",
"145 150 OFFCURVE",
"172 116 OFFCURVE",
"209 116 CURVE SMOOTH",
"209 0 LINE SMOOTH",
"101 0 OFFCURVE",
"24 52 OFFCURVE"
);
}
);
width = 880;
},
{
layerId = "CC11FE7D-5FF0-4B40-9597-DFC61EB94F41";
paths = (
{
closed = 1;
nodes = (
"175 204 CURVE SMOOTH",
"175 282 OFFCURVE",
"198 372 OFFCURVE",
"237 403 CURVE",
"175 403 LINE",
"175 443 LINE",
"490 443 LINE",
"499 403 LINE",
"343 403 LINE SMOOTH",
"232 403 OFFCURVE",
"217 269 OFFCURVE",
"217 204 CURVE SMOOTH",
"217 116 OFFCURVE",
"245 46 OFFCURVE",
"316 46 CURVE SMOOTH",
"419 46 OFFCURVE",
"427 169 OFFCURVE",
"431 255 CURVE",
"469 255 LINE",
"473 169 OFFCURVE",
"480 46 OFFCURVE",
"584 46 CURVE SMOOTH",
"690 46 OFFCURVE",
"698 187 OFFCURVE",
"698 333 CURVE SMOOTH",
"698 657 OFFCURVE",
"613 810 OFFCURVE",
"439 810 CURVE SMOOTH",
"358 810 OFFCURVE",
"280 758 OFFCURVE",
"253 688 CURVE",
"215 703 LINE",
"247 788 OFFCURVE",
"341 852 OFFCURVE",
"439 852 CURVE SMOOTH",
"641 852 OFFCURVE",
"740 685 OFFCURVE",
"740 333 CURVE SMOOTH",
"740 165 OFFCURVE",
"729 3 OFFCURVE",
"584 3 CURVE SMOOTH",
"476 3 OFFCURVE",
"454 97 OFFCURVE",
"450 131 CURVE",
"446 97 OFFCURVE",
"424 3 OFFCURVE",
"316 3 CURVE SMOOTH",
"215 3 OFFCURVE",
"175 93 OFFCURVE"
);
},
{
closed = 1;
nodes = (
"235 478 CURVE SMOOTH",
"235 555 OFFCURVE",
"294 596 OFFCURVE",
"360 596 CURVE SMOOTH",
"434 596 OFFCURVE",
"502 547 OFFCURVE",
"502 440 CURVE SMOOTH",
"502 427 OFFCURVE",
"501 415 OFFCURVE",
"499 403 CURVE",
"464 431 LINE",
"463 434 OFFCURVE",
"463 437 OFFCURVE",
"463 440 CURVE SMOOTH",
"463 521 OFFCURVE",
"415 558 OFFCURVE",
"360 558 CURVE SMOOTH",
"313 558 OFFCURVE",
"273 531 OFFCURVE",
"273 478 CURVE SMOOTH",
"273 450 OFFCURVE",
"284 428 OFFCURVE",
"299 414 CURVE SMOOTH",
"271 391 LINE SMOOTH",
"253 407 OFFCURVE",
"235 442 OFFCURVE"
);
},
{
closed = 1;
nodes = (
"38 323 CURVE SMOOTH",
"38 540 OFFCURVE",
"106 597 OFFCURVE",
"171 597 CURVE SMOOTH",
"240 597 OFFCURVE",
"273 546 OFFCURVE",
"273 478 CURVE",
"235 478 LINE",
"234 532 OFFCURVE",
"206 555 OFFCURVE",
"171 555 CURVE SMOOTH",
"115 555 OFFCURVE",
"80 470 OFFCURVE",
"80 323 CURVE SMOOTH",
"80 130 OFFCURVE",
"126 56 OFFCURVE",
"165 49 CURVE",
"165 7 LINE",
"95 16 OFFCURVE",
"38 100 OFFCURVE"
);
}
);
width = 776;
}
);
unicode = 0DAC;
},
{
glyphname = sinTa;
lastChange = "2021-06-09 01:21:28 +0000";
layers = (
{
layerId = "6114C541-D024-4A3E-9713-6FAF49EAB318";
paths = (
{
closed = 1;
nodes = (
"654 0 OFFCURVE",
"748 69 OFFCURVE",
"748 313 CURVE SMOOTH",
"748 564 OFFCURVE",
"622 676 OFFCURVE",
"496 676 CURVE SMOOTH",
"382 676 OFFCURVE",
"320 601 OFFCURVE",
"250 520 CURVE SMOOTH",
"40 275 LINE",
"41 172 LINE",
"138 233 LINE",
"361 473 LINE",
"408 524 OFFCURVE",
"431 549 OFFCURVE",
"496 549 CURVE SMOOTH",
"562 549 OFFCURVE",
"627 476 OFFCURVE",
"627 313 CURVE SMOOTH",
"627 159 OFFCURVE",
"587 117 OFFCURVE",
"527 117 CURVE SMOOTH",
"480 117 OFFCURVE",
"462 152 OFFCURVE",
"461 180 CURVE",
"384 107 LINE",
"395 66 OFFCURVE",
"441 0 OFFCURVE",
"542 0 CURVE SMOOTH"
);
},
{
closed = 1;
nodes = (
"387 0 OFFCURVE",
"488 47 OFFCURVE",
"488 245 CURVE SMOOTH",
"488 413 OFFCURVE",
"385 464 OFFCURVE",
"345 464 CURVE SMOOTH",
"298 464 OFFCURVE",
"258 457 OFFCURVE",
"207 443 CURVE",
"243 370 LINE",
"253 373 OFFCURVE",
"262 375 OFFCURVE",
"272 375 CURVE SMOOTH",
"321 375 OFFCURVE",
"366 331 OFFCURVE",
"366 245 CURVE SMOOTH",
"366 149 OFFCURVE",
"337 121 OFFCURVE",
"261 121 CURVE SMOOTH",
"221 121 OFFCURVE",
"179 137 OFFCURVE",
"179 180 CURVE SMOOTH",
"179 204 OFFCURVE",
"176 241 OFFCURVE",
"155 255 CURVE SMOOTH",
"140 264 OFFCURVE",
"120 259 OFFCURVE",
"104 259 CURVE",
"50 218 LINE",
"41 172 LINE",
"50 172 OFFCURVE",
"58 172 OFFCURVE",
"65 171 CURVE SMOOTH",
"76 169 OFFCURVE",
"84 159 OFFCURVE",
"84 115 CURVE SMOOTH",
"84 43 OFFCURVE",
"171 0 OFFCURVE",
"258 0 CURVE SMOOTH"
);
},
{
closed = 1;
nodes = (
"196 441 LINE",
"159 450 OFFCURVE",
"126 469 OFFCURVE",
"126 516 CURVE SMOOTH",
"126 544 OFFCURVE",
"143 569 OFFCURVE",
"178 569 CURVE SMOOTH",
"210 569 OFFCURVE",
"237 540 OFFCURVE",
"237 494 CURVE SMOOTH",
"237 427 LINE",
"325 502 LINE",
"325 617 OFFCURVE",
"255 676 OFFCURVE",
"180 676 CURVE SMOOTH",
"80 676 OFFCURVE",
"25 606 OFFCURVE",
"25 525 CURVE SMOOTH",
"25 447 OFFCURVE",
"80 393 OFFCURVE",
"142 376 CURVE"
);
}
);
width = 772;
},
{
layerId = "CC11FE7D-5FF0-4B40-9597-DFC61EB94F41";
paths = (
{
closed = 1;
nodes = (
"669 3 OFFCURVE",
"734 113 OFFCURVE",
"734 310 CURVE SMOOTH",
"734 575 OFFCURVE",
"635 669 OFFCURVE",
"509 669 CURVE SMOOTH",
"418 669 OFFCURVE",
"348 599 OFFCURVE",
"304 544 CURVE SMOOTH",
"38 209 LINE",
"66 176 LINE",
"93 211 LINE",
"316 493 LINE SMOOTH",
"371 561 OFFCURVE",
"428 626 OFFCURVE",
"509 626 CURVE SMOOTH",
"603 626 OFFCURVE",
"692 544 OFFCURVE",
"692 310 CURVE SMOOTH",
"692 123 OFFCURVE",
"621 45 OFFCURVE",
"533 45 CURVE SMOOTH",
"478 45 OFFCURVE",
"439 74 OFFCURVE",
"431 108 CURVE",
"392 98 LINE",
"404 46 OFFCURVE",
"457 3 OFFCURVE",
"533 3 CURVE SMOOTH"
);
},
{
closed = 1;
nodes = (
"329 3 OFFCURVE",
"466 19 OFFCURVE",
"466 223 CURVE SMOOTH",
"466 399 OFFCURVE",
"397 464 OFFCURVE",
"318 464 CURVE SMOOTH",
"276 464 OFFCURVE",
"243 438 OFFCURVE",
"217 415 CURVE",
"233 390 LINE",
"252 407 OFFCURVE",
"274 422 OFFCURVE",
"318 422 CURVE SMOOTH",
"374 422 OFFCURVE",
"424 368 OFFCURVE",
"424 223 CURVE SMOOTH",
"424 52 OFFCURVE",
"297 46 OFFCURVE",
"272 46 CURVE SMOOTH",
"176 46 OFFCURVE",
"137 93 OFFCURVE",
"137 147 CURVE SMOOTH",
"137 178 OFFCURVE",
"131 209 OFFCURVE",
"98 220 CURVE",
"97 220 OFFCURVE",
"96 218 OFFCURVE",
"94 218 CURVE",
"74 209 LINE",
"66 176 LINE",
"68 178 OFFCURVE",
"71 178 OFFCURVE",
"73 177 CURVE",
"89 177 OFFCURVE",
"95 162 OFFCURVE",
"95 147 CURVE SMOOTH",
"95 68 OFFCURVE",
"152 3 OFFCURVE",
"272 3 CURVE SMOOTH"
);
},
{
closed = 1;
nodes = (
"216 405 LINE",
"129 419 OFFCURVE",
"79 464 OFFCURVE",
"79 539 CURVE SMOOTH",
"79 603 OFFCURVE",
"128 634 OFFCURVE",
"174 634 CURVE SMOOTH",
"229 634 OFFCURVE",
"277 597 OFFCURVE",
"277 517 CURVE SMOOTH",
"277 457 LINE",
"315 517 LINE",
"315 624 OFFCURVE",
"247 673 OFFCURVE",
"174 673 CURVE SMOOTH",
"109 673 OFFCURVE",
"41 629 OFFCURVE",
"41 539 CURVE SMOOTH",
"41 444 OFFCURVE",
"108 385 OFFCURVE",
"207 370 CURVE"
);
}
);
width = 760;
}
);
unicode = 0DAD;
},
{
glyphname = sinTha;
lastChange = "2021-06-09 01:21:28 +0000";
layers = (
{
layerId = "6114C541-D024-4A3E-9713-6FAF49EAB318";
paths = (
{
closed = 1;
nodes = (
"542 0 OFFCURVE",
"621 182 OFFCURVE",
"621 386 CURVE SMOOTH",
"621 604 OFFCURVE",
"520 848 OFFCURVE",
"375 923 CURVE",
"312 848 LINE",
"346 821 OFFCURVE",
"375 782 OFFCURVE",
"397 736 CURVE",
"429 713 OFFCURVE",
"453 663 OFFCURVE",
"460 616 CURVE",
"476 542 LINE",
"485 504 OFFCURVE",
"493 449 OFFCURVE",
"493 391 CURVE SMOOTH",
"493 267 OFFCURVE",
"466 131 OFFCURVE",
"318 131 CURVE SMOOTH",
"196 131 OFFCURVE",
"150 215 OFFCURVE",
"150 287 CURVE SMOOTH",
"150 353 OFFCURVE",
"177 406 OFFCURVE",
"223 406 CURVE SMOOTH",
"236 406 OFFCURVE",
"250 402 OFFCURVE",
"266 393 CURVE",
"309 507 LINE",
"277 529 OFFCURVE",
"244 537 OFFCURVE",
"212 537 CURVE SMOOTH",
"101 537 OFFCURVE",
"25 434 OFFCURVE",
"25 287 CURVE SMOOTH",
"25 155 OFFCURVE",
"99 0 OFFCURVE",
"318 0 CURVE SMOOTH"
);
},
{
closed = 1;
nodes = (
"488 625 LINE",
"479 624 OFFCURVE",
"471 624 OFFCURVE",
"463 622 CURVE SMOOTH",
"403 626 OFFCURVE",
"375 663 OFFCURVE",
"375 688 CURVE SMOOTH",
"375 707 OFFCURVE",
"387 732 OFFCURVE",
"401 740 CURVE",
"419 859 LINE",
"312 848 LINE",
"325 837 OFFCURVE",
"329 827 OFFCURVE",
"329 818 CURVE SMOOTH",
"329 791 OFFCURVE",
"270 766 OFFCURVE",
"270 695 CURVE SMOOTH",
"270 615 OFFCURVE",
"345 553 OFFCURVE",
"421 532 CURVE SMOOTH",
"442 527 OFFCURVE",
"462 524 OFFCURVE",
"482 523 CURVE",
"547 596 LINE"
);
}
);
width = 624;
},
{
layerId = "CC11FE7D-5FF0-4B40-9597-DFC61EB94F41";
paths = (
{
closed = 1;
nodes = (
"474 3 OFFCURVE",
"574 144 OFFCURVE",
"574 389 CURVE SMOOTH",
"574 600 OFFCURVE",
"492 806 OFFCURVE",
"356 918 CURVE",
"330 888 LINE",
"352 870 OFFCURVE",
"373 849 OFFCURVE",
"392 826 CURVE SMOOTH",
"444 765 OFFCURVE",
"483 685 OFFCURVE",
"506 595 CURVE",
"513 568 LINE",
"526 512 OFFCURVE",
"532 451 OFFCURVE",
"532 389 CURVE SMOOTH",
"532 171 OFFCURVE",
"447 46 OFFCURVE",
"290 46 CURVE SMOOTH",
"140 46 OFFCURVE",
"80 166 OFFCURVE",
"80 267 CURVE SMOOTH",
"80 393 OFFCURVE",
"136 467 OFFCURVE",
"204 467 CURVE SMOOTH",
"219 467 OFFCURVE",
"234 463 OFFCURVE",
"250 455 CURVE",
"269 492 LINE",
"246 503 OFFCURVE",
"225 508 OFFCURVE",
"204 508 CURVE SMOOTH",
"117 508 OFFCURVE",
"38 422 OFFCURVE",
"38 267 CURVE SMOOTH",
"38 146 OFFCURVE",
"110 3 OFFCURVE",
"290 3 CURVE SMOOTH"
);
},
{
closed = 1;
nodes = (
"518 601 LINE",
"505 599 OFFCURVE",
"482 597 OFFCURVE",
"471 597 CURVE SMOOTH",
"399 597 OFFCURVE",
"351 639 OFFCURVE",
"351 686 CURVE SMOOTH",
"351 752 OFFCURVE",
"395 789 OFFCURVE",
"395 827 CURVE",
"402 866 LINE",
"330 888 LINE",
"351 873 OFFCURVE",
"359 858 OFFCURVE",
"359 843 CURVE SMOOTH",
"359 804 OFFCURVE",
"310 759 OFFCURVE",
"310 686 CURVE SMOOTH",
"310 619 OFFCURVE",
"374 559 OFFCURVE",
"470 559 CURVE SMOOTH",
"485 559 OFFCURVE",
"500 560 OFFCURVE",
"516 563 CURVE",
"527 594 LINE"
);
}
);
width = 598;
}
);
unicode = 0DAE;
},
{
glyphname = sinDa;
lastChange = "2021-06-09 01:21:28 +0000";
layers = (
{
layerId = "6114C541-D024-4A3E-9713-6FAF49EAB318";
paths = (
{
closed = 1;
nodes = (
"25 247 CURVE SMOOTH",
"25 377 OFFCURVE",
"135 480 OFFCURVE",
"272 480 CURVE SMOOTH",
"293 480 OFFCURVE",
"307 478 OFFCURVE",
"328 476 CURVE",
"329 483 OFFCURVE",
"329 490 OFFCURVE",
"329 497 CURVE SMOOTH",
"329 539 OFFCURVE",
"304 567 OFFCURVE",
"272 567 CURVE SMOOTH",
"238 567 OFFCURVE",
"220 543 OFFCURVE",
"220 516 CURVE SMOOTH",
"220 502 OFFCURVE",
"224 486 OFFCURVE",
"233 476 CURVE",
"145 431 LINE",
"123 460 OFFCURVE",
"114 490 OFFCURVE",
"114 522 CURVE SMOOTH",
"114 608 OFFCURVE",
"173 678 OFFCURVE",
"272 678 CURVE SMOOTH",
"359 678 OFFCURVE",
"440 614 OFFCURVE",
"440 489 CURVE SMOOTH",
"440 454 OFFCURVE",
"432 406 OFFCURVE",
"419 362 CURVE",
"419 362 OFFCURVE",
"327 362 OFFCURVE",
"272 362 CURVE SMOOTH",
"208 362 OFFCURVE",
"152 312 OFFCURVE",
"152 247 CURVE SMOOTH",
"152 182 OFFCURVE",
"206 132 OFFCURVE",
"272 132 CURVE SMOOTH",
"312 132 OFFCURVE",
"348 150 OFFCURVE",
"371 177 CURVE",
"469 106 LINE",
"423 41 OFFCURVE",
"352 0 OFFCURVE",
"272 0 CURVE SMOOTH",
"135 0 OFFCURVE",
"25 110 OFFCURVE"
);
},
{
closed = 1;
nodes = (
"176 -66 CURVE SMOOTH",
"176 -36 OFFCURVE",
"184 -5 OFFCURVE",
"203 25 CURVE",
"305 51 LINE",
"316 5 LINE",
"304 -10 OFFCURVE",
"297 -30 OFFCURVE",
"297 -49 CURVE SMOOTH",
"297 -81 OFFCURVE",
"315 -110 OFFCURVE",
"352 -110 CURVE SMOOTH",
"380 -110 OFFCURVE",
"410 -97 OFFCURVE",
"436 -62 CURVE",
"523 -121 LINE",
"471 -200 OFFCURVE",
"409 -230 OFFCURVE",
"352 -230 CURVE SMOOTH",
"247 -230 OFFCURVE",
"176 -153 OFFCURVE"
);
}
);
width = 467;
},
{
layerId = "CC11FE7D-5FF0-4B40-9597-DFC61EB94F41";
paths = (
{
closed = 1;
nodes = (
"38 241 CURVE SMOOTH",
"38 356 OFFCURVE",
"121 468 OFFCURVE",
"262 468 CURVE SMOOTH",
"289 468 OFFCURVE",
"344 468 OFFCURVE",
"371 468 CURVE",
"373 480 OFFCURVE",
"377 499 OFFCURVE",
"377 517 CURVE SMOOTH",
"377 597 OFFCURVE",
"329 634 OFFCURVE",
"274 634 CURVE SMOOTH",
"228 634 OFFCURVE",
"179 603 OFFCURVE",
"179 539 CURVE SMOOTH",
"179 491 OFFCURVE",
"204 463 OFFCURVE",
"215 453 CURVE",
"187 428 LINE",
"174 440 OFFCURVE",
"141 477 OFFCURVE",
"141 539 CURVE SMOOTH",
"141 629 OFFCURVE",
"209 673 OFFCURVE",
"274 673 CURVE SMOOTH",
"347 673 OFFCURVE",
"415 624 OFFCURVE",
"415 517 CURVE SMOOTH",
"415 483 OFFCURVE",
"410 455 OFFCURVE",
"399 426 CURVE",
"399 426 OFFCURVE",
"311 426 OFFCURVE",
"262 426 CURVE SMOOTH",
"148 426 OFFCURVE",
"80 336 OFFCURVE",
"80 241 CURVE SMOOTH",
"80 116 OFFCURVE",
"172 48 OFFCURVE",
"266 48 CURVE SMOOTH",
"324 48 OFFCURVE",
"383 74 OFFCURVE",
"421 130 CURVE",
"454 104 LINE",
"408 36 OFFCURVE",
"336 3 OFFCURVE",
"265 3 CURVE SMOOTH",
"151 3 OFFCURVE",
"38 88 OFFCURVE"
);
},
{
closed = 1;
nodes = (
"197 -65 CURVE SMOOTH",
"197 -28 OFFCURVE",
"206 2 OFFCURVE",
"234 39 CURVE",
"267 41 LINE",
"269 19 LINE",
"244 -10 OFFCURVE",
"239 -35 OFFCURVE",
"239 -65 CURVE SMOOTH",
"239 -127 OFFCURVE",
"285 -178 OFFCURVE",
"348 -178 CURVE SMOOTH",
"409 -178 OFFCURVE",
"447 -151 OFFCURVE",
"479 -94 CURVE",
"513 -120 LINE",
"473 -187 OFFCURVE",
"424 -219 OFFCURVE",
"348 -219 CURVE SMOOTH",
"258 -219 OFFCURVE",
"197 -147 OFFCURVE"
);
}
);
width = 479;
}
);
unicode = 0DAF;
},
{
glyphname = sinDha;
lastChange = "2021-06-09 01:21:28 +0000";
layers = (
{
layerId = "6114C541-D024-4A3E-9713-6FAF49EAB318";
paths = (
{
closed = 1;
nodes = (
"25 263 CURVE SMOOTH",
"25 316 OFFCURVE",
"32 364 OFFCURVE",
"41 393 CURVE SMOOTH",
"69 481 OFFCURVE",
"132 537 OFFCURVE",
"214 537 CURVE SMOOTH",
"245 537 OFFCURVE",
"278 529 OFFCURVE",
"311 507 CURVE",
"267 393 LINE",
"252 402 OFFCURVE",
"237 406 OFFCURVE",
"224 406 CURVE SMOOTH",
"194 406 OFFCURVE",
"172 383 OFFCURVE",
"160 348 CURVE SMOOTH",
"155 332 OFFCURVE",
"151 298 OFFCURVE",
"151 261 CURVE SMOOTH",
"151 199 OFFCURVE",
"163 130 OFFCURVE",
"200 130 CURVE SMOOTH",
"248 130 OFFCURVE",
"265 204 OFFCURVE",
"265 284 CURVE",
"375 284 LINE",
"375 201 OFFCURVE",
"392 131 OFFCURVE",
"441 131 CURVE SMOOTH",
"506 131 OFFCURVE",
"506 273 OFFCURVE",
"506 333 CURVE SMOOTH",
"506 595 OFFCURVE",
"457 728 OFFCURVE",
"300 728 CURVE SMOOTH",
"253 728 OFFCURVE",
"199 704 OFFCURVE",
"179 656 CURVE",
"55 698 LINE",
"96 806 OFFCURVE",
"201 859 OFFCURVE",
"300 859 CURVE SMOOTH",
"547 859 OFFCURVE",
"637 682 OFFCURVE",
"637 333 CURVE SMOOTH",
"637 207 OFFCURVE",
"635 0 OFFCURVE",
"441 0 CURVE SMOOTH",
"377 0 OFFCURVE",
"334 38 OFFCURVE",
"317 90 CURVE",
"299 36 OFFCURVE",
"254 0 OFFCURVE",
"194 0 CURVE SMOOTH",
"61 0 OFFCURVE",
"25 144 OFFCURVE"
);
}
);
width = 661;
},
{
layerId = "CC11FE7D-5FF0-4B40-9597-DFC61EB94F41";
paths = (
{
closed = 1;
nodes = (
"37 244 CURVE SMOOTH",
"37 303 OFFCURVE",
"50 356 OFFCURVE",
"70 398 CURVE SMOOTH",
"103 467 OFFCURVE",
"158 508 OFFCURVE",
"215 508 CURVE SMOOTH",
"236 508 OFFCURVE",
"257 503 OFFCURVE",
"280 492 CURVE",
"261 455 LINE",
"245 463 OFFCURVE",
"230 467 OFFCURVE",
"215 467 CURVE SMOOTH",
"171 467 OFFCURVE",
"131 432 OFFCURVE",
"106 377 CURVE SMOOTH",
"89 340 OFFCURVE",
"79 294 OFFCURVE",
"79 244 CURVE SMOOTH",
"79 149 OFFCURVE",
"105 46 OFFCURVE",
"181 46 CURVE SMOOTH",
"285 46 OFFCURVE",
"293 169 OFFCURVE",
"296 255 CURVE",
"335 255 LINE",
"339 169 OFFCURVE",
"346 46 OFFCURVE",
"450 46 CURVE SMOOTH",
"556 46 OFFCURVE",
"563 187 OFFCURVE",
"563 333 CURVE SMOOTH",
"563 657 OFFCURVE",
"479 810 OFFCURVE",
"304 810 CURVE SMOOTH",
"224 810 OFFCURVE",
"146 758 OFFCURVE",
"119 688 CURVE",
"81 703 LINE",
"113 788 OFFCURVE",
"207 852 OFFCURVE",
"304 852 CURVE SMOOTH",
"507 852 OFFCURVE",
"605 685 OFFCURVE",
"605 333 CURVE SMOOTH",
"605 165 OFFCURVE",
"595 3 OFFCURVE",
"450 3 CURVE SMOOTH",
"342 3 OFFCURVE",
"320 97 OFFCURVE",
"316 131 CURVE",
"311 97 OFFCURVE",
"290 3 OFFCURVE",
"181 3 CURVE SMOOTH",
"70 3 OFFCURVE",
"37 132 OFFCURVE"
);
}
);
width = 641;
}
);
unicode = 0DB0;
},
{
glyphname = sinNa;
lastChange = "2021-06-09 01:21:28 +0000";
layers = (
{
layerId = "6114C541-D024-4A3E-9713-6FAF49EAB318";
paths = (
{
closed = 1;
nodes = (
"648 0 OFFCURVE",
"751 56 OFFCURVE",
"751 313 CURVE SMOOTH",
"751 597 OFFCURVE",
"621 676 OFFCURVE",
"500 676 CURVE SMOOTH",
"397 676 OFFCURVE",
"321 614 OFFCURVE",
"275 526 CURVE SMOOTH",
"238 454 OFFCURVE",
"211 298 OFFCURVE",
"145 297 CURVE SMOOTH",
"140 297 OFFCURVE",
"135 298 OFFCURVE",
"130 299 CURVE",
"61 238 LINE",
"85 222 OFFCURVE",
"135 203 OFFCURVE",
"170 203 CURVE SMOOTH",
"297 203 OFFCURVE",
"331 402 OFFCURVE",
"373 465 CURVE SMOOTH",
"420 535 OFFCURVE",
"452 549 OFFCURVE",
"500 549 CURVE SMOOTH",
"558 549 OFFCURVE",
"630 499 OFFCURVE",
"630 313 CURVE SMOOTH",
"630 153 OFFCURVE",
"583 117 OFFCURVE",
"536 117 CURVE SMOOTH",
"476 117 OFFCURVE",
"472 161 OFFCURVE",
"464 180 CURVE",
"387 107 LINE",
"399 66 OFFCURVE",
"439 0 OFFCURVE",
"536 0 CURVE SMOOTH"
);
},
{
closed = 1;
nodes = (
"397 0 OFFCURVE",
"504 69 OFFCURVE",
"504 254 CURVE SMOOTH",
"504 394 OFFCURVE",
"437 444 OFFCURVE",
"382 463 CURVE SMOOTH",
"358 471 OFFCURVE",
"338 472 OFFCURVE",
"325 473 CURVE",
"265 368 LINE",
"272 368 OFFCURVE",
"278 368 OFFCURVE",
"285 368 CURVE SMOOTH",
"337 365 OFFCURVE",
"382 340 OFFCURVE",
"382 255 CURVE SMOOTH",
"382 176 OFFCURVE",
"345 124 OFFCURVE",
"257 124 CURVE SMOOTH",
"173 124 OFFCURVE",
"137 162 OFFCURVE",
"137 257 CURVE SMOOTH",
"137 275 OFFCURVE",
"138 295 OFFCURVE",
"140 318 CURVE",
"31 325 LINE",
"28 302 OFFCURVE",
"26 279 OFFCURVE",
"26 257 CURVE SMOOTH",
"27 88 OFFCURVE",
"124 0 OFFCURVE",
"257 0 CURVE SMOOTH"
);
},
{
closed = 1;
nodes = (
"250 433 LINE",
"239 435 OFFCURVE",
"230 437 OFFCURVE",
"221 439 CURVE SMOOTH",
"176 453 OFFCURVE",
"149 483 OFFCURVE",
"149 514 CURVE SMOOTH",
"149 540 OFFCURVE",
"164 564 OFFCURVE",
"196 564 CURVE SMOOTH",
"228 564 OFFCURVE",
"256 537 OFFCURVE",
"256 494 CURVE SMOOTH",
"256 487 OFFCURVE",
"255 481 OFFCURVE",
"254 473 CURVE",
"367 487 LINE",
"367 611 OFFCURVE",
"285 675 OFFCURVE",
"198 675 CURVE SMOOTH",
"98 675 OFFCURVE",
"43 605 OFFCURVE",
"43 525 CURVE SMOOTH",
"43 457 OFFCURVE",
"89 394 OFFCURVE",
"174 358 CURVE SMOOTH",
"189 353 OFFCURVE",
"204 348 OFFCURVE",
"220 344 CURVE"
);
}
);
width = 773;
},
{
layerId = "CC11FE7D-5FF0-4B40-9597-DFC61EB94F41";
paths = (
{
closed = 1;
nodes = (
"669 3 OFFCURVE",
"734 106 OFFCURVE",
"734 310 CURVE SMOOTH",
"734 575 OFFCURVE",
"625 673 OFFCURVE",
"501 673 CURVE SMOOTH",
"388 673 OFFCURVE",
"335 596 OFFCURVE",
"295 510 CURVE SMOOTH",
"245 400 OFFCURVE",
"230 265 OFFCURVE",
"138 265 CURVE SMOOTH",
"114 265 OFFCURVE",
"84 270 OFFCURVE",
"81 294 CURVE",
"46 285 LINE",
"59 233 OFFCURVE",
"106 223 OFFCURVE",
"138 223 CURVE SMOOTH",
"267 223 OFFCURVE",
"278 381 OFFCURVE",
"334 494 CURVE SMOOTH",
"370 567 OFFCURVE",
"408 630 OFFCURVE",
"501 630 CURVE SMOOTH",
"603 630 OFFCURVE",
"692 544 OFFCURVE",
"692 310 CURVE SMOOTH",
"692 115 OFFCURVE",
"621 46 OFFCURVE",
"534 46 CURVE SMOOTH",
"479 46 OFFCURVE",
"440 74 OFFCURVE",
"431 108 CURVE",
"393 98 LINE",
"404 46 OFFCURVE",
"457 3 OFFCURVE",
"534 3 CURVE SMOOTH"
);
},
{
closed = 1;
nodes = (
"371 3 OFFCURVE",
"460 73 OFFCURVE",
"460 223 CURVE SMOOTH",
"460 390 OFFCURVE",
"402 441 OFFCURVE",
"338 441 CURVE SMOOTH",
"314 441 OFFCURVE",
"288 433 OFFCURVE",
"265 421 CURVE",
"286 390 LINE",
"300 397 OFFCURVE",
"314 401 OFFCURVE",
"328 401 CURVE SMOOTH",
"376 401 OFFCURVE",
"418 354 OFFCURVE",
"418 223 CURVE SMOOTH",
"418 102 OFFCURVE",
"347 46 OFFCURVE",
"249 46 CURVE SMOOTH",
"133 46 OFFCURVE",
"81 147 OFFCURVE",
"81 256 CURVE SMOOTH",
"81 274 OFFCURVE",
"82 292 OFFCURVE",
"85 310 CURVE",
"43 310 LINE",
"39 289 OFFCURVE",
"38 268 OFFCURVE",
"38 248 CURVE SMOOTH",
"38 121 OFFCURVE",
"103 3 OFFCURVE",
"249 3 CURVE SMOOTH"
);
},
{
closed = 1;
nodes = (
"259 403 LINE",
"239 403 OFFCURVE",
"225 405 OFFCURVE",
"209 409 CURVE SMOOTH",
"135 426 OFFCURVE",
"93 470 OFFCURVE",
"93 539 CURVE SMOOTH",
"93 603 OFFCURVE",
"142 633 OFFCURVE",
"187 633 CURVE SMOOTH",
"243 633 OFFCURVE",
"290 597 OFFCURVE",
"290 516 CURVE SMOOTH",
"290 496 OFFCURVE",
"287 477 OFFCURVE",
"287 457 CURVE",
"329 516 LINE",
"329 623 OFFCURVE",
"261 672 OFFCURVE",
"187 672 CURVE SMOOTH",
"123 672 OFFCURVE",
"55 629 OFFCURVE",
"55 539 CURVE SMOOTH",
"55 450 OFFCURVE",
"114 392 OFFCURVE",
"203 373 CURVE SMOOTH",
"222 369 OFFCURVE",
"238 368 OFFCURVE",
"257 368 CURVE"
);
}
);
width = 761;
}
);
unicode = 0DB1;
},
{
glyphname = sinNda;
lastChange = "2021-06-09 01:21:28 +0000";
layers = (
{
layerId = "6114C541-D024-4A3E-9713-6FAF49EAB318";
paths = (
{
closed = 1;
nodes = (
"367 -66 CURVE SMOOTH",
"367 -36 OFFCURVE",
"375 -5 OFFCURVE",
"394 25 CURVE",
"496 51 LINE",
"508 5 LINE",
"495 -10 OFFCURVE",
"488 -30 OFFCURVE",
"488 -49 CURVE SMOOTH",
"488 -81 OFFCURVE",
"506 -110 OFFCURVE",
"543 -110 CURVE SMOOTH",
"571 -110 OFFCURVE",
"601 -97 OFFCURVE",
"627 -62 CURVE",
"715 -121 LINE",
"662 -200 OFFCURVE",
"600 -230 OFFCURVE",
"543 -230 CURVE SMOOTH",
"438 -230 OFFCURVE",
"367 -153 OFFCURVE"
);
},
{
closed = 1;
nodes = (
"216 247 CURVE SMOOTH",
"216 377 OFFCURVE",
"326 480 OFFCURVE",
"463 480 CURVE SMOOTH",
"485 480 OFFCURVE",
"498 478 OFFCURVE",
"519 476 CURVE",
"520 483 OFFCURVE",
"520 490 OFFCURVE",
"520 497 CURVE SMOOTH",
"520 539 OFFCURVE",
"495 567 OFFCURVE",
"463 567 CURVE SMOOTH",
"429 567 OFFCURVE",
"411 543 OFFCURVE",
"411 516 CURVE SMOOTH",
"411 502 OFFCURVE",
"415 486 OFFCURVE",
"424 476 CURVE",
"336 431 LINE",
"314 460 OFFCURVE",
"305 490 OFFCURVE",
"305 522 CURVE SMOOTH",
"305 608 OFFCURVE",
"364 678 OFFCURVE",
"463 678 CURVE SMOOTH",
"550 678 OFFCURVE",
"632 614 OFFCURVE",
"632 489 CURVE SMOOTH",
"632 454 OFFCURVE",
"624 406 OFFCURVE",
"610 362 CURVE",
"610 362 OFFCURVE",
"518 362 OFFCURVE",
"463 362 CURVE SMOOTH",
"399 362 OFFCURVE",
"344 312 OFFCURVE",
"344 247 CURVE SMOOTH",
"344 182 OFFCURVE",
"397 132 OFFCURVE",
"463 132 CURVE SMOOTH",
"503 132 OFFCURVE",
"539 150 OFFCURVE",
"562 177 CURVE",
"660 106 LINE",
"614 41 OFFCURVE",
"543 0 OFFCURVE",
"463 0 CURVE SMOOTH",
"326 0 OFFCURVE",
"216 110 OFFCURVE"
);
},
{
closed = 1;
nodes = (
"25 323 CURVE SMOOTH",
"25 576 OFFCURVE",
"122 665 OFFCURVE",
"239 665 CURVE SMOOTH",
"318 665 OFFCURVE",
"361 600 OFFCURVE",
"371 554 CURVE",
"310 485 LINE",
"304 504 OFFCURVE",
"287 546 OFFCURVE",
"239 546 CURVE SMOOTH",
"190 546 OFFCURVE",
"146 484 OFFCURVE",
"146 323 CURVE SMOOTH",
"146 150 OFFCURVE",
"173 116 OFFCURVE",
"211 116 CURVE SMOOTH",
"211 0 LINE SMOOTH",
"102 0 OFFCURVE",
"25 53 OFFCURVE"
);
}
);
width = 657;
},
{
layerId = "CC11FE7D-5FF0-4B40-9597-DFC61EB94F41";
paths = (
{
closed = 1;
nodes = (
"329 -65 CURVE SMOOTH",
"329 -28 OFFCURVE",
"338 2 OFFCURVE",
"367 39 CURVE",
"400 41 LINE",
"402 19 LINE",
"377 -10 OFFCURVE",
"371 -35 OFFCURVE",
"371 -65 CURVE SMOOTH",
"371 -127 OFFCURVE",
"417 -178 OFFCURVE",
"480 -178 CURVE SMOOTH",
"541 -178 OFFCURVE",
"580 -151 OFFCURVE",
"612 -94 CURVE",
"645 -120 LINE",
"605 -187 OFFCURVE",
"557 -219 OFFCURVE",
"480 -219 CURVE SMOOTH",
"390 -219 OFFCURVE",
"329 -147 OFFCURVE"
);
},
{
closed = 1;
nodes = (
"170 241 CURVE SMOOTH",
"170 356 OFFCURVE",
"253 468 OFFCURVE",
"394 468 CURVE SMOOTH",
"422 468 OFFCURVE",
"476 468 OFFCURVE",
"503 468 CURVE",
"505 480 OFFCURVE",
"509 499 OFFCURVE",
"509 517 CURVE SMOOTH",
"509 597 OFFCURVE",
"461 634 OFFCURVE",
"406 634 CURVE SMOOTH",
"360 634 OFFCURVE",
"312 603 OFFCURVE",
"312 539 CURVE SMOOTH",
"312 491 OFFCURVE",
"337 463 OFFCURVE",
"347 453 CURVE",
"320 428 LINE",
"306 440 OFFCURVE",
"274 477 OFFCURVE",
"274 539 CURVE SMOOTH",
"274 629 OFFCURVE",
"342 673 OFFCURVE",
"406 673 CURVE SMOOTH",
"480 673 OFFCURVE",
"548 624 OFFCURVE",
"548 517 CURVE SMOOTH",
"548 483 OFFCURVE",
"542 455 OFFCURVE",
"532 426 CURVE",
"532 426 OFFCURVE",
"443 426 OFFCURVE",
"394 426 CURVE SMOOTH",
"280 426 OFFCURVE",
"212 336 OFFCURVE",
"212 241 CURVE SMOOTH",
"212 116 OFFCURVE",
"305 48 OFFCURVE",
"398 48 CURVE SMOOTH",
"457 48 OFFCURVE",
"516 74 OFFCURVE",
"553 130 CURVE",
"586 104 LINE",
"541 36 OFFCURVE",
"469 3 OFFCURVE",
"398 3 CURVE SMOOTH",
"283 3 OFFCURVE",
"170 88 OFFCURVE"
);
},
{
closed = 1;
nodes = (
"38 323 CURVE SMOOTH",
"38 588 OFFCURVE",
"119 659 OFFCURVE",
"196 659 CURVE SMOOTH",
"274 659 OFFCURVE",
"312 608 OFFCURVE",
"312 539 CURVE",
"274 539 LINE",
"272 594 OFFCURVE",
"239 617 OFFCURVE",
"196 617 CURVE SMOOTH",
"125 617 OFFCURVE",
"80 509 OFFCURVE",
"80 323 CURVE SMOOTH",
"80 130 OFFCURVE",
"126 56 OFFCURVE",
"165 49 CURVE",
"165 7 LINE",
"95 16 OFFCURVE",
"38 100 OFFCURVE"
);
}
);
width = 681;
}
);
unicode = 0DB3;
},
{
glyphname = sinPa;
lastChange = "2021-06-09 01:21:28 +0000";
layers = (
{
layerId = "6114C541-D024-4A3E-9713-6FAF49EAB318";
paths = (
{
closed = 1;
nodes = (
"277 532 CURVE SMOOTH",
"277 538 OFFCURVE",
"278 544 OFFCURVE",
"279 550 CURVE SMOOTH",
"302 633 OFFCURVE",
"369 676 OFFCURVE",
"440 676 CURVE SMOOTH",
"539 676 OFFCURVE",
"598 606 OFFCURVE",
"598 519 CURVE SMOOTH",
"598 487 OFFCURVE",
"585 449 OFFCURVE",
"562 420 CURVE",
"475 467 LINE",
"484 477 OFFCURVE",
"492 500 OFFCURVE",
"492 513 CURVE SMOOTH",
"492 541 OFFCURVE",
"476 564 OFFCURVE",
"436 564 CURVE SMOOTH",
"410 564 OFFCURVE",
"377 547 OFFCURVE",
"377 494 CURVE SMOOTH",
"377 488 OFFCURVE",
"377 481 OFFCURVE",
"379 473 CURVE SMOOTH",
"326 362 LINE",
"311 409 OFFCURVE",
"277 484 OFFCURVE"
);
},
{
closed = 1;
nodes = (
"146 255 CURVE SMOOTH",
"146 164 OFFCURVE",
"236 119 OFFCURVE",
"326 119 CURVE SMOOTH",
"415 119 OFFCURVE",
"505 164 OFFCURVE",
"505 255 CURVE SMOOTH",
"505 314 OFFCURVE",
"474 362 OFFCURVE",
"411 362 CURVE SMOOTH",
"240 362 LINE SMOOTH",
"178 362 OFFCURVE",
"146 314 OFFCURVE"
);
},
{
closed = 1;
nodes = (
"25 255 CURVE SMOOTH",
"25 375 OFFCURVE",
"94 473 OFFCURVE",
"233 473 CURVE SMOOTH",
"418 473 LINE SMOOTH",
"558 473 OFFCURVE",
"627 375 OFFCURVE",
"627 255 CURVE SMOOTH",
"627 76 OFFCURVE",
"476 -14 OFFCURVE",
"326 -14 CURVE SMOOTH",
"175 -14 OFFCURVE",
"25 76 OFFCURVE"
);
},
{
closed = 1;
nodes = (
"53 519 CURVE SMOOTH",
"53 606 OFFCURVE",
"113 676 OFFCURVE",
"211 676 CURVE SMOOTH",
"283 676 OFFCURVE",
"350 633 OFFCURVE",
"372 550 CURVE SMOOTH",
"374 544 OFFCURVE",
"374 538 OFFCURVE",
"374 532 CURVE SMOOTH",
"374 484 OFFCURVE",
"340 409 OFFCURVE",
"326 362 CURVE",
"273 473 LINE SMOOTH",
"274 481 OFFCURVE",
"275 488 OFFCURVE",
"275 494 CURVE SMOOTH",
"275 547 OFFCURVE",
"242 564 OFFCURVE",
"216 564 CURVE SMOOTH",
"176 564 OFFCURVE",
"160 541 OFFCURVE",
"160 513 CURVE SMOOTH",
"160 500 OFFCURVE",
"167 477 OFFCURVE",
"176 467 CURVE",
"89 420 LINE",
"66 449 OFFCURVE",
"53 487 OFFCURVE"
);
}
);
width = 652;
},
{
layerId = "CC11FE7D-5FF0-4B40-9597-DFC61EB94F41";
paths = (
{
closed = 1;
nodes = (
"309 517 CURVE SMOOTH",
"309 531 OFFCURVE",
"310 543 OFFCURVE",
"313 555 CURVE SMOOTH",
"327 636 OFFCURVE",
"387 673 OFFCURVE",
"451 673 CURVE SMOOTH",
"515 673 OFFCURVE",
"583 629 OFFCURVE",
"583 539 CURVE SMOOTH",
"583 489 OFFCURVE",
"560 439 OFFCURVE",
"524 411 CURVE",
"495 435 LINE",
"525 457 OFFCURVE",
"545 498 OFFCURVE",
"545 539 CURVE SMOOTH",
"545 603 OFFCURVE",
"497 634 OFFCURVE",
"451 634 CURVE SMOOTH",
"396 634 OFFCURVE",
"348 597 OFFCURVE",
"348 517 CURVE SMOOTH",
"348 495 OFFCURVE",
"348 473 OFFCURVE",
"348 457 CURVE",
"329 420 LINE",
"318 453 OFFCURVE",
"309 480 OFFCURVE"
);
},
{
closed = 1;
nodes = (
"80 255 CURVE SMOOTH",
"80 122 OFFCURVE",
"178 34 OFFCURVE",
"329 34 CURVE SMOOTH",
"480 34 OFFCURVE",
"578 122 OFFCURVE",
"578 255 CURVE SMOOTH",
"578 341 OFFCURVE",
"534 415 OFFCURVE",
"438 415 CURVE SMOOTH",
"219 415 LINE SMOOTH",
"123 415 OFFCURVE",
"80 341 OFFCURVE"
);
},
{
closed = 1;
nodes = (
"38 255 CURVE SMOOTH",
"38 364 OFFCURVE",
"98 457 OFFCURVE",
"219 457 CURVE SMOOTH",
"438 457 LINE SMOOTH",
"560 457 OFFCURVE",
"620 363 OFFCURVE",
"620 255 CURVE SMOOTH",
"620 96 OFFCURVE",
"506 -8 OFFCURVE",
"329 -8 CURVE SMOOTH",
"152 -8 OFFCURVE",
"38 97 OFFCURVE"
);
},
{
closed = 1;
nodes = (
"74 539 CURVE SMOOTH",
"74 629 OFFCURVE",
"142 673 OFFCURVE",
"206 673 CURVE SMOOTH",
"270 673 OFFCURVE",
"330 636 OFFCURVE",
"345 555 CURVE SMOOTH",
"347 543 OFFCURVE",
"348 531 OFFCURVE",
"348 517 CURVE SMOOTH",
"348 480 OFFCURVE",
"340 453 OFFCURVE",
"329 420 CURVE",
"309 457 LINE",
"309 473 OFFCURVE",
"309 495 OFFCURVE",
"309 517 CURVE SMOOTH",
"309 597 OFFCURVE",
"261 634 OFFCURVE",
"206 634 CURVE SMOOTH",
"160 634 OFFCURVE",
"112 603 OFFCURVE",
"112 539 CURVE SMOOTH",
"112 498 OFFCURVE",
"132 457 OFFCURVE",
"163 435 CURVE",
"133 411 LINE",
"97 439 OFFCURVE",
"74 489 OFFCURVE"
);
}
);
width = 656;
}
);
unicode = 0DB4;
},
{
glyphname = sinPha;
lastChange = "2021-06-09 01:21:28 +0000";
layers = (
{
layerId = "6114C541-D024-4A3E-9713-6FAF49EAB318";
paths = (
{
closed = 1;
nodes = (
"532 0 OFFCURVE",
"621 182 OFFCURVE",
"621 386 CURVE SMOOTH",
"621 604 OFFCURVE",
"520 848 OFFCURVE",
"375 923 CURVE",
"312 848 LINE",
"346 821 OFFCURVE",
"375 782 OFFCURVE",
"397 736 CURVE",
"429 713 OFFCURVE",
"453 663 OFFCURVE",
"460 616 CURVE",
"476 542 LINE SMOOTH",
"485 504 OFFCURVE",
"493 449 OFFCURVE",
"493 391 CURVE SMOOTH",
"493 267 OFFCURVE",
"456 131 OFFCURVE",
"308 131 CURVE SMOOTH",
"186 131 OFFCURVE",
"151 198 OFFCURVE",
"151 258 CURVE SMOOTH",
"151 308 OFFCURVE",
"165 348 OFFCURVE",
"229 348 CURVE SMOOTH",
"371 348 LINE",
"301 445 LINE",
"180 445 LINE SMOOTH",
"138 445 OFFCURVE",
"106 433 OFFCURVE",
"82 412 CURVE SMOOTH",
"48 382 OFFCURVE",
"25 318 OFFCURVE",
"25 249 CURVE SMOOTH",
"25 156 OFFCURVE",
"89 0 OFFCURVE",
"308 0 CURVE SMOOTH"
);
},
{
closed = 1;
nodes = (
"379 540 OFFCURVE",
"298 605 OFFCURVE",
"211 605 CURVE SMOOTH",
"126 605 OFFCURVE",
"70 548 OFFCURVE",
"70 466 CURVE SMOOTH",
"70 433 OFFCURVE",
"82 399 OFFCURVE",
"105 363 CURVE",
"196 405 LINE",
"186 421 OFFCURVE",
"172 440 OFFCURVE",
"172 461 CURVE SMOOTH",
"172 485 OFFCURVE",
"182 505 OFFCURVE",
"211 505 CURVE SMOOTH",
"251 505 OFFCURVE",
"270 473 OFFCURVE",
"270 440 CURVE SMOOTH",
"270 434 OFFCURVE",
"269 429 OFFCURVE",
"268 423 CURVE",
"371 348 LINE",
"376 370 OFFCURVE",
"379 399 OFFCURVE",
"379 416 CURVE SMOOTH"
);
},
{
closed = 1;
nodes = (
"547 596 LINE",
"463 622 LINE",
"459 622 OFFCURVE",
"454 624 OFFCURVE",
"451 624 CURVE SMOOTH",
"399 632 OFFCURVE",
"374 665 OFFCURVE",
"375 688 CURVE SMOOTH",
"375 707 OFFCURVE",
"383 728 OFFCURVE",
"397 736 CURVE",
"419 859 LINE",
"312 848 LINE",
"325 837 OFFCURVE",
"329 827 OFFCURVE",
"329 818 CURVE SMOOTH",
"329 791 OFFCURVE",
"270 766 OFFCURVE",
"270 695 CURVE SMOOTH",
"270 615 OFFCURVE",
"345 553 OFFCURVE",
"421 532 CURVE SMOOTH",
"442 527 OFFCURVE",
"462 524 OFFCURVE",
"482 523 CURVE"
);
}
);
width = 624;
},
{
layerId = "CC11FE7D-5FF0-4B40-9597-DFC61EB94F41";
paths = (
{
closed = 1;
nodes = (
"475 3 OFFCURVE",
"576 144 OFFCURVE",
"576 389 CURVE SMOOTH",
"576 600 OFFCURVE",
"494 806 OFFCURVE",
"357 918 CURVE",
"331 888 LINE",
"353 870 OFFCURVE",
"374 849 OFFCURVE",
"393 826 CURVE SMOOTH",
"445 765 OFFCURVE",
"484 685 OFFCURVE",
"508 595 CURVE SMOOTH",
"514 568 LINE SMOOTH",
"527 512 OFFCURVE",
"533 451 OFFCURVE",
"533 389 CURVE SMOOTH",
"533 171 OFFCURVE",
"448 46 OFFCURVE",
"291 46 CURVE SMOOTH",
"114 46 OFFCURVE",
"79 176 OFFCURVE",
"79 249 CURVE SMOOTH",
"79 340 OFFCURVE",
"120 403 OFFCURVE",
"191 403 CURVE SMOOTH",
"346 403 LINE",
"324 442 LINE",
"191 442 LINE SMOOTH",
"157 442 OFFCURVE",
"127 432 OFFCURVE",
"103 413 CURVE SMOOTH",
"62 381 OFFCURVE",
"38 324 OFFCURVE",
"38 249 CURVE SMOOTH",
"38 161 OFFCURVE",
"79 3 OFFCURVE",
"291 3 CURVE SMOOTH"
);
},
{
closed = 1;
nodes = (
"349 547 OFFCURVE",
"281 596 OFFCURVE",
"207 596 CURVE SMOOTH",
"140 596 OFFCURVE",
"82 555 OFFCURVE",
"82 478 CURVE SMOOTH",
"82 442 OFFCURVE",
"100 407 OFFCURVE",
"118 391 CURVE",
"146 414 LINE",
"131 428 OFFCURVE",
"120 450 OFFCURVE",
"120 478 CURVE SMOOTH",
"120 531 OFFCURVE",
"159 558 OFFCURVE",
"207 558 CURVE SMOOTH",
"262 558 OFFCURVE",
"304 521 OFFCURVE",
"310 440 CURVE SMOOTH",
"311 432 OFFCURVE",
"310 428 OFFCURVE",
"310 424 CURVE",
"346 403 LINE",
"348 415 OFFCURVE",
"349 427 OFFCURVE",
"349 440 CURVE SMOOTH"
);
},
{
closed = 1;
nodes = (
"528 594 LINE",
"508 601 LINE",
"496 599 OFFCURVE",
"483 597 OFFCURVE",
"472 597 CURVE SMOOTH",
"400 597 OFFCURVE",
"352 639 OFFCURVE",
"352 686 CURVE SMOOTH",
"352 752 OFFCURVE",
"396 789 OFFCURVE",
"396 827 CURVE",
"403 866 LINE",
"331 888 LINE",
"352 873 OFFCURVE",
"360 858 OFFCURVE",
"360 843 CURVE SMOOTH",
"360 804 OFFCURVE",
"311 759 OFFCURVE",
"311 686 CURVE SMOOTH",
"311 619 OFFCURVE",
"375 559 OFFCURVE",
"471 559 CURVE SMOOTH",
"486 559 OFFCURVE",
"501 560 OFFCURVE",
"518 563 CURVE"
);
}
);
width = 608;
}
);
unicode = 0DB5;
},
{
glyphname = sinBa;
lastChange = "2021-06-09 01:21:28 +0000";
layers = (
{
layerId = "6114C541-D024-4A3E-9713-6FAF49EAB318";
paths = (
{
closed = 1;
nodes = (
"25 250 CURVE SMOOTH",
"25 485 OFFCURVE",
"112 556 OFFCURVE",
"230 556 CURVE SMOOTH",
"352 556 OFFCURVE",
"422 489 OFFCURVE",
"422 369 CURVE SMOOTH",
"422 286 OFFCURVE",
"365 259 OFFCURVE",
"365 201 CURVE SMOOTH",
"365 162 OFFCURVE",
"380 131 OFFCURVE",
"410 131 CURVE SMOOTH",
"469 131 OFFCURVE",
"500 216 OFFCURVE",
"500 333 CURVE SMOOTH",
"500 595 OFFCURVE",
"451 728 OFFCURVE",
"294 728 CURVE SMOOTH",
"247 728 OFFCURVE",
"193 704 OFFCURVE",
"173 656 CURVE",
"49 698 LINE",
"90 806 OFFCURVE",
"195 859 OFFCURVE",
"294 859 CURVE SMOOTH",
"541 859 OFFCURVE",
"631 682 OFFCURVE",
"631 333 CURVE SMOOTH",
"630 207 OFFCURVE",
"594 0 OFFCURVE",
"414 0 CURVE SMOOTH",
"273 0 OFFCURVE",
"241 99 OFFCURVE",
"241 201 CURVE SMOOTH",
"241 270 OFFCURVE",
"295 300 OFFCURVE",
"295 369 CURVE SMOOTH",
"295 403 OFFCURVE",
"277 428 OFFCURVE",
"229 428 CURVE SMOOTH",
"183 428 OFFCURVE",
"150 387 OFFCURVE",
"150 250 CURVE SMOOTH",
"150 146 OFFCURVE",
"171 125 OFFCURVE",
"195 125 CURVE SMOOTH",
"217 125 OFFCURVE",
"237 137 OFFCURVE",
"255 178 CURVE",
"319 83 LINE",
"286 32 OFFCURVE",
"254 0 OFFCURVE",
"195 0 CURVE SMOOTH",
"75 0 OFFCURVE",
"25 90 OFFCURVE"
);
}
);
width = 655;
},
{
layerId = "CC11FE7D-5FF0-4B40-9597-DFC61EB94F41";
paths = (
{
closed = 1;
nodes = (
"38 250 CURVE SMOOTH",
"38 477 OFFCURVE",
"124 553 OFFCURVE",
"223 553 CURVE SMOOTH",
"327 553 OFFCURVE",
"377 497 OFFCURVE",
"377 391 CURVE SMOOTH",
"377 281 OFFCURVE",
"292 259 OFFCURVE",
"292 156 CURVE SMOOTH",
"292 74 OFFCURVE",
"346 44 OFFCURVE",
"406 44 CURVE SMOOTH",
"522 44 OFFCURVE",
"553 166 OFFCURVE",
"553 333 CURVE SMOOTH",
"553 657 OFFCURVE",
"468 810 OFFCURVE",
"294 810 CURVE SMOOTH",
"213 810 OFFCURVE",
"135 758 OFFCURVE",
"109 688 CURVE",
"70 703 LINE",
"102 788 OFFCURVE",
"196 852 OFFCURVE",
"294 852 CURVE SMOOTH",
"496 852 OFFCURVE",
"595 685 OFFCURVE",
"595 333 CURVE SMOOTH",
"595 142 OFFCURVE",
"555 3 OFFCURVE",
"406 3 CURVE SMOOTH",
"299 3 OFFCURVE",
"252 66 OFFCURVE",
"252 156 CURVE SMOOTH",
"252 274 OFFCURVE",
"336 294 OFFCURVE",
"336 391 CURVE SMOOTH",
"336 470 OFFCURVE",
"299 512 OFFCURVE",
"223 512 CURVE SMOOTH",
"146 512 OFFCURVE",
"80 446 OFFCURVE",
"80 250 CURVE SMOOTH",
"80 120 OFFCURVE",
"109 44 OFFCURVE",
"176 44 CURVE SMOOTH",
"221 44 OFFCURVE",
"251 90 OFFCURVE",
"258 131 CURVE",
"292 123 LINE",
"282 59 OFFCURVE",
"246 3 OFFCURVE",
"176 3 CURVE SMOOTH",
"80 3 OFFCURVE",
"38 94 OFFCURVE"
);
}
);
width = 631;
}
);
unicode = 0DB6;
},
{
glyphname = sinBha;
lastChange = "2021-06-09 01:21:28 +0000";
layers = (
{
layerId = "6114C541-D024-4A3E-9713-6FAF49EAB318";
paths = (
{
closed = 1;
nodes = (
"664 0 OFFCURVE",
"760 79 OFFCURVE",
"760 332 CURVE SMOOTH",
"760 599 OFFCURVE",
"649 665 OFFCURVE",
"527 665 CURVE SMOOTH",
"353 665 OFFCURVE",
"344 545 OFFCURVE",
"325 437 CURVE SMOOTH",
"315 377 OFFCURVE",
"301 321 OFFCURVE",
"256 290 CURVE",
"323 206 LINE",
"407 252 OFFCURVE",
"416 345 OFFCURVE",
"430 422 CURVE SMOOTH",
"442 489 OFFCURVE",
"457 544 OFFCURVE",
"527 544 CURVE SMOOTH",
"583 544 OFFCURVE",
"640 500 OFFCURVE",
"640 332 CURVE SMOOTH",
"640 171 OFFCURVE",
"595 118 OFFCURVE",
"546 118 CURVE SMOOTH",
"498 118 OFFCURVE",
"482 161 OFFCURVE",
"476 180 CURVE",
"402 98 LINE",
"412 57 OFFCURVE",
"459 0 OFFCURVE",
"546 0 CURVE SMOOTH"
);
},
{
closed = 1;
nodes = (
"442 0 OFFCURVE",
"494 113 OFFCURVE",
"494 190 CURVE SMOOTH",
"494 288 OFFCURVE",
"435 326 OFFCURVE",
"370 326 CURVE SMOOTH",
"344 326 OFFCURVE",
"317 320 OFFCURVE",
"292 310 CURVE",
"343 218 LINE",
"346 221 OFFCURVE",
"351 223 OFFCURVE",
"357 223 CURVE SMOOTH",
"371 223 OFFCURVE",
"373 205 OFFCURVE",
"373 193 CURVE SMOOTH",
"373 162 OFFCURVE",
"353 125 OFFCURVE",
"271 125 CURVE SMOOTH",
"195 125 OFFCURVE",
"167 191 OFFCURVE",
"167 251 CURVE SMOOTH",
"167 268 OFFCURVE",
"170 286 OFFCURVE",
"174 300 CURVE SMOOTH",
"185 335 OFFCURVE",
"204 362 OFFCURVE",
"233 362 CURVE SMOOTH",
"378 363 LINE",
"378 464 LINE",
"26 464 LINE",
"26 364 LINE",
"72 364 LINE",
"64 349 OFFCURVE",
"57 329 OFFCURVE",
"51 306 CURVE SMOOTH",
"46 284 OFFCURVE",
"44 261 OFFCURVE",
"44 240 CURVE SMOOTH",
"44 112 OFFCURVE",
"129 0 OFFCURVE",
"271 0 CURVE SMOOTH"
);
},
{
closed = 1;
nodes = (
"385 413 OFFCURVE",
"403 484 OFFCURVE",
"403 532 CURVE SMOOTH",
"403 538 OFFCURVE",
"403 544 OFFCURVE",
"401 550 CURVE SMOOTH",
"379 633 OFFCURVE",
"310 676 OFFCURVE",
"237 676 CURVE SMOOTH",
"133 676 OFFCURVE",
"76 606 OFFCURVE",
"76 517 CURVE SMOOTH",
"76 453 OFFCURVE",
"118 395 OFFCURVE",
"157 372 CURVE",
"216 446 LINE",
"197 452 OFFCURVE",
"181 471 OFFCURVE",
"181 504 CURVE SMOOTH",
"181 540 OFFCURVE",
"200 564 OFFCURVE",
"241 564 CURVE SMOOTH",
"269 564 OFFCURVE",
"304 547 OFFCURVE",
"304 494 CURVE SMOOTH",
"304 478 OFFCURVE",
"299 466 OFFCURVE",
"298 459 CURVE",
"355 363 LINE"
);
}
);
width = 785;
},
{
layerId = "CC11FE7D-5FF0-4B40-9597-DFC61EB94F41";
paths = (
{
closed = 1;
nodes = (
"607 3 OFFCURVE",
"701 65 OFFCURVE",
"701 332 CURVE SMOOTH",
"701 601 OFFCURVE",
"606 661 OFFCURVE",
"501 661 CURVE SMOOTH",
"367 661 OFFCURVE",
"332 545 OFFCURVE",
"332 419 CURVE SMOOTH",
"332 369 OFFCURVE",
"326 301 OFFCURVE",
"271 271 CURVE",
"285 238 LINE",
"365 273 OFFCURVE",
"374 354 OFFCURVE",
"374 413 CURVE SMOOTH",
"374 518 OFFCURVE",
"394 619 OFFCURVE",
"501 619 CURVE SMOOTH",
"585 619 OFFCURVE",
"658 566 OFFCURVE",
"658 332 CURVE SMOOTH",
"658 99 OFFCURVE",
"585 45 OFFCURVE",
"509 45 CURVE SMOOTH",
"449 45 OFFCURVE",
"413 94 OFFCURVE",
"409 140 CURVE",
"383 80 LINE",
"404 36 OFFCURVE",
"446 3 OFFCURVE",
"509 3 CURVE SMOOTH"
);
},
{
closed = 1;
nodes = (
"390 3 OFFCURVE",
"440 98 OFFCURVE",
"440 180 CURVE SMOOTH",
"440 253 OFFCURVE",
"407 297 OFFCURVE",
"355 297 CURVE SMOOTH",
"339 297 OFFCURVE",
"321 293 OFFCURVE",
"301 283 CURVE",
"311 253 LINE",
"324 260 OFFCURVE",
"336 264 OFFCURVE",
"347 264 CURVE SMOOTH",
"380 264 OFFCURVE",
"397 228 OFFCURVE",
"397 180 CURVE SMOOTH",
"397 117 OFFCURVE",
"360 46 OFFCURVE",
"259 46 CURVE SMOOTH",
"156 46 OFFCURVE",
"91 121 OFFCURVE",
"91 233 CURVE SMOOTH",
"91 254 OFFCURVE",
"94 277 OFFCURVE",
"98 300 CURVE SMOOTH",
"110 360 OFFCURVE",
"142 420 OFFCURVE",
"217 420 CURVE SMOOTH",
"362 420 LINE",
"362 461 LINE",
"38 461 LINE",
"38 420 LINE",
"110 420 LINE",
"85 400 OFFCURVE",
"67 357 OFFCURVE",
"57 307 CURVE SMOOTH",
"52 280 OFFCURVE",
"49 253 OFFCURVE",
"49 229 CURVE SMOOTH",
"49 94 OFFCURVE",
"129 3 OFFCURVE",
"259 3 CURVE SMOOTH"
);
},
{
closed = 1;
nodes = (
"363 454 OFFCURVE",
"367 481 OFFCURVE",
"367 517 CURVE SMOOTH",
"367 527 OFFCURVE",
"366 537 OFFCURVE",
"365 546 CURVE SMOOTH",
"352 633 OFFCURVE",
"287 673 OFFCURVE",
"216 673 CURVE SMOOTH",
"152 673 OFFCURVE",
"84 629 OFFCURVE",
"84 539 CURVE SMOOTH",
"84 477 OFFCURVE",
"116 440 OFFCURVE",
"130 428 CURVE",
"155 451 LINE",
"145 462 OFFCURVE",
"125 492 OFFCURVE",
"125 539 CURVE SMOOTH",
"125 602 OFFCURVE",
"172 632 OFFCURVE",
"216 632 CURVE SMOOTH",
"276 632 OFFCURVE",
"328 596 OFFCURVE",
"328 517 CURVE SMOOTH",
"329 497 OFFCURVE",
"329 477 OFFCURVE",
"328 457 CURVE",
"353 423 LINE"
);
}
);
width = 738;
}
);
unicode = 0DB7;
},
{
glyphname = sinMa;
lastChange = "2021-06-09 01:21:28 +0000";
layers = (
{
layerId = "6114C541-D024-4A3E-9713-6FAF49EAB318";
paths = (
{
closed = 1;
nodes = (
"25 343 CURVE SMOOTH",
"25 450 OFFCURVE",
"68 600 OFFCURVE",
"187 600 CURVE SMOOTH",
"248 600 OFFCURVE",
"295 554 OFFCURVE",
"295 486 CURVE SMOOTH",
"295 448 OFFCURVE",
"286 416 OFFCURVE",
"286 381 CURVE SMOOTH",
"286 363 OFFCURVE",
"288 349 OFFCURVE",
"306 349 CURVE SMOOTH",
"328 349 OFFCURVE",
"332 394 OFFCURVE",
"332 432 CURVE SMOOTH",
"332 473 OFFCURVE",
"328 506 OFFCURVE",
"305 506 CURVE SMOOTH",
"298 506 OFFCURVE",
"290 502 OFFCURVE",
"290 490 CURVE",
"242 569 LINE",
"251 580 OFFCURVE",
"277 600 OFFCURVE",
"315 600 CURVE SMOOTH",
"402 600 OFFCURVE",
"426 520 OFFCURVE",
"426 431 CURVE SMOOTH",
"426 330 OFFCURVE",
"394 252 OFFCURVE",
"303 252 CURVE SMOOTH",
"231 252 OFFCURVE",
"190 303 OFFCURVE",
"190 373 CURVE SMOOTH",
"190 410 OFFCURVE",
"198 437 OFFCURVE",
"198 464 CURVE SMOOTH",
"198 475 OFFCURVE",
"198 493 OFFCURVE",
"183 493 CURVE SMOOTH",
"153 493 OFFCURVE",
"141 396 OFFCURVE",
"141 343 CURVE SMOOTH",
"141 218 OFFCURVE",
"189 131 OFFCURVE",
"306 131 CURVE SMOOTH",
"425 131 OFFCURVE",
"472 222 OFFCURVE",
"472 403 CURVE SMOOTH",
"472 663 OFFCURVE",
"390 728 OFFCURVE",
"296 728 CURVE SMOOTH",
"249 728 OFFCURVE",
"203 704 OFFCURVE",
"184 656 CURVE",
"60 698 LINE",
"101 806 OFFCURVE",
"197 859 OFFCURVE",
"296 859 CURVE SMOOTH",
"454 859 OFFCURVE",
"603 769 OFFCURVE",
"603 403 CURVE SMOOTH",
"603 134 OFFCURVE",
"511 0 OFFCURVE",
"306 0 CURVE SMOOTH",
"104 0 OFFCURVE",
"25 141 OFFCURVE"
);
}
);
width = 628;
},
{
layerId = "CC11FE7D-5FF0-4B40-9597-DFC61EB94F41";
paths = (
{
closed = 1;
nodes = (
"38 332 CURVE SMOOTH",
"38 523 OFFCURVE",
"93 589 OFFCURVE",
"165 589 CURVE SMOOTH",
"235 589 OFFCURVE",
"251 550 OFFCURVE",
"251 503 CURVE SMOOTH",
"251 466 OFFCURVE",
"241 425 OFFCURVE",
"241 395 CURVE SMOOTH",
"241 340 OFFCURVE",
"253 302 OFFCURVE",
"304 302 CURVE SMOOTH",
"358 302 OFFCURVE",
"363 375 OFFCURVE",
"363 439 CURVE SMOOTH",
"363 512 OFFCURVE",
"332 552 OFFCURVE",
"297 552 CURVE SMOOTH",
"273 552 OFFCURVE",
"256 543 OFFCURVE",
"246 526 CURVE",
"220 556 LINE",
"238 575 OFFCURVE",
"259 592 OFFCURVE",
"297 592 CURVE SMOOTH",
"355 592 OFFCURVE",
"403 544 OFFCURVE",
"403 439 CURVE SMOOTH",
"403 390 OFFCURVE",
"401 262 OFFCURVE",
"304 262 CURVE SMOOTH",
"219 262 OFFCURVE",
"202 326 OFFCURVE",
"202 395 CURVE SMOOTH",
"202 424 OFFCURVE",
"212 464 OFFCURVE",
"212 496 CURVE SMOOTH",
"212 527 OFFCURVE",
"203 551 OFFCURVE",
"165 551 CURVE SMOOTH",
"116 551 OFFCURVE",
"79 498 OFFCURVE",
"79 332 CURVE SMOOTH",
"79 229 OFFCURVE",
"115 46 OFFCURVE",
"301 46 CURVE SMOOTH",
"447 46 OFFCURVE",
"530 171 OFFCURVE",
"530 403 CURVE SMOOTH",
"530 722 OFFCURVE",
"427 810 OFFCURVE",
"300 810 CURVE SMOOTH",
"220 810 OFFCURVE",
"154 758 OFFCURVE",
"127 688 CURVE",
"89 703 LINE",
"132 815 OFFCURVE",
"232 852 OFFCURVE",
"300 852 CURVE SMOOTH",
"451 852 OFFCURVE",
"573 754 OFFCURVE",
"573 403 CURVE SMOOTH",
"573 144 OFFCURVE",
"474 3 OFFCURVE",
"301 3 CURVE SMOOTH",
"81 3 OFFCURVE",
"38 214 OFFCURVE"
);
}
);
width = 610;
}
);
unicode = 0DB8;
},
{
glyphname = sinMba;
lastChange = "2021-06-09 01:21:28 +0000";
layers = (
{
layerId = "6114C541-D024-4A3E-9713-6FAF49EAB318";
paths = (
{
closed = 1;
nodes = (
"25 288 CURVE SMOOTH",
"25 443 OFFCURVE",
"63 600 OFFCURVE",
"194 600 CURVE SMOOTH",
"267 600 OFFCURVE",
"313 547 OFFCURVE",
"313 498 CURVE",
"220 470 LINE",
"220 483 OFFCURVE",
"208 488 OFFCURVE",
"196 488 CURVE SMOOTH",
"160 488 OFFCURVE",
"146 396 OFFCURVE",
"146 303 CURVE SMOOTH",
"146 230 OFFCURVE",
"151 131 OFFCURVE",
"196 131 CURVE SMOOTH",
"211 131 OFFCURVE",
"215 140 OFFCURVE",
"215 154 CURVE SMOOTH",
"215 170 OFFCURVE",
"209 193 OFFCURVE",
"209 215 CURVE SMOOTH",
"209 270 OFFCURVE",
"246 294 OFFCURVE",
"327 294 CURVE SMOOTH",
"407 294 OFFCURVE",
"444 270 OFFCURVE",
"444 215 CURVE SMOOTH",
"444 193 OFFCURVE",
"439 170 OFFCURVE",
"439 154 CURVE SMOOTH",
"439 140 OFFCURVE",
"443 131 OFFCURVE",
"457 131 CURVE SMOOTH",
"502 131 OFFCURVE",
"504 273 OFFCURVE",
"504 333 CURVE SMOOTH",
"504 595 OFFCURVE",
"455 728 OFFCURVE",
"298 728 CURVE SMOOTH",
"251 728 OFFCURVE",
"197 704 OFFCURVE",
"177 656 CURVE",
"53 698 LINE",
"94 806 OFFCURVE",
"199 859 OFFCURVE",
"298 859 CURVE SMOOTH",
"545 859 OFFCURVE",
"635 682 OFFCURVE",
"635 333 CURVE SMOOTH",
"635 207 OFFCURVE",
"622 0 OFFCURVE",
"457 0 CURVE SMOOTH",
"382 0 OFFCURVE",
"345 61 OFFCURVE",
"345 107 CURVE SMOOTH",
"345 142 OFFCURVE",
"352 161 OFFCURVE",
"352 180 CURVE SMOOTH",
"352 195 OFFCURVE",
"346 205 OFFCURVE",
"327 205 CURVE SMOOTH",
"307 205 OFFCURVE",
"302 195 OFFCURVE",
"302 180 CURVE SMOOTH",
"302 161 OFFCURVE",
"308 142 OFFCURVE",
"308 107 CURVE SMOOTH",
"308 61 OFFCURVE",
"271 0 OFFCURVE",
"196 0 CURVE SMOOTH",
"58 0 OFFCURVE",
"25 131 OFFCURVE"
);
},
{
closed = 1;
nodes = (
"216 427 CURVE SMOOTH",
"216 440 OFFCURVE",
"220 454 OFFCURVE",
"220 470 CURVE",
"313 498 LINE",
"313 483 OFFCURVE",
"311 469 OFFCURVE",
"311 458 CURVE SMOOTH",
"311 427 OFFCURVE",
"317 414 OFFCURVE",
"332 414 CURVE SMOOTH",
"345 414 OFFCURVE",
"352 426 OFFCURVE",
"352 460 CURVE SMOOTH",
"352 485 OFFCURVE",
"349 509 OFFCURVE",
"330 509 CURVE SMOOTH",
"322 509 OFFCURVE",
"314 506 OFFCURVE",
"308 498 CURVE",
"262 567 LINE",
"275 584 OFFCURVE",
"296 599 OFFCURVE",
"334 599 CURVE SMOOTH",
"402 599 OFFCURVE",
"437 546 OFFCURVE",
"437 460 CURVE SMOOTH",
"437 372 OFFCURVE",
"419 313 OFFCURVE",
"327 313 CURVE SMOOTH",
"244 313 OFFCURVE",
"216 361 OFFCURVE"
);
}
);
width = 657;
},
{
layerId = "CC11FE7D-5FF0-4B40-9597-DFC61EB94F41";
paths = (
{
closed = 1;
nodes = (
"38 286 CURVE SMOOTH",
"38 444 OFFCURVE",
"73 596 OFFCURVE",
"173 596 CURVE SMOOTH",
"247 596 OFFCURVE",
"274 539 OFFCURVE",
"274 485 CURVE",
"234 477 LINE",
"234 535 OFFCURVE",
"207 556 OFFCURVE",
"173 556 CURVE SMOOTH",
"105 556 OFFCURVE",
"80 419 OFFCURVE",
"80 286 CURVE SMOOTH",
"80 191 OFFCURVE",
"84 46 OFFCURVE",
"177 46 CURVE SMOOTH",
"209 46 OFFCURVE",
"232 71 OFFCURVE",
"232 102 CURVE SMOOTH",
"232 147 OFFCURVE",
"208 159 OFFCURVE",
"208 200 CURVE SMOOTH",
"208 262 OFFCURVE",
"252 278 OFFCURVE",
"311 278 CURVE SMOOTH",
"371 278 OFFCURVE",
"415 262 OFFCURVE",
"415 200 CURVE SMOOTH",
"415 159 OFFCURVE",
"391 147 OFFCURVE",
"391 102 CURVE SMOOTH",
"391 71 OFFCURVE",
"414 46 OFFCURVE",
"446 46 CURVE SMOOTH",
"551 46 OFFCURVE",
"559 187 OFFCURVE",
"559 333 CURVE SMOOTH",
"559 657 OFFCURVE",
"474 810 OFFCURVE",
"300 810 CURVE SMOOTH",
"219 810 OFFCURVE",
"141 758 OFFCURVE",
"115 688 CURVE",
"76 703 LINE",
"108 788 OFFCURVE",
"202 852 OFFCURVE",
"300 852 CURVE SMOOTH",
"503 852 OFFCURVE",
"601 685 OFFCURVE",
"601 333 CURVE SMOOTH",
"601 165 OFFCURVE",
"590 3 OFFCURVE",
"446 3 CURVE SMOOTH",
"390 3 OFFCURVE",
"349 47 OFFCURVE",
"349 102 CURVE SMOOTH",
"349 149 OFFCURVE",
"373 167 OFFCURVE",
"373 196 CURVE SMOOTH",
"373 229 OFFCURVE",
"344 236 OFFCURVE",
"311 236 CURVE SMOOTH",
"278 236 OFFCURVE",
"250 229 OFFCURVE",
"250 196 CURVE SMOOTH",
"250 167 OFFCURVE",
"274 149 OFFCURVE",
"274 102 CURVE SMOOTH",
"274 47 OFFCURVE",
"233 3 OFFCURVE",
"177 3 CURVE SMOOTH",
"47 3 OFFCURVE",
"38 174 OFFCURVE"
);
},
{
closed = 1;
nodes = (
"231 421 CURVE SMOOTH",
"231 439 OFFCURVE",
"234 452 OFFCURVE",
"234 477 CURVE",
"274 485 LINE",
"274 473 OFFCURVE",
"272 440 OFFCURVE",
"272 421 CURVE SMOOTH",
"272 394 OFFCURVE",
"279 361 OFFCURVE",
"321 361 CURVE SMOOTH",
"370 361 OFFCURVE",
"371 435 OFFCURVE",
"371 457 CURVE SMOOTH",
"371 480 OFFCURVE",
"370 554 OFFCURVE",
"321 554 CURVE SMOOTH",
"294 554 OFFCURVE",
"275 535 OFFCURVE",
"271 502 CURVE",
"236 505 LINE",
"241 553 OFFCURVE",
"266 595 OFFCURVE",
"321 595 CURVE SMOOTH",
"410 595 OFFCURVE",
"412 490 OFFCURVE",
"412 457 CURVE SMOOTH",
"412 425 OFFCURVE",
"410 320 OFFCURVE",
"321 320 CURVE SMOOTH",
"256 320 OFFCURVE",
"231 368 OFFCURVE"
);
}
);
width = 638;
}
);
unicode = 0DB9;
},
{
glyphname = sinYa;
lastChange = "2021-06-09 01:21:28 +0000";
layers = (
{
layerId = "6114C541-D024-4A3E-9713-6FAF49EAB318";
paths = (
{
closed = 1;
nodes = (
"273 0 OFFCURVE",
"318 36 OFFCURVE",
"336 90 CURVE",
"354 36 OFFCURVE",
"399 0 OFFCURVE",
"459 0 CURVE SMOOTH",
"586 0 OFFCURVE",
"637 108 OFFCURVE",
"637 236 CURVE SMOOTH",
"637 327 OFFCURVE",
"615 391 OFFCURVE",
"567 433 CURVE SMOOTH",
"541 456 OFFCURVE",
"505 473 OFFCURVE",
"467 473 CURVE SMOOTH",
"285 473 LINE",
"301 362 LINE",
"447 362 LINE SMOOTH",
"492 362 OFFCURVE",
"516 294 OFFCURVE",
"516 236 CURVE SMOOTH",
"516 179 OFFCURVE",
"499 131 OFFCURVE",
"459 131 CURVE SMOOTH",
"406 131 OFFCURVE",
"388 201 OFFCURVE",
"388 284 CURVE",
"284 284 LINE",
"284 201 OFFCURVE",
"266 131 OFFCURVE",
"213 131 CURVE SMOOTH",
"147 131 OFFCURVE",
"147 235 OFFCURVE",
"147 291 CURVE SMOOTH",
"147 340 OFFCURVE",
"170 441 OFFCURVE",
"243 441 CURVE SMOOTH",
"258 441 OFFCURVE",
"275 436 OFFCURVE",
"295 427 CURVE",
"346 529 LINE",
"307 549 OFFCURVE",
"268 559 OFFCURVE",
"231 559 CURVE SMOOTH",
"118 559 OFFCURVE",
"25 467 OFFCURVE",
"25 291 CURVE SMOOTH",
"25 142 OFFCURVE",
"47 0 OFFCURVE",
"213 0 CURVE SMOOTH"
);
},
{
closed = 1;
nodes = (
"596 449 OFFCURVE",
"609 487 OFFCURVE",
"609 519 CURVE SMOOTH",
"609 606 OFFCURVE",
"549 676 OFFCURVE",
"451 676 CURVE SMOOTH",
"379 676 OFFCURVE",
"312 633 OFFCURVE",
"290 550 CURVE SMOOTH",
"289 545 OFFCURVE",
"282 519 OFFCURVE",
"282 493 CURVE SMOOTH",
"282 443 OFFCURVE",
"287 410 OFFCURVE",
"301 362 CURVE",
"389 473 LINE",
"388 480 OFFCURVE",
"387 488 OFFCURVE",
"387 494 CURVE SMOOTH",
"387 547 OFFCURVE",
"420 564 OFFCURVE",
"446 564 CURVE SMOOTH",
"486 564 OFFCURVE",
"502 541 OFFCURVE",
"502 513 CURVE SMOOTH",
"502 500 OFFCURVE",
"495 477 OFFCURVE",
"486 467 CURVE",
"573 420 LINE"
);
}
);
width = 662;
},
{
layerId = "CC11FE7D-5FF0-4B40-9597-DFC61EB94F41";
paths = (
{
closed = 1;
nodes = (
"299 3 OFFCURVE",
"321 97 OFFCURVE",
"325 131 CURVE",
"330 97 OFFCURVE",
"351 3 OFFCURVE",
"460 3 CURVE SMOOTH",
"563 3 OFFCURVE",
"613 99 OFFCURVE",
"613 221 CURVE SMOOTH",
"613 296 OFFCURVE",
"596 396 OFFCURVE",
"536 439 CURVE SMOOTH",
"517 453 OFFCURVE",
"494 461 OFFCURVE",
"465 461 CURVE SMOOTH",
"317 461 LINE",
"325 420 LINE",
"463 420 LINE SMOOTH",
"559 420 OFFCURVE",
"571 287 OFFCURVE",
"571 221 CURVE SMOOTH",
"571 122 OFFCURVE",
"535 46 OFFCURVE",
"460 46 CURVE SMOOTH",
"356 46 OFFCURVE",
"348 169 OFFCURVE",
"345 255 CURVE",
"306 255 LINE",
"302 169 OFFCURVE",
"295 46 OFFCURVE",
"191 46 CURVE SMOOTH",
"104 46 OFFCURVE",
"80 145 OFFCURVE",
"80 272 CURVE SMOOTH",
"80 454 OFFCURVE",
"158 510 OFFCURVE",
"228 510 CURVE SMOOTH",
"260 510 OFFCURVE",
"292 499 OFFCURVE",
"312 483 CURVE",
"340 511 LINE",
"312 536 OFFCURVE",
"271 552 OFFCURVE",
"228 552 CURVE SMOOTH",
"137 552 OFFCURVE",
"38 482 OFFCURVE",
"38 272 CURVE SMOOTH",
"38 121 OFFCURVE",
"71 3 OFFCURVE",
"191 3 CURVE SMOOTH"
);
},
{
closed = 1;
nodes = (
"557 439 OFFCURVE",
"580 489 OFFCURVE",
"580 539 CURVE SMOOTH",
"580 629 OFFCURVE",
"512 673 OFFCURVE",
"448 673 CURVE SMOOTH",
"384 673 OFFCURVE",
"324 636 OFFCURVE",
"309 555 CURVE SMOOTH",
"307 543 OFFCURVE",
"306 531 OFFCURVE",
"306 517 CURVE SMOOTH",
"306 480 OFFCURVE",
"314 453 OFFCURVE",
"325 420 CURVE",
"354 460 LINE",
"349 477 OFFCURVE",
"345 496 OFFCURVE",
"345 517 CURVE SMOOTH",
"345 597 OFFCURVE",
"393 634 OFFCURVE",
"448 634 CURVE SMOOTH",
"494 634 OFFCURVE",
"542 603 OFFCURVE",
"542 539 CURVE SMOOTH",
"542 498 OFFCURVE",
"522 457 OFFCURVE",
"491 435 CURVE",
"521 411 LINE"
);
}
);
width = 650;
}
);
unicode = 0DBA;
},
{
glyphname = sinRa;
lastChange = "2021-06-09 01:21:28 +0000";
layers = (
{
layerId = "6114C541-D024-4A3E-9713-6FAF49EAB318";
paths = (
{
closed = 1;
nodes = (
"25 314 LINE",
"25 448 OFFCURVE",
"68 541 OFFCURVE",
"156 628 CURVE SMOOTH",
"307 778 OFFCURVE",
"315 819 OFFCURVE",
"315 887 CURVE",
"440 887 LINE",
"440 775 OFFCURVE",
"383 702 OFFCURVE",
"295 611 CURVE SMOOTH",
"283 599 OFFCURVE",
"153 525 OFFCURVE",
"153 313 CURVE",
"100 230 LINE"
);
},
{
closed = 1;
nodes = (
"153 313 CURVE SMOOTH",
"153 211 OFFCURVE",
"189 127 OFFCURVE",
"285 127 CURVE SMOOTH",
"377 127 OFFCURVE",
"411 211 OFFCURVE",
"411 313 CURVE SMOOTH",
"411 413 OFFCURVE",
"377 502 OFFCURVE",
"285 502 CURVE SMOOTH",
"189 502 OFFCURVE",
"153 413 OFFCURVE"
);
},
{
closed = 1;
nodes = (
"25 314 CURVE SMOOTH",
"25 400 OFFCURVE",
"45 476 OFFCURVE",
"84 531 CURVE SMOOTH",
"93 544 OFFCURVE",
"182 564 OFFCURVE",
"217 582 CURVE",
"231 595 OFFCURVE",
"274 614 OFFCURVE",
"325 614 CURVE SMOOTH",
"389 614 OFFCURVE",
"465 585 OFFCURVE",
"510 480 CURVE SMOOTH",
"531 433 OFFCURVE",
"541 376 OFFCURVE",
"541 314 CURVE SMOOTH",
"541 134 OFFCURVE",
"456 0 OFFCURVE",
"282 0 CURVE SMOOTH",
"109 0 OFFCURVE",
"25 134 OFFCURVE"
);
}
);
width = 565;
},
{
layerId = "CC11FE7D-5FF0-4B40-9597-DFC61EB94F41";
paths = (
{
closed = 1;
nodes = (
"38 299 LINE",
"38 431 OFFCURVE",
"97 532 OFFCURVE",
"189 624 CURVE SMOOTH",
"287 721 OFFCURVE",
"356 794 OFFCURVE",
"356 883 CURVE",
"397 883 LINE",
"397 783 OFFCURVE",
"325 701 OFFCURVE",
"197 574 CURVE SMOOTH",
"160 537 OFFCURVE",
"80 431 OFFCURVE",
"80 299 CURVE",
"56 283 LINE"
);
},
{
closed = 1;
nodes = (
"80 299 CURVE SMOOTH",
"80 147 OFFCURVE",
"152 46 OFFCURVE",
"272 46 CURVE SMOOTH",
"398 46 OFFCURVE",
"468 166 OFFCURVE",
"468 314 CURVE SMOOTH",
"468 459 OFFCURVE",
"400 559 OFFCURVE",
"295 559 CURVE SMOOTH",
"125 559 OFFCURVE",
"80 388 OFFCURVE"
);
},
{
closed = 1;
nodes = (
"38 299 CURVE SMOOTH",
"38 352 OFFCURVE",
"54 450 OFFCURVE",
"103 512 CURVE SMOOTH",
"118 532 OFFCURVE",
"144 541 OFFCURVE",
"166 555 CURVE",
"199 585 OFFCURVE",
"239 599 OFFCURVE",
"295 599 CURVE SMOOTH",
"377 599 OFFCURVE",
"440 554 OFFCURVE",
"477 478 CURVE SMOOTH",
"498 433 OFFCURVE",
"510 377 OFFCURVE",
"510 314 CURVE SMOOTH",
"510 143 OFFCURVE",
"425 3 OFFCURVE",
"272 3 CURVE SMOOTH",
"120 3 OFFCURVE",
"38 128 OFFCURVE"
);
}
);
width = 547;
}
);
unicode = 0DBB;
},
{
glyphname = sinLa;
lastChange = "2021-06-13 08:39:58 +0000";
layers = (
{
layerId = "6114C541-D024-4A3E-9713-6FAF49EAB318";
paths = (
{
closed = 1;
nodes = (
"519 -175 OFFCURVE",
"622 -65 OFFCURVE",
"636 65 CURVE",
"507 83 LINE",
"497 11 OFFCURVE",
"437 -44 OFFCURVE",
"352 -44 CURVE SMOOTH",
"231 -44 OFFCURVE",
"156 74 OFFCURVE",
"156 237 CURVE SMOOTH",
"156 401 OFFCURVE",
"210 545 OFFCURVE",
"356 545 CURVE SMOOTH",
"460 545 OFFCURVE",
"512 486 OFFCURVE",
"512 378 CURVE SMOOTH",
"512 298 OFFCURVE",
"492 224 OFFCURVE",
"435 224 CURVE SMOOTH",
"402 224 OFFCURVE",
"378 249 OFFCURVE",
"378 275 CURVE SMOOTH",
"378 307 OFFCURVE",
"398 341 OFFCURVE",
"453 341 CURVE",
"453 449 LINE",
"231 449 LINE",
"230 341 LINE",
"279 341 LINE",
"265 321 OFFCURVE",
"257 292 OFFCURVE",
"257 261 CURVE SMOOTH",
"257 186 OFFCURVE",
"304 100 OFFCURVE",
"437 100 CURVE SMOOTH",
"570 100 OFFCURVE",
"642 222 OFFCURVE",
"642 378 CURVE SMOOTH",
"642 513 OFFCURVE",
"553 676 OFFCURVE",
"356 676 CURVE SMOOTH",
"113 676 OFFCURVE",
"25 459 OFFCURVE",
"25 237 CURVE SMOOTH",
"25 7 OFFCURVE",
"128 -175 OFFCURVE",
"352 -175 CURVE SMOOTH"
);
}
);
width = 667;
},
{
layerId = "CC11FE7D-5FF0-4B40-9597-DFC61EB94F41";
paths = (
{
closed = 1;
nodes = (
"501 -170 OFFCURVE",
"576 -63 OFFCURVE",
"600 35 CURVE",
"560 42 LINE",
"539 -39 OFFCURVE",
"468 -127 OFFCURVE",
"335 -127 CURVE SMOOTH",
"170 -127 OFFCURVE",
"80 15 OFFCURVE",
"80 237 CURVE SMOOTH",
"80 458 OFFCURVE",
"159 630 OFFCURVE",
"339 630 CURVE SMOOTH",
"471 630 OFFCURVE",
"568 518 OFFCURVE",
"568 378 CURVE SMOOTH",
"568 277 OFFCURVE",
"541 156 OFFCURVE",
"419 156 CURVE SMOOTH",
"366 156 OFFCURVE",
"319 202 OFFCURVE",
"319 259 CURVE SMOOTH",
"319 307 OFFCURVE",
"351 363 OFFCURVE",
"426 378 CURVE",
"426 420 LINE",
"243 420 LINE",
"243 381 LINE",
"351 381 LINE",
"302 357 OFFCURVE",
"277 310 OFFCURVE",
"277 259 CURVE SMOOTH",
"277 190 OFFCURVE",
"321 114 OFFCURVE",
"419 114 CURVE SMOOTH",
"550 114 OFFCURVE",
"610 230 OFFCURVE",
"610 378 CURVE SMOOTH",
"610 514 OFFCURVE",
"526 673 OFFCURVE",
"339 673 CURVE SMOOTH",
"130 673 OFFCURVE",
"38 468 OFFCURVE",
"38 237 CURVE SMOOTH",
"38 0 OFFCURVE",
"134 -170 OFFCURVE",
"335 -170 CURVE SMOOTH"
);
}
);
width = 647;
}
);
unicode = 0DBD;
},
{
glyphname = sinVa;
lastChange = "2021-06-09 01:21:28 +0000";
layers = (
{
layerId = "6114C541-D024-4A3E-9713-6FAF49EAB318";
paths = (
{
closed = 1;
nodes = (
"492 0 OFFCURVE",
"584 134 OFFCURVE",
"585 403 CURVE SMOOTH",
"585 769 OFFCURVE",
"436 859 OFFCURVE",
"278 859 CURVE SMOOTH",
"179 859 OFFCURVE",
"83 806 OFFCURVE",
"42 698 CURVE",
"166 656 LINE",
"185 704 OFFCURVE",
"231 728 OFFCURVE",
"278 728 CURVE SMOOTH",
"372 728 OFFCURVE",
"453 663 OFFCURVE",
"453 403 CURVE SMOOTH",
"453 222 OFFCURVE",
"406 131 OFFCURVE",
"287 131 CURVE SMOOTH",
"181 131 OFFCURVE",
"151 198 OFFCURVE",
"151 258 CURVE SMOOTH",
"151 308 OFFCURVE",
"165 348 OFFCURVE",
"229 348 CURVE SMOOTH",
"371 348 LINE",
"287 445 LINE",
"180 445 LINE SMOOTH",
"138 445 OFFCURVE",
"106 433 OFFCURVE",
"82 412 CURVE SMOOTH",
"47 382 OFFCURVE",
"25 318 OFFCURVE",
"25 249 CURVE SMOOTH",
"25 156 OFFCURVE",
"84 0 OFFCURVE",
"287 0 CURVE SMOOTH"
);
},
{
closed = 1;
nodes = (
"196 405 LINE",
"186 421 OFFCURVE",
"172 440 OFFCURVE",
"172 461 CURVE SMOOTH",
"172 485 OFFCURVE",
"182 505 OFFCURVE",
"210 505 CURVE SMOOTH",
"251 505 OFFCURVE",
"270 474 OFFCURVE",
"270 440 CURVE SMOOTH",
"270 434 OFFCURVE",
"269 429 OFFCURVE",
"268 423 CURVE",
"371 348 LINE",
"376 370 OFFCURVE",
"379 399 OFFCURVE",
"379 416 CURVE SMOOTH",
"379 540 OFFCURVE",
"298 605 OFFCURVE",
"210 605 CURVE SMOOTH",
"126 605 OFFCURVE",
"70 548 OFFCURVE",
"70 466 CURVE SMOOTH",
"70 433 OFFCURVE",
"82 399 OFFCURVE",
"105 363 CURVE"
);
}
);
width = 609;
},
{
layerId = "CC11FE7D-5FF0-4B40-9597-DFC61EB94F41";
paths = (
{
closed = 1;
nodes = (
"459 3 OFFCURVE",
"558 144 OFFCURVE",
"558 403 CURVE SMOOTH",
"558 754 OFFCURVE",
"435 852 OFFCURVE",
"285 852 CURVE SMOOTH",
"216 852 OFFCURVE",
"116 815 OFFCURVE",
"73 703 CURVE",
"112 688 LINE",
"138 758 OFFCURVE",
"204 810 OFFCURVE",
"285 810 CURVE SMOOTH",
"411 810 OFFCURVE",
"514 722 OFFCURVE",
"514 403 CURVE SMOOTH",
"514 171 OFFCURVE",
"431 46 OFFCURVE",
"286 46 CURVE SMOOTH",
"113 46 OFFCURVE",
"79 176 OFFCURVE",
"79 249 CURVE SMOOTH",
"79 340 OFFCURVE",
"120 403 OFFCURVE",
"191 403 CURVE SMOOTH",
"346 403 LINE",
"324 442 LINE",
"191 442 LINE SMOOTH",
"157 442 OFFCURVE",
"127 432 OFFCURVE",
"103 413 CURVE SMOOTH",
"62 381 OFFCURVE",
"38 324 OFFCURVE",
"38 249 CURVE SMOOTH",
"38 161 OFFCURVE",
"79 3 OFFCURVE",
"286 3 CURVE SMOOTH"
);
},
{
closed = 1;
nodes = (
"146 414 LINE",
"131 428 OFFCURVE",
"120 450 OFFCURVE",
"120 478 CURVE SMOOTH",
"120 531 OFFCURVE",
"159 558 OFFCURVE",
"207 558 CURVE SMOOTH",
"262 558 OFFCURVE",
"305 521 OFFCURVE",
"310 440 CURVE",
"311 437 OFFCURVE",
"311 435 OFFCURVE",
"311 431 CURVE",
"346 403 LINE",
"348 415 OFFCURVE",
"349 427 OFFCURVE",
"349 440 CURVE SMOOTH",
"349 547 OFFCURVE",
"281 596 OFFCURVE",
"207 596 CURVE SMOOTH",
"140 596 OFFCURVE",
"82 555 OFFCURVE",
"82 478 CURVE SMOOTH",
"82 442 OFFCURVE",
"100 407 OFFCURVE",
"118 391 CURVE"
);
}
);
width = 596;
}
);
unicode = 0DC0;
},
{
glyphname = sinSha;
lastChange = "2021-06-09 01:21:28 +0000";
layers = (
{
layerId = "6114C541-D024-4A3E-9713-6FAF49EAB318";
paths = (
{
closed = 1;
nodes = (
"480 163 CURVE SMOOTH",
"480 266 OFFCURVE",
"536 338 OFFCURVE",
"604 338 CURVE SMOOTH",
"621 338 OFFCURVE",
"639 334 OFFCURVE",
"657 325 CURVE",
"643 242 LINE",
"636 245 OFFCURVE",
"627 246 OFFCURVE",
"619 246 CURVE SMOOTH",
"589 246 OFFCURVE",
"576 205 OFFCURVE",
"576 167 CURVE SMOOTH",
"576 119 OFFCURVE",
"590 92 OFFCURVE",
"618 92 CURVE SMOOTH",
"633 92 OFFCURVE",
"651 104 OFFCURVE",
"669 104 CURVE SMOOTH",
"697 104 OFFCURVE",
"736 85 OFFCURVE",
"776 53 CURVE",
"710 -8 LINE",
"685 5 OFFCURVE",
"676 14 OFFCURVE",
"661 14 CURVE SMOOTH",
"646 14 OFFCURVE",
"624 0 OFFCURVE",
"600 0 CURVE SMOOTH",
"507 0 OFFCURVE",
"480 80 OFFCURVE"
);
},
{
closed = 1;
nodes = (
"247 342 LINE",
"300 376 OFFCURVE",
"303 412 OFFCURVE",
"303 446 CURVE SMOOTH",
"303 454 OFFCURVE",
"303 461 OFFCURVE",
"303 468 CURVE SMOOTH",
"313 602 OFFCURVE",
"417 665 OFFCURVE",
"527 665 CURVE SMOOTH",
"691 665 OFFCURVE",
"766 557 OFFCURVE",
"766 352 CURVE SMOOTH",
"766 284 OFFCURVE",
"753 210 OFFCURVE",
"753 150 CURVE SMOOTH",
"753 110 OFFCURVE",
"759 77 OFFCURVE",
"776 53 CURVE",
"710 -8 LINE",
"675 25 OFFCURVE",
"651 48 OFFCURVE",
"642 93 CURVE",
"637 119 OFFCURVE",
"634 148 OFFCURVE",
"634 183 CURVE SMOOTH",
"634 201 OFFCURVE",
"635 220 OFFCURVE",
"636 242 CURVE",
"641 277 OFFCURVE",
"645 314 OFFCURVE",
"645 352 CURVE SMOOTH",
"645 476 OFFCURVE",
"605 543 OFFCURVE",
"527 543 CURVE SMOOTH",
"449 543 OFFCURVE",
"419 500 OFFCURVE",
"419 443 CURVE SMOOTH",
"419 433 OFFCURVE",
"419 423 OFFCURVE",
"419 412 CURVE SMOOTH",
"419 326 OFFCURVE",
"368 289 OFFCURVE",
"299 250 CURVE"
);
},
{
closed = 1;
nodes = (
"25 332 CURVE SMOOTH",
"25 586 OFFCURVE",
"122 665 OFFCURVE",
"239 665 CURVE SMOOTH",
"326 665 OFFCURVE",
"373 608 OFFCURVE",
"384 567 CURVE",
"310 485 LINE",
"304 504 OFFCURVE",
"287 544 OFFCURVE",
"239 544 CURVE SMOOTH",
"190 544 OFFCURVE",
"149 494 OFFCURVE",
"149 332 CURVE SMOOTH",
"149 164 OFFCURVE",
"202 122 OFFCURVE",
"258 122 CURVE SMOOTH",
"328 122 OFFCURVE",
"349 166 OFFCURVE",
"349 210 CURVE SMOOTH",
"349 249 OFFCURVE",
"331 263 OFFCURVE",
"317 269 CURVE",
"389 348 LINE",
"430 335 OFFCURVE",
"465 277 OFFCURVE",
"465 215 CURVE SMOOTH",
"465 108 OFFCURVE",
"407 0 OFFCURVE",
"258 0 CURVE SMOOTH",
"137 0 OFFCURVE",
"25 66 OFFCURVE"
);
}
);
width = 782;
},
{
layerId = "CC11FE7D-5FF0-4B40-9597-DFC61EB94F41";
paths = (
{
closed = 1;
nodes = (
"480 166 CURVE SMOOTH",
"480 254 OFFCURVE",
"527 325 OFFCURVE",
"600 325 CURVE SMOOTH",
"639 325 OFFCURVE",
"674 311 OFFCURVE",
"692 287 CURVE",
"684 246 LINE",
"657 277 OFFCURVE",
"628 285 OFFCURVE",
"607 285 CURVE SMOOTH",
"551 285 OFFCURVE",
"522 228 OFFCURVE",
"522 166 CURVE SMOOTH",
"522 95 OFFCURVE",
"544 52 OFFCURVE",
"594 52 CURVE SMOOTH",
"615 52 OFFCURVE",
"637 63 OFFCURVE",
"658 63 CURVE SMOOTH",
"674 63 OFFCURVE",
"689 58 OFFCURVE",
"704 41 CURVE",
"693 3 LINE",
"680 18 OFFCURVE",
"672 23 OFFCURVE",
"662 23 CURVE SMOOTH",
"646 23 OFFCURVE",
"628 9 OFFCURVE",
"586 9 CURVE SMOOTH",
"501 9 OFFCURVE",
"480 108 OFFCURVE"
);
},
{
closed = 1;
nodes = (
"261 314 LINE",
"311 337 OFFCURVE",
"318 385 OFFCURVE",
"318 421 CURVE SMOOTH",
"318 435 OFFCURVE",
"317 448 OFFCURVE",
"317 456 CURVE SMOOTH",
"317 584 OFFCURVE",
"412 661 OFFCURVE",
"503 661 CURVE SMOOTH",
"608 661 OFFCURVE",
"705 601 OFFCURVE",
"705 332 CURVE SMOOTH",
"705 219 OFFCURVE",
"692 162 OFFCURVE",
"692 120 CURVE SMOOTH",
"692 87 OFFCURVE",
"700 63 OFFCURVE",
"727 27 CURVE",
"693 3 LINE",
"678 22 OFFCURVE",
"668 40 OFFCURVE",
"661 57 CURVE",
"652 81 OFFCURVE",
"649 103 OFFCURVE",
"649 128 CURVE SMOOTH",
"649 167 OFFCURVE",
"657 211 OFFCURVE",
"660 271 CURVE",
"662 290 OFFCURVE",
"662 310 OFFCURVE",
"662 332 CURVE SMOOTH",
"662 566 OFFCURVE",
"587 619 OFFCURVE",
"503 619 CURVE SMOOTH",
"417 619 OFFCURVE",
"359 540 OFFCURVE",
"359 456 CURVE SMOOTH",
"359 447 OFFCURVE",
"360 435 OFFCURVE",
"360 422 CURVE SMOOTH",
"360 374 OFFCURVE",
"352 310 OFFCURVE",
"274 281 CURVE"
);
},
{
closed = 1;
nodes = (
"38 314 CURVE SMOOTH",
"38 596 OFFCURVE",
"131 661 OFFCURVE",
"229 661 CURVE SMOOTH",
"313 661 OFFCURVE",
"358 604 OFFCURVE",
"370 538 CURVE",
"329 525 LINE",
"325 570 OFFCURVE",
"289 619 OFFCURVE",
"229 619 CURVE SMOOTH",
"153 619 OFFCURVE",
"80 562 OFFCURVE",
"80 314 CURVE SMOOTH",
"80 95 OFFCURVE",
"164 46 OFFCURVE",
"248 46 CURVE SMOOTH",
"347 46 OFFCURVE",
"384 127 OFFCURVE",
"384 198 CURVE SMOOTH",
"384 256 OFFCURVE",
"356 306 OFFCURVE",
"314 310 CURVE",
"333 343 LINE",
"374 340 OFFCURVE",
"426 284 OFFCURVE",
"426 198 CURVE SMOOTH",
"426 108 OFFCURVE",
"377 3 OFFCURVE",
"248 3 CURVE SMOOTH",
"143 3 OFFCURVE",
"38 60 OFFCURVE"
);
}
);
width = 765;
}
);
unicode = 0DC1;
},
